<svg width="164pt" height="202pt" viewBox="0 0 164 202" xmlns="http://www.w3.org/2000/svg"><path fill="#fe4040" d="M 109.51 0.00 L 110.28 0.00 C 114.02 5.39 121.35 6.71 127.42 5.38 C 131.32 4.87 135.13 2.95 139.11 3.83 C 141.88 4.26 144.70 4.24 147.45 4.82 C 149.65 5.69 151.60 7.07 153.68 8.19 C 154.17 7.13 154.66 6.07 155.15 5.00 C 157.59 6.40 160.12 7.63 162.84 8.39 C 162.68 13.60 162.95 18.80 163.29 24.00 C 163.07 48.34 163.41 72.68 163.64 97.03 C 164.03 102.16 164.08 107.38 162.60 112.37 C 161.66 114.94 163.11 117.38 164.00 119.72 L 164.00 125.10 C 161.75 125.53 159.51 125.98 157.26 126.41 C 156.76 131.98 156.43 137.56 155.87 143.12 C 155.91 145.21 156.41 147.52 157.76 149.16 C 159.34 149.75 160.98 150.13 162.60 150.56 C 162.95 152.08 163.31 153.61 163.65 155.15 C 159.82 157.03 155.71 158.24 151.83 159.99 C 149.65 160.90 148.51 163.54 148.92 165.80 C 150.25 168.31 153.52 169.91 153.45 173.04 C 153.90 175.95 150.98 177.61 149.36 179.57 C 146.83 179.11 144.28 178.72 141.73 178.43 C 142.37 181.89 142.86 185.44 142.40 188.95 C 141.62 190.84 139.82 192.05 138.49 193.54 C 133.24 193.65 127.99 193.59 122.75 193.62 C 122.68 194.38 122.53 195.90 122.46 196.66 C 122.02 196.82 121.14 197.15 120.69 197.31 C 120.16 198.77 121.24 201.50 119.17 201.92 C 116.38 198.59 113.90 194.97 111.93 191.10 C 113.91 189.89 116.29 189.83 118.51 189.38 C 118.96 186.75 119.45 184.12 119.98 181.51 C 113.61 180.98 107.29 180.01 100.93 179.35 C 97.95 179.27 95.62 177.24 93.50 175.38 C 91.16 175.33 88.82 175.31 86.48 175.32 C 85.95 176.65 85.43 177.98 84.91 179.31 C 82.39 179.27 79.72 179.77 77.33 178.79 C 69.44 174.98 60.80 173.22 52.53 170.43 C 52.30 170.01 51.84 169.17 51.61 168.75 C 50.21 168.49 48.77 168.33 47.42 167.83 C 45.50 161.35 46.59 154.40 46.44 147.73 C 48.74 145.85 49.83 143.16 49.77 140.23 C 41.99 138.53 33.96 140.04 26.15 138.63 C 25.44 139.64 24.73 140.65 24.01 141.67 C 23.36 140.64 22.70 139.63 22.05 138.61 C 14.95 138.30 7.89 137.50 0.80 137.11 C 1.57 133.75 2.48 130.43 3.30 127.08 C 6.37 126.79 9.44 126.71 12.52 126.62 C 17.71 121.31 26.35 123.97 32.53 120.62 C 35.07 112.94 37.45 105.16 38.93 97.18 C 35.99 95.49 33.50 93.13 30.54 91.50 C 25.48 90.59 20.27 90.85 15.15 90.43 C 15.44 88.39 15.72 86.34 16.01 84.30 C 17.20 83.56 18.40 82.84 19.59 82.11 C 17.23 78.91 16.11 74.31 18.97 71.02 C 23.59 69.30 28.74 69.09 33.01 66.37 C 34.59 67.12 36.08 68.37 37.90 68.36 C 39.89 67.30 41.47 65.65 42.99 64.02 C 50.15 56.05 56.38 47.32 62.53 38.57 C 64.17 36.26 65.44 33.72 66.58 31.13 C 65.01 27.72 62.31 24.21 62.52 20.38 C 65.88 14.51 69.43 8.69 73.24 3.09 C 76.18 3.28 78.98 4.39 81.92 4.59 C 84.00 3.79 85.56 1.50 87.99 1.84 C 93.33 2.18 98.69 2.43 104.04 2.15 C 106.08 2.13 107.77 0.91 109.51 0.00 Z" id="#fe4040ff"/></svg>