<svg width="28" height="29pt" viewBox="0 0 21 29" xmlns="http://www.w3.org/2000/svg"><path fill="#fe4040" d="M 10.15 0.00 L 18.86 0.00 C 21.19 3.76 18.18 7.83 18.91 11.84 C 19.62 12.90 20.32 13.97 21.00 15.06 L 21.00 18.27 C 17.14 20.24 17.22 24.96 17.97 28.63 C 15.46 27.95 12.97 27.14 10.39 26.77 C 9.88 27.33 8.87 28.44 8.36 29.00 L 7.66 29.00 C 7.04 28.70 5.80 28.09 5.19 27.78 C 4.68 26.22 4.26 24.62 4.09 22.97 C 2.75 21.62 1.35 20.34 0.00 19.01 L 0.00 10.37 L 0.08 18.70 C 3.47 16.82 4.81 13.08 5.17 9.43 C 3.35 8.65 1.62 7.68 0.00 6.54 L 0.00 5.13 C 0.46 5.19 1.37 5.32 1.83 5.39 L 1.32 2.99 C 4.80 3.17 8.13 2.06 11.53 1.54 C 13.47 1.14 15.63 1.53 17.28 0.14 L 10.15 0.00 Z" id="#fe4040ff"/></svg>