<svg width="88" height="53pt" viewBox="0 0 66 53" xmlns="http://www.w3.org/2000/svg"><path fill="#fe4040" d="M 3.49 0.00 L 7.36 0.00 C 8.36 0.57 9.34 1.16 10.31 1.78 C 11.52 3.03 12.63 4.92 14.64 4.82 C 20.84 5.12 27.06 6.13 33.28 5.37 C 35.93 5.03 38.51 4.08 41.22 4.37 C 39.60 5.98 37.75 7.33 35.76 8.45 C 35.95 10.41 36.43 12.33 37.22 14.14 C 39.33 13.42 41.43 12.67 43.57 12.07 C 44.02 13.66 44.50 15.24 45.01 16.81 C 46.76 17.34 48.50 17.90 50.24 18.46 C 49.72 21.06 48.36 23.76 49.57 26.38 C 50.65 25.94 51.73 25.50 52.81 25.07 C 53.78 26.28 54.80 27.45 55.88 28.56 C 55.92 27.61 56.01 25.72 56.05 24.77 C 55.70 24.27 54.98 23.27 54.63 22.77 C 56.04 21.72 57.59 20.90 59.18 20.16 C 59.36 20.56 59.71 21.35 59.88 21.75 C 59.12 23.30 58.42 24.88 57.84 26.52 C 60.75 26.46 63.74 26.81 66.00 28.82 L 66.00 29.49 C 64.87 30.17 63.75 30.86 62.62 31.55 C 60.65 30.41 58.41 30.17 56.31 31.12 C 55.52 33.44 54.44 35.63 53.45 37.85 C 54.88 37.95 56.28 38.20 57.66 38.60 C 58.92 39.88 59.64 41.57 60.58 43.09 C 59.74 44.52 58.90 45.95 58.02 47.35 C 56.84 47.47 55.66 47.60 54.49 47.77 C 52.32 47.43 50.32 46.50 48.30 45.69 C 46.02 44.75 43.56 45.65 41.28 46.11 C 40.44 47.08 39.60 48.04 38.75 49.00 C 38.25 48.19 37.76 47.38 37.26 46.57 C 36.71 46.92 35.60 47.64 35.05 47.99 C 31.21 45.14 26.60 43.71 22.41 41.51 C 20.60 40.49 19.04 42.03 17.75 43.10 C 17.08 43.22 15.74 43.46 15.07 43.58 C 15.64 45.38 16.45 47.10 17.70 48.54 C 17.49 49.72 17.28 50.90 17.05 52.07 C 15.73 52.37 14.42 52.68 13.11 53.00 L 12.61 53.00 C 12.29 51.73 12.00 50.46 11.74 49.18 C 9.41 47.21 6.57 44.76 3.50 46.96 C 4.31 43.40 6.42 40.35 8.02 37.12 C 4.67 34.01 1.18 30.72 0.00 26.12 L 0.00 25.25 C 2.40 24.27 4.67 27.02 7.03 25.17 C 8.15 25.51 9.26 25.86 10.37 26.22 C 9.37 24.14 11.00 22.50 12.10 20.92 C 12.61 21.55 13.62 22.82 14.13 23.45 C 14.51 21.71 15.11 20.03 15.87 18.42 C 16.50 18.41 17.75 18.40 18.38 18.39 C 17.01 15.76 14.66 14.05 11.78 13.41 C 11.90 11.48 12.14 9.57 12.46 7.66 C 11.18 8.09 9.90 8.53 8.63 8.98 C 6.87 6.70 4.88 4.56 2.18 3.42 C 1.94 3.11 1.46 2.50 1.22 2.20 C 1.97 1.45 2.72 0.72 3.49 0.00 Z" id="#fe4040ff"/></svg>