<svg width="91pt" height="112" viewBox="0 0 91 84" xmlns="http://www.w3.org/2000/svg"><path fill="#fe4040" d="M 13.59 0.00 L 19.25 0.00 C 20.34 1.32 21.42 2.66 22.46 4.02 C 22.99 4.04 24.05 4.08 24.58 4.10 C 25.04 3.58 25.95 2.54 26.40 2.02 C 26.80 2.37 27.61 3.06 28.01 3.41 C 29.51 3.40 31.02 3.40 32.52 3.40 C 34.53 5.41 36.80 8.22 39.84 6.00 C 41.29 7.05 42.58 8.28 43.77 9.61 C 45.76 9.84 47.77 9.89 49.78 9.84 C 51.11 10.59 52.31 11.68 53.82 12.06 C 55.48 11.74 57.08 11.19 58.71 10.76 C 59.65 12.23 60.57 13.71 61.47 15.20 C 64.16 14.86 66.92 14.62 69.47 13.64 C 71.76 12.19 73.50 10.04 75.45 8.17 C 74.91 7.10 74.36 6.03 73.82 4.95 C 74.63 4.16 75.43 3.38 76.24 2.59 C 76.72 4.06 77.22 5.53 77.74 6.99 C 77.88 10.33 78.97 13.51 79.34 16.81 C 77.19 18.52 74.60 19.95 73.57 22.68 C 70.13 30.72 68.54 39.41 67.07 47.98 C 67.07 52.77 68.35 57.57 69.86 62.08 C 73.03 66.21 78.90 66.79 82.62 70.32 C 85.82 73.38 89.12 76.80 90.08 81.28 C 86.27 82.91 82.24 84.11 78.04 83.79 C 77.04 80.62 73.29 80.03 71.09 77.92 C 69.24 78.16 67.40 78.45 65.56 78.72 C 62.99 76.86 60.58 74.77 57.90 73.07 C 55.55 71.54 52.63 71.91 49.97 71.64 C 46.81 69.78 42.96 69.90 39.81 68.00 C 37.96 68.07 35.50 66.27 34.02 67.80 C 34.38 70.88 34.78 74.06 32.60 76.62 C 31.29 72.63 31.25 68.43 31.29 64.28 C 29.71 63.20 28.14 62.08 26.59 60.94 C 26.46 59.43 26.08 57.97 25.46 56.60 C 25.31 55.35 25.18 54.10 25.05 52.86 C 23.55 52.84 22.04 52.83 20.53 52.83 C 21.12 53.93 21.70 55.02 22.30 56.12 C 21.72 56.38 20.57 56.90 19.99 57.16 C 20.05 57.86 20.15 59.27 20.21 59.97 C 22.45 62.59 23.95 65.73 24.59 69.12 C 20.00 69.33 15.72 67.17 12.93 63.58 C 13.21 62.30 14.07 61.02 13.67 59.67 C 12.93 59.29 11.44 58.54 10.69 58.16 C 11.37 57.45 12.05 56.74 12.73 56.03 C 12.17 55.11 11.62 54.19 11.06 53.26 C 11.35 52.19 11.60 51.11 11.80 50.02 C 10.13 47.55 7.83 45.58 5.82 43.39 C 8.86 43.71 11.63 45.00 14.25 46.49 C 14.60 44.67 14.93 42.85 15.23 41.02 C 15.88 41.16 17.17 41.45 17.82 41.59 C 19.98 38.52 22.10 35.41 23.63 31.97 C 21.50 29.02 19.19 26.22 17.19 23.18 C 17.65 22.23 18.55 20.33 19.01 19.38 C 16.89 19.99 14.80 20.68 12.65 21.19 C 13.27 19.77 13.92 18.35 14.58 16.94 C 11.82 16.92 8.99 16.82 6.57 15.35 C 4.88 14.64 3.28 13.76 1.83 12.63 C 1.37 12.87 0.46 13.34 0.00 13.58 L 0.00 12.09 C 1.00 11.07 2.04 10.10 3.07 9.12 C 4.26 9.53 5.45 9.94 6.64 10.36 C 6.76 9.67 7.02 8.27 7.14 7.58 C 8.85 4.71 10.45 1.56 13.59 0.00 Z" id="#fe4040ff"/></svg>