<svg width="76" height="108" viewBox="0 0 57 81" xmlns="http://www.w3.org/2000/svg"><path fill="#fe4040" d="M 21.37 0.00 L 24.22 0.00 C 26.70 5.01 32.49 6.29 37.47 7.30 C 37.21 8.03 36.69 9.49 36.43 10.22 C 37.55 10.58 38.68 10.94 39.81 11.28 C 39.69 11.89 39.44 13.10 39.32 13.71 C 41.56 14.65 43.87 15.47 45.85 16.91 C 45.21 17.51 43.93 18.70 43.29 19.29 C 43.60 20.40 43.91 21.50 44.22 22.61 C 49.21 25.13 51.60 30.64 52.14 35.97 C 52.02 38.66 51.65 41.33 51.58 44.03 C 53.40 44.63 55.24 45.20 57.00 45.97 L 57.00 47.37 C 56.68 50.28 54.06 51.66 52.14 53.45 C 51.56 55.91 51.25 58.46 50.08 60.74 C 50.37 63.59 51.69 66.69 49.35 69.06 C 50.65 70.42 51.97 71.76 53.28 73.10 C 49.72 74.97 45.86 76.46 42.95 79.35 C 41.27 78.57 39.67 77.08 37.69 77.52 C 36.39 78.58 35.28 79.84 34.07 81.00 L 32.85 81.00 C 31.67 80.09 30.45 79.23 29.21 78.41 C 28.71 74.78 27.01 71.25 23.73 69.37 C 21.90 69.18 20.09 68.85 18.31 68.38 C 18.92 66.88 19.54 65.39 20.18 63.90 C 18.53 61.10 16.85 58.25 14.40 56.05 C 15.94 53.40 16.22 50.38 16.05 47.38 C 16.57 47.07 17.60 46.46 18.12 46.15 C 17.99 44.62 17.86 43.09 17.72 41.56 C 17.72 40.43 18.46 38.73 17.01 38.19 C 16.24 38.09 14.70 37.90 13.92 37.81 C 12.93 38.86 11.94 39.90 10.94 40.95 C 8.17 41.26 5.35 40.56 4.56 37.56 C 3.04 36.91 1.52 36.26 0.00 35.63 L 0.00 33.31 C 1.55 32.00 3.22 30.87 4.91 29.76 C 5.16 26.35 5.64 22.92 6.85 19.70 C 8.70 19.03 10.95 18.67 12.02 16.80 C 12.01 15.57 11.58 14.41 11.24 13.24 C 11.13 11.50 11.06 9.76 10.97 8.01 C 13.00 6.92 15.25 6.35 17.29 5.29 C 18.80 3.64 19.98 1.74 21.37 0.00 Z" id="#fe4040ff"/></svg>