<svg width="85pt" height="94pt" viewBox="0 0 85 94" xmlns="http://www.w3.org/2000/svg"><path fill="#fe4040" d="M 21.34 0.00 L 22.34 0.00 C 23.75 3.89 28.29 3.01 31.53 3.11 C 33.42 5.17 35.41 7.16 37.79 8.65 C 37.70 9.19 37.52 10.27 37.43 10.81 C 40.65 12.83 43.93 14.76 46.98 17.04 C 46.96 17.68 46.93 18.96 46.92 19.60 C 51.20 20.79 53.32 24.79 55.70 28.14 C 54.15 29.33 51.94 30.63 52.14 32.90 C 52.79 35.09 55.49 35.43 57.34 36.13 C 58.09 37.49 59.00 38.74 59.98 39.94 C 61.50 39.53 63.02 39.15 64.54 38.79 C 65.96 37.79 67.43 36.87 68.93 35.99 C 69.37 36.31 70.26 36.93 70.70 37.25 C 70.17 38.19 69.63 39.14 69.10 40.09 C 69.62 40.60 70.65 41.63 71.17 42.14 C 70.37 43.13 69.56 44.10 68.75 45.07 C 68.33 47.26 67.99 49.47 67.81 51.69 C 67.15 52.78 66.49 53.86 65.83 54.95 C 66.49 55.11 67.81 55.45 68.46 55.61 C 69.77 57.65 71.34 59.62 71.98 61.99 C 71.63 63.89 70.63 65.66 70.78 67.63 C 72.58 67.63 74.39 67.63 76.19 67.61 C 78.07 69.46 80.36 71.22 81.05 73.90 C 80.62 74.83 80.10 75.70 79.60 76.59 C 80.91 76.84 82.22 77.09 83.52 77.34 C 83.89 77.92 84.63 79.10 85.00 79.69 L 85.00 80.52 C 84.05 81.77 83.03 82.97 81.96 84.13 C 78.42 83.34 76.67 86.84 76.75 89.84 C 73.17 89.80 69.58 89.80 66.00 89.81 C 64.61 91.22 63.23 92.66 61.77 94.00 L 60.14 94.00 C 58.77 92.67 57.48 91.28 56.10 89.98 C 58.38 85.58 54.73 81.70 51.05 79.74 C 48.26 81.26 45.61 83.10 42.52 83.94 C 42.46 83.25 42.33 81.86 42.27 81.16 C 39.83 78.34 37.99 75.10 36.07 71.92 C 31.96 72.02 27.86 71.95 23.75 72.07 C 21.36 69.73 19.20 66.96 18.48 63.61 C 18.17 60.64 15.21 59.41 13.24 57.62 C 15.02 55.47 14.86 52.48 16.27 50.21 C 19.11 48.32 22.54 45.87 21.87 41.94 C 20.72 38.79 20.46 35.47 20.80 32.15 C 17.65 30.94 14.30 31.17 11.07 31.88 C 8.77 32.72 7.97 29.89 7.55 28.26 C 6.39 30.03 5.13 31.73 3.77 33.35 C 2.20 30.96 1.00 28.34 0.00 25.65 L 0.00 23.49 C 2.17 20.07 3.40 16.14 4.52 12.27 C 9.29 7.22 15.24 3.24 21.34 0.00 Z" id="#fe4040ff"/></svg>