<svg width="59pt" height="43pt" viewBox="0 0 59 43" xmlns="http://www.w3.org/2000/svg"><path fill="#fe4040" d="M 26.30 0.00 L 28.29 0.00 C 26.40 1.62 23.33 3.01 23.66 5.96 C 22.95 8.79 25.70 10.23 27.48 11.76 C 30.44 14.08 32.83 17.00 35.23 19.86 C 38.16 23.26 42.96 23.68 47.15 23.67 C 47.52 24.87 47.38 26.52 48.87 26.94 C 51.73 27.84 51.70 32.15 54.94 32.29 C 57.39 32.19 58.06 34.68 59.00 36.42 L 59.00 36.75 C 57.44 37.14 55.02 36.16 54.20 37.99 C 54.18 38.91 54.14 40.74 54.12 41.66 C 51.47 40.15 48.31 39.01 45.30 40.18 C 43.30 41.08 41.23 40.83 39.30 39.97 C 39.25 40.73 39.15 42.24 39.09 43.00 L 36.81 43.00 C 32.87 40.01 28.80 37.01 23.93 35.71 C 23.45 34.98 22.98 34.24 22.52 33.49 C 21.42 33.45 20.32 33.40 19.22 33.35 C 17.60 31.16 15.23 29.78 12.63 29.05 C 13.06 30.93 13.51 32.81 14.14 34.63 C 12.33 34.84 10.56 35.28 8.93 36.09 C 8.45 35.82 7.48 35.29 7.00 35.03 C 5.94 33.47 4.66 32.08 3.19 30.92 C 1.06 26.75 3.78 21.42 0.30 17.92 L 0.00 19.67 L 0.00 16.96 C 0.70 16.93 2.11 16.87 2.82 16.84 C 3.10 16.39 3.66 15.51 3.94 15.07 C 3.66 14.52 3.12 13.43 2.84 12.89 C 3.35 11.94 3.87 11.00 4.38 10.06 C 8.77 10.12 15.19 10.81 16.90 5.55 C 19.96 3.59 23.01 1.58 26.30 0.00 Z" id="#fe4040ff"/></svg>