<svg width="212" height="109pt" viewBox="0 0 159 109" xmlns="http://www.w3.org/2000/svg"><path fill="#fe4040" d="M 151.03 0.00 L 153.02 0.00 C 155.17 1.11 157.24 2.40 159.00 4.08 L 159.00 5.25 C 156.42 9.44 154.19 13.84 152.39 18.43 C 149.70 25.29 145.56 31.49 143.37 38.55 C 142.72 45.87 140.13 52.82 138.99 60.06 C 138.23 65.98 136.85 71.81 136.36 77.77 C 135.02 87.38 133.07 97.35 135.60 106.93 C 133.53 107.70 131.44 108.42 129.31 109.00 L 128.86 109.00 C 127.93 107.79 127.07 106.53 126.24 105.25 C 125.15 104.81 124.06 104.35 122.94 103.99 C 121.68 104.34 120.83 105.45 119.82 106.20 C 118.73 105.09 117.64 103.99 116.56 102.89 C 115.37 103.21 114.20 103.55 113.03 103.92 C 110.85 102.95 108.85 101.65 107.30 99.82 C 105.73 100.02 104.17 100.24 102.62 100.49 C 101.28 99.17 99.95 97.84 98.60 96.54 C 95.26 96.79 91.71 95.49 88.77 97.70 C 87.95 96.41 87.12 95.12 86.29 93.84 C 83.36 93.15 80.36 93.09 77.39 92.72 C 74.42 91.66 72.75 88.72 70.87 86.38 C 72.07 85.16 73.27 83.94 74.45 82.70 C 73.04 82.13 71.61 81.59 70.18 81.06 C 70.17 79.11 70.17 77.16 70.17 75.20 C 68.12 74.25 66.13 73.07 63.90 72.60 C 61.77 73.25 60.62 75.32 59.15 76.83 C 57.77 76.49 56.40 76.12 54.98 75.95 C 52.01 77.00 49.48 80.47 46.05 79.27 C 43.89 78.72 43.18 76.51 42.32 74.74 C 39.84 74.84 37.37 75.08 34.91 75.34 C 31.53 71.47 26.35 70.98 21.83 69.27 C 22.43 67.54 23.03 65.81 23.59 64.06 C 21.87 64.87 20.18 65.72 18.51 66.63 C 18.08 66.23 17.22 65.42 16.79 65.02 C 16.29 65.08 15.29 65.20 14.79 65.26 C 12.91 66.46 10.79 67.15 8.70 67.87 C 6.44 67.90 4.18 67.93 1.92 67.97 C 1.84 65.85 1.72 63.74 1.60 61.62 C 1.06 60.05 0.53 58.48 0.00 56.91 L 0.00 55.93 C 0.31 55.33 0.94 54.13 1.25 53.52 C 2.50 53.32 3.74 53.06 4.97 52.76 C 4.78 51.72 4.53 50.68 4.23 49.66 C 4.24 48.10 4.26 46.53 4.26 44.97 C 7.72 40.87 13.47 38.44 15.02 32.96 C 18.80 32.93 22.59 33.57 26.34 33.00 C 28.19 31.20 30.53 30.10 32.91 29.18 C 34.34 30.10 35.77 31.03 37.19 31.96 C 37.99 30.32 38.78 28.68 39.57 27.04 C 42.69 25.96 46.07 25.66 49.01 27.42 C 49.72 27.30 51.15 27.07 51.87 26.95 C 54.08 27.51 56.31 27.99 58.55 28.40 C 59.33 25.41 56.53 21.34 59.59 19.34 C 59.54 19.22 59.45 18.97 59.41 18.84 C 60.70 17.38 61.88 15.80 63.02 14.21 C 65.76 15.65 68.33 17.56 71.39 18.29 C 76.57 19.29 81.57 22.12 86.96 20.68 C 87.80 19.82 88.64 18.97 89.48 18.12 C 91.38 17.82 93.37 16.92 95.23 17.88 C 98.20 19.21 101.43 18.50 104.49 17.95 C 104.26 19.11 104.04 20.26 103.83 21.42 C 105.94 22.52 108.49 23.05 110.22 24.77 C 111.05 26.42 111.45 28.25 112.27 29.90 C 113.60 31.22 115.46 31.82 116.93 32.96 C 117.93 34.48 118.47 36.23 119.20 37.88 C 120.00 38.27 120.81 38.65 121.62 39.04 C 121.44 39.51 121.10 40.44 120.92 40.91 C 121.27 42.57 121.58 44.23 121.86 45.90 C 123.17 45.91 124.49 45.91 125.80 45.92 C 127.84 42.68 129.98 39.50 132.35 36.48 C 133.09 42.42 131.46 48.19 130.91 54.05 C 133.45 51.18 133.49 47.19 134.75 43.75 C 135.85 39.93 138.81 36.25 137.07 32.13 C 137.38 30.78 137.65 29.42 138.11 28.11 C 140.62 22.20 139.35 15.55 140.51 9.37 C 142.12 4.58 147.21 2.66 151.03 0.00 Z" id="#fe4040ff"/></svg>