<svg width="71pt" height="73pt" viewBox="0 0 71 73" xmlns="http://www.w3.org/2000/svg"><path fill="#fe4040" d="M 44.38 1.61 C 47.37 0.09 50.75 0.68 53.96 0.62 C 58.86 4.91 58.94 11.98 59.02 17.98 C 59.21 23.09 58.03 28.59 60.67 33.26 C 61.79 36.27 63.54 38.96 65.14 41.73 C 66.63 44.69 69.84 46.42 71.00 49.58 L 71.00 51.85 C 69.26 53.27 67.75 54.97 65.92 56.29 C 67.77 56.80 69.24 58.15 71.00 58.90 L 71.00 58.90 C 69.54 61.20 69.92 63.96 69.95 66.55 C 65.85 68.35 61.77 70.19 58.23 73.00 L 58.18 73.00 C 57.84 69.44 56.75 66.06 55.76 62.65 C 53.50 62.80 51.49 63.82 49.45 64.70 C 47.46 65.67 45.41 63.42 43.50 64.54 C 39.35 66.99 34.11 67.33 30.63 70.90 C 31.07 71.43 31.96 72.48 32.40 73.00 L 26.06 73.00 C 27.45 70.92 27.60 68.43 27.48 66.01 C 25.73 65.33 24.00 64.60 22.24 63.93 C 21.51 62.46 21.62 60.73 21.10 59.18 C 18.86 59.88 16.65 60.71 14.31 61.01 C 14.07 59.64 13.63 58.33 13.28 57.00 C 15.81 55.98 18.76 54.46 18.16 51.20 C 17.13 51.21 15.07 51.23 14.04 51.24 C 15.82 49.88 17.44 48.19 18.18 46.03 C 17.69 45.73 16.71 45.14 16.22 44.84 C 15.43 46.12 14.37 47.23 13.16 48.13 C 13.16 47.37 13.15 45.86 13.15 45.10 C 10.60 43.72 8.71 41.28 5.97 40.26 C 4.33 40.95 2.79 41.84 1.23 42.68 C 1.16 40.99 0.75 39.39 0.00 37.88 L 0.00 37.82 C 1.39 34.86 3.44 32.24 5.89 30.08 C 5.64 26.62 5.59 23.09 7.03 19.85 C 6.83 17.59 5.67 15.50 5.70 13.19 C 7.10 11.97 8.37 10.62 9.59 9.21 C 15.23 10.36 21.45 10.76 27.06 9.20 C 28.98 10.76 30.63 12.80 33.19 13.26 C 31.88 10.66 30.65 7.70 31.65 4.77 C 35.31 1.68 40.35 3.63 44.38 1.61 Z" id="#fe4040ff"/></svg>