<svg width="88" height="59pt" viewBox="0 0 66 59" xmlns="http://www.w3.org/2000/svg"><path fill="#fe4040" d="M 35.03 0.00 L 44.44 0.00 C 44.99 0.16 46.11 0.49 46.66 0.66 C 47.39 3.63 48.14 6.60 49.18 9.49 C 50.47 8.94 51.74 8.37 52.99 7.73 C 54.41 7.64 55.83 7.57 57.25 7.51 C 59.16 4.22 62.84 4.83 66.00 5.41 L 66.00 8.07 C 63.86 7.65 61.72 7.24 59.57 6.90 C 59.93 7.57 60.64 8.91 60.99 9.58 C 60.79 9.90 60.39 10.55 60.19 10.87 C 61.03 11.33 61.87 11.79 62.72 12.25 C 63.16 13.50 63.62 14.74 64.08 15.98 C 62.66 15.99 61.23 16.00 59.81 16.01 C 59.84 18.36 59.89 20.72 60.06 23.07 C 60.30 23.78 60.80 25.21 61.04 25.92 C 59.89 27.97 57.38 27.81 55.42 28.41 C 53.16 30.18 51.68 32.73 49.64 34.73 C 48.29 35.03 46.79 34.95 45.60 35.76 C 45.20 36.90 44.86 38.06 44.59 39.25 C 44.44 39.59 44.14 40.27 43.99 40.61 C 44.66 42.21 45.32 43.80 45.97 45.40 C 44.05 46.55 42.09 47.60 40.11 48.63 C 39.13 52.02 38.87 55.55 38.21 59.00 L 37.36 59.00 C 35.19 55.08 32.11 51.73 28.09 49.66 C 28.09 48.66 28.09 47.66 28.09 46.66 C 25.02 45.07 22.11 43.22 19.19 41.38 C 19.21 40.83 19.24 39.73 19.26 39.18 C 17.14 37.67 15.20 35.91 13.57 33.88 C 11.36 33.84 9.14 33.83 6.93 33.82 C 5.68 32.56 4.42 31.30 3.16 30.05 C 2.10 30.42 1.04 30.79 0.00 31.21 L 0.00 27.43 C 0.69 23.70 1.53 19.99 2.53 16.33 C 4.31 16.09 6.08 15.86 7.86 15.65 C 9.41 10.71 15.64 10.35 17.85 5.92 C 19.82 5.03 21.60 3.79 22.94 2.08 C 23.09 2.58 23.37 3.59 23.51 4.09 C 26.48 3.67 29.48 3.43 32.48 3.40 C 33.32 2.26 34.17 1.13 35.03 0.00 Z" id="#fe4040ff"/></svg>