<svg width="112pt" height="92pt" viewBox="0 0 112 92" xmlns="http://www.w3.org/2000/svg"><path fill="#fe4040" d="M 25.14 0.00 L 28.29 0.00 C 28.03 0.27 27.51 0.80 27.25 1.07 C 28.51 2.33 30.79 1.63 31.34 0.00 L 32.58 0.00 C 32.81 0.43 33.29 1.29 33.52 1.72 C 36.56 2.25 39.61 2.68 42.65 3.18 C 44.12 4.98 45.54 6.81 47.03 8.60 C 47.06 10.48 47.12 12.36 47.23 14.24 C 46.72 15.01 46.19 15.77 45.68 16.55 C 46.84 17.19 48.15 17.53 49.31 18.19 C 49.18 20.16 48.40 22.43 49.81 24.13 C 52.67 26.97 56.96 27.21 60.71 27.81 C 61.16 23.57 58.94 19.88 56.14 16.93 C 57.01 15.92 57.88 14.91 58.76 13.91 C 58.58 13.11 58.24 11.49 58.06 10.69 C 59.10 11.08 60.14 11.48 61.17 11.88 C 60.91 12.61 60.37 14.06 60.10 14.79 C 61.50 18.27 63.62 21.29 66.98 23.12 C 66.98 27.09 66.92 31.07 67.24 35.04 C 69.16 34.07 70.77 32.63 71.87 30.77 C 71.13 29.41 70.38 28.04 69.63 26.68 C 71.54 26.32 73.46 26.04 75.39 25.81 C 75.85 26.30 76.79 27.29 77.25 27.79 C 81.34 27.98 85.06 29.94 89.14 30.20 C 93.88 30.75 96.95 34.84 101.00 36.87 C 102.88 37.20 104.78 36.72 106.64 36.41 C 108.33 37.77 110.07 39.06 111.87 40.28 L 112.00 37.26 L 112.00 41.56 C 110.93 42.35 109.85 43.12 108.76 43.87 C 108.71 46.07 108.81 48.27 108.96 50.47 C 108.10 49.59 107.24 48.70 106.39 47.81 C 100.06 49.09 93.64 49.10 87.31 47.81 C 85.95 49.20 84.58 50.58 83.22 51.97 C 84.50 57.27 83.46 62.60 83.31 67.94 C 81.47 70.24 79.71 72.60 77.95 74.96 C 77.96 77.01 77.96 79.06 77.96 81.10 C 78.43 81.30 79.37 81.68 79.84 81.88 C 81.20 81.29 82.54 80.65 83.97 80.26 C 86.37 81.50 88.91 82.82 90.73 84.86 C 90.61 85.55 90.35 86.92 90.23 87.60 C 92.08 86.77 93.88 85.84 95.72 85.00 C 94.03 87.30 92.04 89.35 90.25 91.57 C 88.85 91.71 87.45 91.85 86.05 92.00 L 73.84 92.00 C 70.74 91.48 67.52 90.72 65.35 88.26 C 62.93 86.81 60.63 85.11 59.30 82.54 C 56.20 82.00 53.91 80.14 53.37 76.95 C 52.75 76.82 51.52 76.57 50.91 76.44 C 50.39 75.23 49.88 74.01 49.38 72.79 C 46.42 72.57 43.26 72.94 40.51 71.61 C 36.58 69.54 35.18 64.86 31.62 62.35 C 29.05 60.48 26.21 58.59 25.56 55.22 C 27.25 53.64 28.95 52.06 30.74 50.60 C 31.58 48.16 32.66 45.78 33.04 43.22 C 32.16 42.52 31.22 41.91 30.22 41.40 C 31.62 38.27 33.24 35.17 33.71 31.72 C 29.83 36.21 26.16 40.94 21.57 44.75 C 20.23 45.72 18.74 46.82 16.99 46.65 C 11.31 46.26 5.62 48.35 0.00 46.77 L 0.00 38.92 C 2.64 34.46 8.04 33.33 12.25 30.89 C 11.90 30.41 11.21 29.46 10.86 28.99 C 11.82 28.62 12.78 28.26 13.73 27.89 C 14.42 26.82 15.11 25.75 15.81 24.68 C 18.36 28.88 23.39 26.89 27.16 26.12 C 26.21 24.78 25.25 23.43 24.31 22.07 C 26.04 20.20 28.25 18.63 29.36 16.28 C 30.48 14.06 29.54 11.63 29.23 9.33 C 26.52 7.20 23.44 5.06 22.72 1.44 C 23.32 1.08 24.54 0.36 25.14 0.00 Z" id="#fe4040ff"/></svg>