<svg width="108" height="43pt" viewBox="0 0 81 43" xmlns="http://www.w3.org/2000/svg"><path fill="#fe4040" d="M 14.15 0.00 L 14.15 0.00 C 14.81 1.15 15.49 2.28 16.21 3.39 C 19.84 4.70 19.86 9.08 22.10 11.70 C 22.25 9.44 22.27 7.18 22.25 4.91 C 22.84 4.28 23.44 3.66 24.04 3.04 C 23.61 1.98 23.09 0.97 22.50 0.00 L 23.96 0.00 C 24.73 0.26 26.27 0.77 27.04 1.02 C 26.71 1.85 26.37 2.69 26.04 3.52 C 27.69 5.41 29.16 7.44 30.63 9.46 C 32.02 7.90 33.26 6.20 34.80 4.79 C 37.02 4.21 39.36 3.92 41.26 2.51 C 42.65 4.65 45.03 4.30 47.18 3.77 C 46.61 6.04 45.62 8.34 45.90 10.73 C 46.52 12.07 47.77 12.93 48.78 13.95 C 48.44 14.50 47.78 15.59 47.45 16.14 C 51.66 18.04 54.94 21.20 57.20 25.21 C 58.83 25.46 60.47 25.73 62.10 26.03 C 62.69 25.00 63.24 23.96 63.77 22.90 C 64.98 23.58 66.28 23.62 67.53 23.05 C 68.05 20.84 69.81 19.44 71.97 18.98 C 71.82 21.76 73.11 24.16 75.05 26.04 C 76.62 26.08 78.20 26.08 79.77 26.30 C 80.26 27.54 80.66 28.82 80.97 30.12 C 78.77 31.13 77.04 32.86 75.07 34.22 C 72.97 34.97 70.51 34.38 68.59 35.70 C 65.42 37.58 62.17 39.39 58.73 40.75 C 56.16 41.46 53.51 41.90 51.06 43.00 L 49.29 43.00 C 48.51 41.68 47.74 40.36 46.94 39.05 C 40.64 37.38 35.13 33.61 28.70 32.31 C 25.26 30.00 21.96 27.35 17.70 26.62 C 15.06 23.84 10.80 23.69 8.26 20.77 C 5.59 17.94 3.14 14.90 0.00 12.55 L 0.00 11.55 C 2.43 10.84 3.95 8.81 5.30 6.80 C 7.48 7.88 9.43 10.82 12.04 10.08 C 13.50 7.19 8.31 5.54 9.47 2.30 C 11.05 1.57 12.59 0.77 14.15 0.00 Z" id="#fe4040ff"/></svg>