<svg width="38pt" height="49pt" viewBox="0 0 38 49" xmlns="http://www.w3.org/2000/svg"><path fill="#fe4040" d="M 34.22 0.00 L 37.14 0.00 L 36.82 0.80 C 37.11 1.06 37.70 1.59 38.00 1.85 L 38.00 4.18 C 35.36 8.42 38.48 14.10 34.80 17.75 C 33.45 18.10 32.11 18.45 30.76 18.82 C 30.99 20.83 31.22 22.85 31.57 24.85 C 27.18 24.42 24.73 28.78 23.37 32.29 C 22.46 34.11 24.48 35.64 25.07 37.24 C 23.50 39.50 21.89 41.74 20.40 44.06 C 17.86 43.69 15.33 43.31 12.78 43.08 C 12.09 44.69 11.37 46.29 10.68 47.90 C 9.33 48.30 7.98 48.69 6.61 49.00 L 4.24 49.00 C 2.59 47.35 1.10 45.55 0.02 43.48 C 0.01 43.57 0.00 43.73 0.00 43.82 L 0.00 43.45 C 1.28 41.50 2.38 39.44 3.43 37.37 C 5.44 36.34 7.49 35.39 9.37 34.13 C 8.55 33.33 7.70 32.54 6.84 31.78 C 7.92 30.16 9.12 28.60 10.01 26.86 C 11.00 24.87 9.92 22.73 9.28 20.83 C 9.97 16.73 10.35 12.54 11.69 8.60 C 12.13 6.99 13.78 6.45 15.13 5.83 C 16.77 6.90 18.43 7.92 20.08 8.97 C 20.79 8.98 22.21 8.99 22.93 8.99 C 26.53 5.79 30.64 3.22 34.22 0.00 Z" id="#fe4040ff"/></svg>