<svg width="49pt" height="38pt" viewBox="0 0 49 38" xmlns="http://www.w3.org/2000/svg"><path fill="#fe4040" d="M 26.59 0.00 L 26.74 0.00 C 27.61 2.91 28.58 5.84 30.61 8.18 C 31.72 7.14 32.81 6.09 33.88 5.00 C 34.50 5.46 35.13 5.91 35.75 6.36 C 39.61 6.13 43.57 5.22 47.31 6.66 C 47.30 9.11 47.28 11.56 47.21 14.01 C 47.79 14.74 48.39 15.45 49.00 16.16 L 49.00 16.72 C 48.25 17.99 47.53 19.29 46.83 20.60 C 45.21 21.80 43.60 23.01 41.99 24.23 C 41.93 24.77 41.80 25.87 41.73 26.41 C 40.83 28.67 40.14 31.01 39.67 33.40 C 36.95 34.64 34.51 36.38 32.01 38.00 L 30.93 38.00 C 31.48 36.82 32.00 35.64 32.51 34.45 C 30.70 34.09 28.87 34.19 27.06 34.45 C 26.68 35.63 26.32 36.81 25.96 38.00 L 25.42 38.00 C 23.28 35.47 22.27 32.25 22.41 28.95 C 20.67 29.73 18.93 30.65 17.02 30.97 C 14.53 30.87 12.58 28.55 9.99 28.82 C 8.97 29.30 7.97 29.84 7.01 30.44 C 5.67 30.36 4.33 30.26 2.98 30.14 C 2.97 29.41 2.95 27.96 2.93 27.23 C 1.95 26.63 0.97 26.01 0.00 25.38 L 0.00 24.74 C 0.24 23.98 0.71 22.45 0.95 21.69 C 2.76 20.89 4.26 19.60 5.57 18.14 C 4.93 17.86 3.65 17.32 3.01 17.04 C 3.92 16.12 4.83 15.18 5.71 14.22 C 8.16 14.31 9.91 13.04 10.13 10.53 C 13.28 8.91 15.37 5.48 19.05 4.92 C 22.15 4.37 24.38 2.04 26.59 0.00 Z" id="#fe4040ff"/></svg>