<svg width="53pt" height="88" viewBox="0 0 53 66" xmlns="http://www.w3.org/2000/svg"><path fill="#fe4040" d="M 15.36 0.00 L 17.13 0.00 C 19.05 0.99 21.19 1.72 22.76 3.25 C 24.79 5.88 25.60 9.17 26.80 12.20 C 28.55 16.88 31.01 21.24 33.17 25.73 C 37.34 34.97 44.73 42.40 53.00 48.09 L 53.00 50.63 C 52.18 50.93 50.55 51.52 49.73 51.82 C 48.80 50.33 47.86 48.85 46.92 47.37 C 45.89 47.99 44.88 48.63 43.88 49.29 C 45.04 51.43 44.50 53.77 44.22 56.04 C 43.43 56.85 42.64 57.66 41.86 58.47 C 42.35 59.61 42.85 60.75 43.34 61.89 C 38.96 63.75 34.14 64.30 29.76 66.00 L 28.25 66.00 C 26.95 64.84 25.54 63.82 24.07 62.89 C 21.98 63.75 19.79 64.31 17.55 64.56 C 17.18 64.92 16.45 65.64 16.09 66.00 L 12.57 66.00 C 12.39 64.32 11.83 62.84 10.07 62.29 C 10.96 59.45 11.57 56.51 11.83 53.54 C 11.46 52.52 11.08 51.49 10.70 50.47 C 8.27 49.08 7.29 46.47 7.29 43.77 C 5.84 44.07 4.40 44.39 2.96 44.73 C 1.97 44.22 0.99 43.71 0.00 43.21 L 0.00 42.88 C 2.75 38.01 5.35 32.74 9.67 29.07 C 12.21 30.62 15.07 29.91 17.55 28.66 C 18.23 27.16 18.95 25.66 19.67 24.17 C 18.65 22.09 17.89 19.88 16.74 17.86 C 15.12 18.03 13.88 19.14 12.53 19.93 C 12.09 17.14 12.83 14.39 13.19 11.64 C 11.82 11.18 10.45 10.71 9.08 10.24 C 10.66 9.02 12.27 7.84 13.89 6.67 C 13.63 4.80 13.30 2.94 12.95 1.07 C 13.56 0.81 14.76 0.27 15.36 0.00 Z" id="#fe4040ff"/></svg>