<svg width="76" height="48" viewBox="0 0 57 36" xmlns="http://www.w3.org/2000/svg"><path fill="#fe4040" d="M 12.09 0.00 L 12.84 0.00 C 13.43 1.23 14.02 2.47 14.61 3.71 C 15.21 3.89 16.42 4.25 17.02 4.43 C 18.43 3.87 19.84 3.31 21.25 2.76 C 21.78 3.34 22.83 4.49 23.36 5.07 C 24.06 5.05 25.46 5.00 26.16 4.98 C 28.56 7.22 30.81 9.63 33.50 11.53 C 33.97 10.93 34.93 9.71 35.41 9.10 C 36.26 9.09 37.95 9.05 38.79 9.04 C 38.15 7.11 37.47 5.19 36.83 3.26 C 38.99 4.63 41.12 6.13 42.59 8.27 C 43.90 8.32 45.21 8.36 46.52 8.40 C 46.85 8.96 47.51 10.06 47.85 10.62 C 47.60 10.95 47.11 11.62 46.86 11.95 C 47.96 12.85 49.06 13.75 50.15 14.66 C 49.24 15.52 48.33 16.38 47.43 17.25 C 48.77 17.91 50.11 18.55 51.46 19.19 C 51.78 20.29 52.10 21.39 52.42 22.49 C 53.77 23.10 55.11 23.72 56.46 24.33 C 56.59 25.01 56.86 26.36 57.00 27.03 L 57.00 28.06 C 54.93 30.75 53.07 33.62 50.63 36.00 L 49.81 36.00 C 46.55 31.30 40.78 29.88 35.35 30.58 C 35.02 31.23 34.37 32.52 34.05 33.16 C 32.38 33.17 30.71 33.19 29.03 33.20 C 28.24 33.90 27.45 34.60 26.65 35.29 C 25.68 32.47 24.96 29.57 24.72 26.59 C 20.21 25.39 15.50 25.93 10.90 25.86 C 10.24 26.85 9.59 27.84 8.94 28.83 C 6.36 29.03 3.77 29.29 1.22 29.76 C 0.98 29.15 0.51 27.94 0.28 27.33 C 1.01 25.87 1.70 24.40 2.31 22.88 C 2.73 22.37 3.58 21.34 4.00 20.82 C 3.59 20.42 2.77 19.63 2.37 19.23 C 1.62 17.74 0.80 16.30 0.00 14.84 L 0.00 7.07 C 0.66 6.19 1.34 5.31 2.02 4.45 C 5.93 4.67 9.48 2.80 12.09 0.00 Z" id="#fe4040ff"/></svg>