<svg width="64" height="62pt" viewBox="0 0 48 62" xmlns="http://www.w3.org/2000/svg"><path fill="#fe4040" d="M 4.33 0.00 L 5.79 0.00 C 10.13 2.45 15.23 3.54 18.93 7.05 C 20.26 5.70 21.74 6.32 23.08 7.22 C 24.15 6.29 25.21 5.35 26.28 4.42 C 27.60 4.19 28.92 3.95 30.24 3.69 C 34.04 5.20 37.99 7.12 42.18 6.05 C 43.35 6.16 44.51 6.27 45.68 6.39 C 46.46 7.24 47.23 8.09 48.00 8.95 L 48.00 10.12 C 46.41 10.88 43.46 10.42 43.62 12.89 C 44.16 13.31 45.25 14.17 45.79 14.60 C 45.81 15.58 45.82 16.56 45.84 17.55 C 43.16 18.70 40.47 17.92 37.88 16.96 C 37.65 17.20 37.19 17.69 36.96 17.93 C 36.60 22.89 39.41 27.93 37.41 32.78 C 35.99 34.74 33.62 35.71 31.67 37.06 C 30.17 41.67 31.85 46.43 30.92 51.03 C 31.92 52.73 33.03 54.37 34.16 55.99 C 32.12 57.81 30.28 59.85 28.60 62.00 L 27.09 62.00 C 26.67 60.33 26.26 58.65 25.88 56.97 C 23.32 57.37 20.76 57.82 18.20 58.23 C 17.78 57.65 16.94 56.49 16.52 55.91 C 17.20 55.52 18.56 54.75 19.24 54.36 C 18.56 52.29 17.79 50.25 17.07 48.19 C 18.97 38.98 5.88 34.72 8.86 25.51 C 10.13 24.69 11.38 23.83 12.62 22.95 C 11.18 20.36 8.17 19.67 5.98 17.95 C 4.19 15.73 3.05 13.07 1.24 10.86 C 1.85 9.05 2.08 7.16 2.27 5.28 C 1.70 4.76 0.57 3.72 0.00 3.20 L 0.00 1.68 C 1.49 2.80 3.70 1.53 4.33 0.00 Z" id="#fe4040ff"/></svg>