<svg width="71pt" height="49pt" viewBox="0 0 71 49" xmlns="http://www.w3.org/2000/svg"><path fill="#fe4040" d="M 31.88 0.00 L 32.43 0.00 C 32.79 0.30 33.52 0.89 33.89 1.19 C 33.55 4.13 33.40 7.09 34.09 10.01 C 35.12 10.14 36.15 10.31 37.16 10.52 C 38.17 12.35 38.01 15.84 40.84 15.79 C 46.58 16.16 52.24 14.69 58.00 14.96 C 63.15 13.02 66.28 7.99 70.28 4.44 C 69.89 6.43 69.10 8.31 67.92 9.97 C 68.95 10.40 69.98 10.83 71.00 11.27 L 71.00 14.07 C 67.14 19.24 59.01 19.31 56.18 25.36 C 53.90 26.93 51.23 28.22 48.41 27.44 C 47.58 27.58 45.92 27.86 45.09 28.00 C 42.67 29.03 43.95 32.17 43.59 34.20 C 41.80 34.57 40.01 34.96 38.22 35.36 C 38.37 35.68 38.68 36.32 38.83 36.64 C 40.21 37.03 41.93 37.03 42.76 38.42 C 43.17 41.93 42.90 45.47 42.91 48.99 C 40.83 48.70 39.38 47.14 37.91 45.81 C 36.34 46.54 34.77 47.29 33.20 48.05 C 31.82 46.17 30.56 44.20 29.28 42.24 C 27.94 43.96 26.54 45.63 25.03 47.21 C 23.98 45.89 23.12 44.34 21.73 43.34 C 16.85 42.99 11.95 43.35 7.06 43.18 C 7.03 40.47 7.41 37.79 7.85 35.12 C 7.22 29.78 3.96 25.40 0.00 21.97 L 0.00 20.58 C 4.71 16.72 10.56 15.19 16.13 13.06 C 14.95 12.19 13.71 11.42 12.41 10.75 C 18.58 6.61 25.50 3.78 31.88 0.00 Z" id="#fe4040ff"/></svg>