<svg width="56" height="61pt" viewBox="0 0 42 61" xmlns="http://www.w3.org/2000/svg"><path fill="#fe4040" d="M 23.02 0.00 L 23.66 0.00 C 24.17 3.19 26.57 5.38 28.78 7.49 C 29.13 10.15 29.46 12.81 29.54 15.49 C 29.88 15.91 30.56 16.74 30.90 17.16 C 30.91 17.83 30.92 19.17 30.93 19.84 C 30.15 20.48 29.36 21.13 28.57 21.78 C 29.06 22.57 30.03 24.15 30.51 24.93 C 33.21 24.32 35.96 23.96 38.73 23.98 C 39.14 26.19 39.02 29.26 41.74 29.97 C 41.80 30.55 41.93 31.69 42.00 32.27 L 42.00 33.49 C 41.20 34.73 40.03 35.64 38.89 36.54 C 39.22 37.34 39.54 38.14 39.87 38.94 C 38.98 41.35 38.45 44.06 39.92 46.38 C 38.51 50.29 34.68 52.00 31.13 53.48 C 30.74 55.61 31.23 57.68 32.12 59.63 C 30.20 59.82 28.34 60.29 26.56 61.00 L 24.37 61.00 C 23.36 57.58 22.39 54.16 21.49 50.71 C 19.64 51.43 17.81 52.21 16.02 53.07 C 14.68 50.09 11.50 49.11 8.66 48.13 C 7.19 48.61 5.72 49.04 4.24 49.48 C 2.85 48.43 1.44 47.39 0.00 46.41 L 0.00 46.19 C 1.13 44.27 2.79 42.77 4.59 41.49 C 4.86 38.80 5.19 36.12 5.43 33.43 C 4.83 33.26 3.62 32.91 3.02 32.74 C 2.76 31.94 2.24 30.35 1.98 29.55 C 2.98 28.87 3.98 28.20 4.99 27.53 C 4.55 26.11 4.15 24.68 3.85 23.22 C 2.97 22.33 2.08 21.44 1.19 20.57 C 3.04 17.63 5.53 14.65 9.12 13.96 C 10.80 14.21 12.10 15.44 13.53 16.25 C 13.57 12.80 13.16 9.38 12.86 5.94 C 12.65 5.58 12.21 4.86 12.00 4.50 C 12.40 3.83 13.20 2.51 13.61 1.85 C 15.17 2.48 16.69 3.21 18.20 3.96 C 19.91 2.78 21.52 1.45 23.02 0.00 Z" id="#fe4040ff"/></svg>