<svg width="83pt" height="72" viewBox="0 0 83 54" xmlns="http://www.w3.org/2000/svg"><path fill="#fe4040" d="M 44.01 0.00 L 46.58 0.00 C 47.93 6.05 50.68 11.86 50.12 18.19 C 52.59 18.24 55.04 18.10 57.50 17.90 C 58.90 20.74 60.35 23.57 62.09 26.23 C 62.80 26.44 64.22 26.87 64.93 27.08 C 62.53 28.59 58.37 28.03 57.31 31.01 C 60.86 38.08 69.14 41.41 76.73 41.09 C 77.02 40.28 77.60 38.66 77.88 37.85 C 79.90 39.31 81.83 40.96 83.00 43.22 L 83.00 44.47 C 82.84 45.02 82.51 46.12 82.35 46.67 C 79.87 47.26 78.85 49.49 78.30 51.75 C 77.80 52.31 76.81 53.44 76.32 54.00 L 74.02 54.00 C 70.53 52.65 68.37 48.94 64.37 48.77 C 62.34 49.55 60.22 50.01 58.07 50.30 C 55.69 51.56 53.06 52.14 50.38 52.15 C 50.35 51.48 50.28 50.14 50.25 49.47 C 48.32 48.13 46.57 46.54 45.07 44.73 C 43.73 44.81 42.39 44.94 41.07 45.12 C 41.05 44.31 41.03 42.69 41.02 41.88 C 38.35 43.15 35.51 42.83 32.97 41.42 C 32.73 40.08 32.47 38.75 32.19 37.42 C 31.22 38.57 30.25 39.73 29.30 40.89 C 28.13 38.80 26.92 36.75 25.67 34.70 C 23.17 35.60 20.77 37.10 18.03 37.09 C 13.29 37.49 8.65 33.33 4.21 36.45 C 3.42 34.66 1.72 33.89 0.01 33.24 C 0.36 32.56 1.07 31.22 1.43 30.54 C 6.79 29.59 11.49 26.75 16.42 24.61 C 16.98 24.76 18.11 25.07 18.68 25.22 C 19.90 20.59 23.00 16.98 25.58 13.08 C 28.06 12.36 30.61 11.89 33.15 11.43 C 35.31 8.31 35.26 4.43 36.54 0.98 C 38.55 0.81 40.57 0.68 42.56 0.31 L 44.01 0.00 Z" id="#fe4040ff"/></svg>