<svg width="70" height="70" viewBox="0 0 70 70" fill="none" xmlns="http://www.w3.org/2000/svg"><g clip-path="url(#clip0_288_4790)"><path d="M34.9993 49.4521C45.2884 49.4521 53.6294 41.1111 53.6294 30.8219C53.6294 20.5328 45.2884 12.1918 34.9993 12.1918C24.7101 12.1918 16.3691 20.5328 16.3691 30.8219C16.3691 41.1111 24.7101 49.4521 34.9993 49.4521Z" fill="#2F80ED"/><path d="M56.8892 9.06753C51.0419 3.22027 43.2674 0 34.998 0C26.7285 0 18.954 3.22027 13.1067 9.06753C7.25934 14.9151 4.03906 22.6895 4.03906 30.9589C4.03906 45.5478 14.2382 58.1429 28.4071 61.2122L34.998 70L41.5889 61.2121C55.7577 58.1427 65.9569 45.5478 65.9569 30.9589C65.9569 22.6895 62.7366 14.9151 56.8892 9.06753ZM34.998 8.08219C47.5367 8.08219 57.7377 18.2833 57.7377 30.8219C57.7377 43.3605 47.5367 53.5616 34.998 53.5616C22.4592 53.5616 12.2582 43.3605 12.2582 30.8219C12.2582 18.2833 22.4592 8.08219 34.998 8.08219Z" fill="#FF4C29"/></g><defs><clipPath id="clip0_288_4790"><path fill="#fff" d="M0 0H70V70H0z"/></clipPath></defs></svg>