<svg width="18" height="18" viewBox="0 0 18 18" fill="none" xmlns="http://www.w3.org/2000/svg"><path d="M9.00084 0C6.55657 0 6.24982 0.0106878 5.28981 0.0543757C4.33167 0.0982512 3.67766 0.24994 3.10541 0.472505C2.51346 0.702382 2.01133 1.00989 1.51108 1.51033C1.01045 2.01058 0.702945 2.51271 0.472317 3.10447C0.24919 3.67691 0.0973134 4.33111 0.054188 5.28887C0.01125 6.24888 0 6.55582 0 9.00009C0 11.4444 0.0108753 11.7502 0.0543757 12.7102C0.0984387 13.6683 0.250128 14.3223 0.472505 14.8946C0.70257 15.4865 1.01007 15.9887 1.51052 16.4889C2.01058 16.9896 2.51271 17.2978 3.10428 17.5277C3.67691 17.7502 4.33111 17.9019 5.28905 17.9458C6.24906 17.9895 6.55563 18.0002 8.99972 18.0002C11.4442 18.0002 11.75 17.9895 12.71 17.9458C13.6681 17.9019 14.3229 17.7502 14.8955 17.5277C15.4873 17.2978 15.9887 16.9896 16.4887 16.4889C16.9894 15.9887 17.2969 15.4865 17.5275 14.8948C17.7487 14.3223 17.9006 13.6681 17.9456 12.7104C17.9888 11.7504 18 11.4444 18 9.00009C18 6.55582 17.9888 6.24906 17.9456 5.28905C17.9006 4.33092 17.7487 3.67691 17.5275 3.10466C17.2969 2.51271 16.9894 2.01058 16.4887 1.51033C15.9881 1.0097 15.4875 0.702195 14.895 0.472505C14.3212 0.24994 13.6668 0.0982512 12.7087 0.0543757C11.7487 0.0106878 11.4431 0 8.99803 0H9.00084ZM8.19346 1.62189C8.43309 1.62152 8.70047 1.62189 9.00084 1.62189C11.4039 1.62189 11.6887 1.63052 12.6376 1.67364C13.5151 1.71377 13.9914 1.86039 14.3086 1.98358C14.7287 2.14671 15.0281 2.34171 15.3429 2.65671C15.6579 2.97172 15.8529 3.27172 16.0164 3.69173C16.1396 4.0086 16.2864 4.48486 16.3264 5.36237C16.3695 6.31113 16.3789 6.59613 16.3789 8.99803C16.3789 11.3999 16.3695 11.6849 16.3264 12.6337C16.2862 13.5112 16.1396 13.9875 16.0164 14.3043C15.8533 14.7243 15.6579 15.0234 15.3429 15.3382C15.0279 15.6532 14.7288 15.8482 14.3086 16.0114C13.9918 16.1351 13.5151 16.2814 12.6376 16.3215C11.6889 16.3646 11.4039 16.374 9.00084 16.374C6.59763 16.374 6.31282 16.3646 5.36406 16.3215C4.48655 16.281 4.01029 16.1344 3.69285 16.0112C3.27285 15.848 2.97284 15.653 2.65784 15.338C2.34284 15.023 2.14783 14.7238 1.98433 14.3036C1.86114 13.9867 1.71433 13.5105 1.67439 12.6329C1.63127 11.6842 1.62264 11.3992 1.62264 8.99578C1.62264 6.59238 1.63127 6.30888 1.67439 5.36012C1.71452 4.48261 1.86114 4.00635 1.98433 3.6891C2.14746 3.2691 2.34284 2.96909 2.65784 2.65409C2.97284 2.33909 3.27285 2.14408 3.69285 1.98058C4.0101 1.85683 4.48655 1.71058 5.36406 1.67027C6.19431 1.63277 6.51607 1.62152 8.19346 1.61964V1.62189ZM13.805 3.11628C13.2088 3.11628 12.725 3.59947 12.725 4.19592C12.725 4.79217 13.2088 5.27593 13.805 5.27593C14.4013 5.27593 14.885 4.79217 14.885 4.19592C14.885 3.59966 14.4013 3.11591 13.805 3.11591V3.11628ZM9.00084 4.37817C6.44838 4.37817 4.37892 6.44763 4.37892 9.00009C4.37892 11.5526 6.44838 13.6211 9.00084 13.6211C11.5533 13.6211 13.622 11.5526 13.622 9.00009C13.622 6.44763 11.5531 4.37817 9.00066 4.37817H9.00084ZM9.00084 6.00006C10.6576 6.00006 12.0009 7.34314 12.0009 9.00009C12.0009 10.6569 10.6576 12.0001 9.00084 12.0001C7.34389 12.0001 6.00081 10.6569 6.00081 9.00009C6.00081 7.34314 7.34389 6.00006 9.00084 6.00006Z" fill="#000"/></svg>