<svg width="48" height="49" viewBox="0 0 48 49" fill="none" xmlns="http://www.w3.org/2000/svg"><g clip-path="url(#a)"><g clip-path="url(#b)"><path d="M43.089 13.025h-5.07v-5.07a3.38 3.38 0 0 0-3.38-3.38H14.361a3.38 3.38 0 0 0-3.38 3.38v5.07h-5.07a5.07 5.07 0 0 0-5.07 5.07v23.658a3.38 3.38 0 0 0 3.38 3.38H44.78a3.38 3.38 0 0 0 3.38-3.38V18.095a5.07 5.07 0 0 0-5.07-5.07zM14.36 7.955h20.278v5.07H14.361v-5.07zm30.418 33.798H4.221V26.544H17.74v8.45h13.52v-8.45h13.518v15.21zM21.12 26.544h6.76v5.07h-6.76v-5.07zm-16.898-3.38v-5.07a1.69 1.69 0 0 1 1.69-1.689h37.177a1.69 1.69 0 0 1 1.69 1.69v5.07H4.221z" fill="currentColor"/></g></g><defs><clipPath id="a"><path fill="currentColor" transform="translate(0 .5)" d="M0 0h48v48H0z"/></clipPath><clipPath id="b"><path fill="currentColor" transform="translate(.5 4.5)" d="M0 0h48v40.709H0z"/></clipPath></defs></svg>