<svg width="18" height="18" viewBox="0 0 18 18" fill="none" xmlns="http://www.w3.org/2000/svg"><path d="M8.9999 2.7226C10.0606 2.7226 10.9233 3.58538 10.9233 4.64604C10.9233 5.70581 10.0603 6.56858 8.9999 6.56858C7.93989 6.56858 7.0769 5.70581 7.0769 4.64604C7.07668 3.58514 7.94011 2.7226 8.9999 2.7226ZM8.9999 9.28986C11.562 9.28986 13.6455 7.20698 13.6455 4.64604C13.6455 2.08377 11.5622 0 8.9999 0C6.43806 0 4.35431 2.08399 4.35431 4.64604C4.35431 7.20698 6.43806 9.28986 8.9999 9.28986ZM10.8793 13.0791C11.835 12.8615 12.747 12.4839 13.5768 11.9622C13.8822 11.77 14.0989 11.4643 14.1791 11.1124C14.259 10.7605 14.1961 10.3912 14.0039 10.0857C13.9089 9.93426 13.7849 9.80308 13.6391 9.69961C13.4933 9.59615 13.3286 9.52244 13.1542 9.48272C12.9799 9.44298 12.7995 9.438 12.6233 9.46806C12.447 9.49811 12.2785 9.56261 12.1272 9.65785C10.224 10.8544 7.77447 10.8535 5.87281 9.65785C5.72156 9.56257 5.553 9.49806 5.37677 9.46799C5.20056 9.43793 5.02013 9.44291 4.84585 9.48265C4.67155 9.52238 4.5068 9.5961 4.36103 9.69958C4.21526 9.80304 4.09131 9.93425 3.99631 10.0857C3.80405 10.3911 3.74097 10.7603 3.82096 11.1123C3.90095 11.4642 4.11742 11.7699 4.42279 11.9622C5.25252 12.4837 6.16435 12.8612 7.11983 13.0791L4.52286 15.6765C4.26764 15.9318 4.12431 16.2781 4.12437 16.639C4.12442 17 4.2679 17.3463 4.5232 17.6014C4.77848 17.8566 5.12471 18 5.4857 17.9998C5.84668 17.9998 6.19285 17.8564 6.44807 17.6011L8.99944 15.0492L11.5524 17.6012C11.6786 17.7276 11.8285 17.828 11.9936 17.8964C12.1586 17.9649 12.3355 18 12.5142 18C12.6927 18 12.8697 17.9649 13.0346 17.8964C13.1996 17.828 13.3496 17.7276 13.4759 17.6012C13.6024 17.475 13.7028 17.3252 13.7714 17.16C13.8399 16.9949 13.8751 16.8179 13.8751 16.6392C13.8751 16.4603 13.8399 16.2833 13.7714 16.1183C13.7028 15.9532 13.6024 15.8032 13.4759 15.677L10.8793 13.0791Z" fill="#000"/></svg>