<svg width="48" height="55" viewBox="0 0 48 55" fill="none" xmlns="http://www.w3.org/2000/svg"><path d="M7.666 9.167h8.98l2.894 8.291-4.65 3.552c-.556.425-.89 1.14-.89 1.907.005.214 0 .002 0 .002v.047a4.871 4.871 0 0 0 .012.309c.011.188.032.443.07.754.078.621.228 1.473.52 2.477.587 2.016 1.74 4.626 3.984 7.198 2.244 2.572 4.522 3.892 6.281 4.564.877.334 1.62.507 2.162.596a7.702 7.702 0 0 0 .86.092l.067.002h.042s.223-.014.002 0c.757 0 1.45-.49 1.789-1.266l1.34-3.07 8.87 1.694v9.9c-4.221.7-15.624 1.39-24.585-8.878C6.454 27.07 7.055 14.005 7.666 9.167zM18.147 24.03l3.612-2.76c1.574-1.202 2.198-3.503 1.495-5.515L20.36 7.465c-.608-1.74-2.079-2.882-3.714-2.882H7.56c-1.817 0-3.527 1.447-3.825 3.706-.679 5.14-1.603 20.313 8.85 32.29 10.452 11.976 23.695 10.918 28.18 10.14C42.737 50.377 44 48.418 44 46.336v-10.02c0-2.24-1.414-4.152-3.343-4.52L31.786 30.1c-1.732-.33-3.45.672-4.236 2.471l-.693 1.588a8.442 8.442 0 0 1-.725-.24c-1.24-.474-2.962-1.445-4.718-3.457-1.756-2.012-2.603-3.985-3.017-5.406-.111-.384-.192-.73-.25-1.026z" fill="currentColor"/></svg>