<svg width="18" height="19" viewBox="0 0 18 19" fill="none" xmlns="http://www.w3.org/2000/svg"><g clip-path="url(#a)"><path fill-rule="evenodd" clip-rule="evenodd" d="M9.203 16.872c-4.2 0-7.67-3.47-7.67-7.67 0-4.199 3.464-7.668 7.664-7.668 4.2 0 7.675 3.47 7.675 7.669 0 4.2-3.47 7.669-7.67 7.669zm-.943-3.817c.218 0 .407-.1.548-.318l3.958-6.202c.089-.13.165-.29.165-.43 0-.313-.277-.507-.565-.507-.171 0-.342.1-.471.3L8.23 11.724 6.28 9.279c-.153-.194-.312-.265-.5-.265a.53.53 0 0 0-.53.542c0 .147.058.306.159.43l2.273 2.757c.183.224.36.312.577.312z" fill="#0A7AFF"/></g><defs><clipPath id="a"><path fill="#fff" transform="translate(1.534 1.534)" d="M0 0h15.338v15.338H0z"/></clipPath></defs></svg>