<svg width="23" height="23" viewBox="0 0 23 23" fill="none" xmlns="http://www.w3.org/2000/svg"><g clip-path="url(#clip0_584_7038)"><path d="M15.9154 13.6482C18.6763 9.74957 17.7529 4.3511 13.8543 1.59086C9.95562 -1.16939 4.55715 -0.246668 1.79691 3.65263C-0.963332 7.55126 -0.0406128 12.9491 3.85868 15.7093C6.64135 17.6794 10.3204 17.8311 13.2554 16.0978L19.6326 22.4368C20.3212 23.1616 21.4669 23.1907 22.1917 22.5021C22.9166 21.8142 22.9456 20.6685 22.2577 19.9437C22.2359 19.9206 22.2148 19.8995 22.1917 19.8777L15.9154 13.6482ZM8.85086 14.2392C5.77008 14.2398 3.27234 11.7441 3.27036 8.66328C3.2697 5.58249 5.76546 3.08475 8.8469 3.08343C11.9237 3.08211 14.4202 5.57392 14.4261 8.65074C14.4314 11.7322 11.9369 14.2339 8.85482 14.2392C8.8535 14.2392 8.85284 14.2392 8.85086 14.2392Z" fill="currentColor"/></g><defs><clipPath id="clip0_584_7038"><path fill="#fff" d="M0 0H23V23H0z"/></clipPath></defs></svg>