<svg width="20" height="20" viewBox="0 0 20 20" fill="none" xmlns="http://www.w3.org/2000/svg"><path fill-rule="evenodd" clip-rule="evenodd" d="M5.251 12.982c-1.27-1.091-2.175-2.337-2.6-2.981.424-.645 1.33-1.89 2.6-2.981C6.562 5.894 8.181 5 10.001 5c1.82 0 3.438.894 4.749 2.02 1.27 1.09 2.175 2.336 2.6 2.98-.424.645-1.33 1.89-2.6 2.982C13.439 14.107 11.82 15 10 15c-1.82 0-3.438-.894-4.749-2.02zm4.75-9.648c-2.377 0-4.37 1.162-5.836 2.421C2.695 7.02 1.673 8.45 1.22 9.142a1.563 1.563 0 0 0 0 1.717c.453.693 1.474 2.123 2.945 3.387 1.467 1.259 3.459 2.421 5.836 2.421 2.376 0 4.369-1.162 5.835-2.421 1.47-1.264 2.492-2.694 2.945-3.387a1.563 1.563 0 0 0 0-1.717c-.453-.693-1.474-2.122-2.945-3.387C14.369 4.496 12.377 3.334 10 3.334zM8.334 10a1.667 1.667 0 1 1 3.333 0 1.667 1.667 0 0 1-3.333 0zM10 6.667a3.333 3.333 0 1 0 0 6.667 3.333 3.333 0 0 0 0-6.667z" fill="currentColor"/></svg>