<svg xmlns="http://www.w3.org/2000/svg" style="border: 0 !important; clip: rect(0 0 0 0) !important; height: 1px !important; margin: -1px !important; overflow: hidden !important; padding: 0 !important; position: absolute !important; width: 1px !important;" class="root-svg-symbols-element">
  <defs>
      <clipPath id="a"><path fill="#fff" transform="translate(.5 .5)" d="M0 0h28v18H0z"/></clipPath>
<clipPath id="clip0_122_153"><path fill="#fff" transform="translate(0 .897)" d="M0 0H24V24H0z"/></clipPath>
<clipPath id="clip0_122_155"><path fill="#fff" transform="translate(4 4.897)" d="M0 0H16V16H0z"/></clipPath>
<clipPath id="a"><path fill="currentColor" transform="translate(0 .5)" d="M0 0h48v58H0z"/></clipPath>
<clipPath id="a"><path fill="currentColor" transform="translate(0 .5)" d="M0 0h48v48H0z"/></clipPath><clipPath id="b"><path fill="currentColor" transform="translate(.5 4.5)" d="M0 0h48v40.709H0z"/></clipPath>
<clipPath id="a"><path fill="currentColor" transform="translate(0 .5)" d="M0 0h48v48H0z"/></clipPath><clipPath id="b"><path fill="currentColor" transform="translate(.5 5.5)" d="M0 0h48v37.92H0z"/></clipPath>
<filter id="filter0_d_143_312" x="0" y="0" width="68" height="84" filterUnits="userSpaceOnUse" color-interpolation-filters="sRGB"><feFlood flood-opacity="0" result="BackgroundImageFix"/><feColorMatrix in="SourceAlpha" values="0 0 0 0 0 0 0 0 0 0 0 0 0 0 0 0 0 0 127 0" result="hardAlpha"/><feOffset dy="4"/><feGaussianBlur stdDeviation="2"/><feColorMatrix values="0 0 0 0 0 0 0 0 0 0 0 0 0 0 0 0 0 0 0.25 0"/><feBlend in2="BackgroundImageFix" result="effect1_dropShadow_143_312"/><feBlend in="SourceGraphic" in2="effect1_dropShadow_143_312" result="shape"/></filter>
<clipPath id="a"><path fill="#fff" transform="translate(1.534 1.534)" d="M0 0h15.338v15.338H0z"/></clipPath>
  </defs>
    <symbol id="arrow-down-icon" viewBox="0 0 24 24">
      <path d="m6 9 6 6 6-6" stroke="currentColor" stroke-linecap="round" stroke-linejoin="round"/>
    </symbol>
    <symbol id="arrow-right-icon" viewBox="0 0 29 19">
      <g clip-path="url(#a)" fill-rule="evenodd" clip-rule="evenodd" fill="#086DE0"><path d="M19.505 1.75a1.164 1.164 0 0 1 .825-.352 1.138 1.138 0 0 1 .826.353l6.997 7.196a1.202 1.202 0 0 1 .343.85 1.229 1.229 0 0 1-.343.849l-6.997 7.197a1.152 1.152 0 0 1-.826.352c-.31 0-.606-.127-.825-.352a1.218 1.218 0 0 1-.342-.85c0-.318.123-.623.342-.849l6.173-6.347-6.173-6.348a1.23 1.23 0 0 1 0-1.698z"/><path d="M.5 9.798c0-.318.123-.623.342-.848a1.15 1.15 0 0 1 .824-.352h24.49c.309 0 .605.127.824.352.219.225.342.53.342.848 0 .318-.123.623-.342.848a1.15 1.15 0 0 1-.825.351H1.666a1.15 1.15 0 0 1-.824-.351A1.217 1.217 0 0 1 .5 9.798z"/></g>
    </symbol>
    <symbol id="badge-doc" viewBox="0 0 30 18">
      <path d="M0 4C0 1.79086 1.79086 0 4 0H30V18H4C1.79086 18 0 16.2091 0 14V4Z" fill="#086DE0"/><path d="M8.60508 6C9.15174 6 9.61174 6.06 9.98508 6.18C10.3651 6.29333 10.6684 6.48333 10.8951 6.75C11.1284 7.01667 11.2984 7.38 11.4051 7.84C11.5117 8.29333 11.5651 8.86333 11.5651 9.55C11.5651 10.2367 11.5117 10.81 11.4051 11.27C11.2984 11.7233 11.1284 12.0833 10.8951 12.35C10.6684 12.6167 10.3651 12.81 9.98508 12.93C9.61174 13.0433 9.15174 13.1 8.60508 13.1C8.07841 13.1 7.59508 13.09 7.15508 13.07C6.71508 13.05 6.29508 13.0267 5.89508 13L6.53508 11.87C6.78841 11.8833 7.08841 11.8967 7.43508 11.91C7.78841 11.9167 8.17841 11.92 8.60508 11.92C8.94508 11.92 9.21175 11.8533 9.40508 11.72C9.60508 11.58 9.74508 11.3367 9.82508 10.99C9.91174 10.6433 9.95508 10.1633 9.95508 9.55C9.95508 8.93667 9.91174 8.45667 9.82508 8.11C9.74508 7.76333 9.60508 7.52 9.40508 7.38C9.21175 7.24 8.94508 7.17 8.60508 7.17C8.19841 7.17 7.83508 7.17333 7.51508 7.18C7.19508 7.18 6.88174 7.18 6.57508 7.18L5.89508 6.1C6.29508 6.07333 6.71174 6.05 7.14508 6.03C7.58508 6.01 8.07174 6 8.60508 6ZM7.42508 6.1V13H5.89508V6.1H7.42508ZM15.4713 5.96C16.0179 5.96 16.4813 6.02 16.8613 6.14C17.2413 6.25333 17.5446 6.44667 17.7713 6.72C18.0046 6.98667 18.1746 7.35333 18.2812 7.82C18.3879 8.28 18.4413 8.85667 18.4413 9.55C18.4413 10.2433 18.3879 10.8233 18.2812 11.29C18.1746 11.75 18.0046 12.1167 17.7713 12.39C17.5446 12.6567 17.2413 12.85 16.8613 12.97C16.4813 13.0833 16.0179 13.14 15.4713 13.14C14.9246 13.14 14.4613 13.0833 14.0813 12.97C13.7013 12.85 13.3946 12.6567 13.1613 12.39C12.9279 12.1167 12.7579 11.75 12.6513 11.29C12.5446 10.8233 12.4913 10.2433 12.4913 9.55C12.4913 8.85667 12.5446 8.28 12.6513 7.82C12.7579 7.35333 12.9279 6.98667 13.1613 6.72C13.3946 6.44667 13.7013 6.25333 14.0813 6.14C14.4613 6.02 14.9246 5.96 15.4713 5.96ZM15.4713 7.17C15.1179 7.17 14.8413 7.24 14.6413 7.38C14.4479 7.52 14.3079 7.76333 14.2213 8.11C14.1413 8.45 14.1013 8.93 14.1013 9.55C14.1013 10.1633 14.1413 10.6433 14.2213 10.99C14.3079 11.3367 14.4479 11.58 14.6413 11.72C14.8413 11.86 15.1179 11.93 15.4713 11.93C15.8179 11.93 16.0879 11.86 16.2813 11.72C16.4813 11.58 16.6213 11.3367 16.7013 10.99C16.7879 10.6433 16.8313 10.1633 16.8313 9.55C16.8313 8.93 16.7879 8.45 16.7013 8.11C16.6213 7.76333 16.4813 7.52 16.2813 7.38C16.0879 7.24 15.8179 7.17 15.4713 7.17ZM22.306 5.98C22.6327 5.98 22.9093 5.99 23.136 6.01C23.3693 6.02333 23.5827 6.04667 23.776 6.08C23.9693 6.11333 24.1693 6.16 24.376 6.22L24.256 7.34C24.036 7.32667 23.8327 7.31667 23.646 7.31C23.466 7.30333 23.2693 7.3 23.056 7.3C22.8493 7.29333 22.5993 7.29 22.306 7.29C21.966 7.29 21.6993 7.35667 21.506 7.49C21.3193 7.62333 21.186 7.85667 21.106 8.19C21.026 8.51667 20.986 8.97 20.986 9.55C20.986 10.13 21.026 10.5867 21.106 10.92C21.186 11.2467 21.3193 11.4767 21.506 11.61C21.6993 11.7433 21.966 11.81 22.306 11.81C22.766 11.81 23.1527 11.8033 23.466 11.79C23.7793 11.7767 24.0893 11.7533 24.396 11.72L24.526 12.84C24.206 12.94 23.8793 13.01 23.546 13.05C23.2127 13.0967 22.7993 13.12 22.306 13.12C21.5927 13.12 21.0193 13.0067 20.586 12.78C20.1593 12.5467 19.8493 12.17 19.656 11.65C19.4693 11.13 19.376 10.43 19.376 9.55C19.376 8.67 19.4693 7.97 19.656 7.45C19.8493 6.93 20.1593 6.55667 20.586 6.33C21.0193 6.09667 21.5927 5.98 22.306 5.98Z" fill="#fff"/>
    </symbol>
    <symbol id="badge-pdf" viewBox="0 0 30 18">
      <path d="M0 4C0 1.79086 1.79086 0 4 0H30V18H4C1.79086 18 0 16.2091 0 14V4Z" fill="#DA100B"/><path d="M9.05777 6C9.69777 6 10.2011 6.06667 10.5678 6.2C10.9411 6.33333 11.2044 6.56333 11.3578 6.89C11.5178 7.21667 11.5978 7.67333 11.5978 8.26C11.5978 8.84667 11.5211 9.30333 11.3678 9.63C11.2211 9.95667 10.9744 10.1833 10.6278 10.31C10.2878 10.4367 9.83111 10.5033 9.25777 10.51C9.03111 10.5033 8.80444 10.4933 8.57777 10.48C8.35777 10.4667 8.14444 10.45 7.93777 10.43V13H6.41777V6.1C6.69111 6.07333 6.95111 6.05333 7.19777 6.04C7.44444 6.02667 7.71111 6.01667 7.99777 6.01C8.29111 6.00333 8.64444 6 9.05777 6ZM9.02777 7.15C8.82777 7.15 8.63444 7.15 8.44777 7.15C8.26777 7.15 8.09777 7.15 7.93777 7.15V9.36H9.02777C9.42777 9.36 9.70111 9.28667 9.84777 9.14C9.99444 8.99333 10.0678 8.7 10.0678 8.26C10.0678 7.82 9.99444 7.52667 9.84777 7.38C9.70111 7.22667 9.42777 7.15 9.02777 7.15ZM15.2994 6C16.0261 6 16.6027 6.10667 17.0294 6.32C17.4627 6.53333 17.7761 6.89667 17.9694 7.41C18.1627 7.92333 18.2594 8.63667 18.2594 9.55C18.2594 10.4633 18.1627 11.1767 17.9694 11.69C17.7761 12.2033 17.4627 12.5667 17.0294 12.78C16.6027 12.9867 16.0261 13.09 15.2994 13.09C14.7727 13.09 14.2894 13.08 13.8494 13.06C13.4094 13.0467 12.9927 13.0267 12.5994 13V6.1C12.9994 6.07333 13.4161 6.05 13.8494 6.03C14.2827 6.01 14.7661 6 15.2994 6ZM15.2994 7.17C15.0794 7.17 14.8694 7.17 14.6694 7.17C14.4761 7.17 14.2927 7.17333 14.1194 7.18V11.91C14.4794 11.9167 14.8727 11.92 15.2994 11.92C15.6461 11.92 15.9161 11.8533 16.1094 11.72C16.3027 11.58 16.4394 11.3367 16.5194 10.99C16.6061 10.6433 16.6494 10.1633 16.6494 9.55C16.6494 8.93667 16.6061 8.45667 16.5194 8.11C16.4394 7.76333 16.3027 7.52 16.1094 7.38C15.9161 7.24 15.6461 7.17 15.2994 7.17ZM20.8856 6.07C21.4123 6.07 21.9556 6.07667 22.5156 6.09C23.0823 6.09667 23.5956 6.12667 24.0556 6.18L23.9756 7.28H21.4756C21.1089 7.28 20.9256 7.45 20.9256 7.79V8.99H23.6056V10.07H20.9256V13H19.4056V7.48C19.4056 7.04667 19.5423 6.70333 19.8156 6.45C20.0889 6.19667 20.4456 6.07 20.8856 6.07Z" fill="#fff"/>
    </symbol>
    <symbol id="badge-xlx" viewBox="0 0 30 18">
      <path d="M0 4C0 1.79086 1.79086 0 4 0H30V18H4C1.79086 18 0 16.2091 0 14V4Z" fill="#53BA2E"/><path d="M12.0938 6.1L10.3938 9.46L12.2238 13H10.6638L8.94379 9.46L10.5438 6.1H12.0938ZM7.66379 6.1L9.26379 9.46L7.54379 13H5.98379L7.80379 9.46L6.11379 6.1H7.66379ZM9.84379 8.97V9.91H8.27379V8.97H9.84379ZM14.5193 6.1V11.26C14.5193 11.4267 14.566 11.5533 14.6593 11.64C14.7527 11.7267 14.886 11.77 15.0593 11.77H17.4693L17.5393 12.92C17.066 12.9733 16.5693 13.0033 16.0493 13.01C15.536 13.0233 15.0227 13.03 14.5093 13.03C14.0093 13.03 13.6293 12.8967 13.3693 12.63C13.116 12.3567 12.9893 12.01 12.9893 11.59V6.1H14.5193ZM23.8907 6.1L22.1907 9.46L24.0207 13H22.4607L20.7407 9.46L22.3407 6.1H23.8907ZM19.4607 6.1L21.0607 9.46L19.3407 13H17.7807L19.6007 9.46L17.9107 6.1H19.4607ZM21.6407 8.97V9.91H20.0707V8.97H21.6407Z" fill="#fff"/>
    </symbol>
    <symbol id="calendar-icon" viewBox="0 0 18 18">
      <path d="M6.75 1.5a.75.75 0 0 1 .75.75V3h3v-.75a.75.75 0 0 1 1.5 0V3h2.25a1.5 1.5 0 0 1 1.5 1.5v9.75a1.5 1.5 0 0 1-1.5 1.5H3.75a1.5 1.5 0 0 1-1.5-1.5V4.5A1.5 1.5 0 0 1 3.75 3H6v-.75a.75.75 0 0 1 .75-.75zM6 4.5H3.75v2.25h10.5V4.5H12v.75a.75.75 0 0 1-1.5 0V4.5h-3v.75a.75.75 0 0 1-1.5 0V4.5zm8.25 3.75H3.75v6h10.5v-6z" fill="currentColor"/>
    </symbol>
    <symbol id="close-icon" viewBox="0 0 24 24">
      <path d="M6.22517 4.81108C5.83465 4.42056 5.20148 4.42056 4.81096 4.81108C4.42044 5.20161 4.42044 5.83477 4.81096 6.2253L10.5857 12L4.81102 17.7747C4.4205 18.1652 4.42049 18.7984 4.81102 19.1889C5.20154 19.5794 5.83471 19.5794 6.22523 19.1889L11.9999 13.4142L17.7746 19.1889C18.1651 19.5794 18.7983 19.5794 19.1888 19.1889C19.5793 18.7984 19.5793 18.1652 19.1888 17.7747L13.4141 12L19.1889 6.2253C19.5794 5.83477 19.5794 5.20161 19.1889 4.81108C18.7983 4.42056 18.1652 4.42056 17.7746 4.81108L11.9999 10.5858L6.22517 4.81108Z" fill="currentColor"/>
    </symbol>
    <symbol id="doc-icon" viewBox="0 0 48 48">
      <path d="M8 8a4 4 0 0 1 4-4h16a2 2 0 0 1 1.414.586l10 10A2 2 0 0 1 40 16v24a4 4 0 0 1-4 4H12a4 4 0 0 1-4-4V8zm27.172 8L28 8.828V16h7.172zM24 8H12v32h24V20H26a2 2 0 0 1-2-2V8zm-8 18a2 2 0 0 1 2-2h12a2 2 0 1 1 0 4H18a2 2 0 0 1-2-2zm0 8a2 2 0 0 1 2-2h12a2 2 0 1 1 0 4H18a2 2 0 0 1-2-2z" fill="currentColor"/>
    </symbol>
    <symbol id="email-icon" viewBox="0 0 48 48">
      <path d="M4 12a4 4 0 0 1 4-4h32a4 4 0 0 1 4 4v24a4 4 0 0 1-4 4H8a4 4 0 0 1-4-4V12zm7.037 0L24 23.343 36.963 12H11.037zM40 14.658 25.317 27.505a2 2 0 0 1-2.634 0L8 14.658V36h32V14.657z" fill="currentColor"/>
    </symbol>
    <symbol id="facebook-2-icon" viewBox="0 0 18 18">
      <path d="M6.89848 16.125H9.89848V10.1176H12.6016L12.8985 7.13232H9.89848V5.625C9.89848 5.21079 10.2343 4.875 10.6485 4.875H12.8985V1.875H10.6485C8.57741 1.875 6.89848 3.55393 6.89848 5.625V7.13232H5.39848L5.10156 10.1176H6.89848V16.125Z" fill="#000"/>
    </symbol>
    <symbol id="facebook-icon" viewBox="0 0 24 25">
      <g clip-path="url(#clip0_122_153)"><path fill-rule="evenodd" clip-rule="evenodd" d="M0 12.9645C0 18.9305 4.333 23.8915 10 24.8975V16.2305H7V12.8975H10V10.2305C10 7.23046 11.933 5.56446 14.667 5.56446C15.533 5.56446 16.467 5.69746 17.333 5.83046V8.89746H15.8C14.333 8.89746 14 9.63046 14 10.5645V12.8975H17.2L16.667 16.2305H14V24.8975C19.667 23.8915 24 18.9315 24 12.9645C24 6.32746 18.6 0.897461 12 0.897461C5.4 0.897461 0 6.32746 0 12.9645Z" fill="#000"/></g>
    </symbol>
    <symbol id="info-icon" viewBox="0 0 48 48">
      <path d="M24 8C15.163 8 8 15.163 8 24s7.163 16 16 16 16-7.163 16-16S32.837 8 24 8zM4 24C4 12.954 12.954 4 24 4s20 8.954 20 20-8.954 20-20 20S4 35.046 4 24z" fill="currentColor"/><path d="M24 20a2 2 0 0 1 2 2v12a2 2 0 1 1-4 0V22a2 2 0 0 1 2-2zM27 15a3 3 0 1 1-6 0 3 3 0 0 1 6 0z" fill="currentColor"/>
    </symbol>
    <symbol id="instagram-2-icon" viewBox="0 0 18 18">
      <path d="M9.00084 0C6.55657 0 6.24982 0.0106878 5.28981 0.0543757C4.33167 0.0982512 3.67766 0.24994 3.10541 0.472505C2.51346 0.702382 2.01133 1.00989 1.51108 1.51033C1.01045 2.01058 0.702945 2.51271 0.472317 3.10447C0.24919 3.67691 0.0973134 4.33111 0.054188 5.28887C0.01125 6.24888 0 6.55582 0 9.00009C0 11.4444 0.0108753 11.7502 0.0543757 12.7102C0.0984387 13.6683 0.250128 14.3223 0.472505 14.8946C0.70257 15.4865 1.01007 15.9887 1.51052 16.4889C2.01058 16.9896 2.51271 17.2978 3.10428 17.5277C3.67691 17.7502 4.33111 17.9019 5.28905 17.9458C6.24906 17.9895 6.55563 18.0002 8.99972 18.0002C11.4442 18.0002 11.75 17.9895 12.71 17.9458C13.6681 17.9019 14.3229 17.7502 14.8955 17.5277C15.4873 17.2978 15.9887 16.9896 16.4887 16.4889C16.9894 15.9887 17.2969 15.4865 17.5275 14.8948C17.7487 14.3223 17.9006 13.6681 17.9456 12.7104C17.9888 11.7504 18 11.4444 18 9.00009C18 6.55582 17.9888 6.24906 17.9456 5.28905C17.9006 4.33092 17.7487 3.67691 17.5275 3.10466C17.2969 2.51271 16.9894 2.01058 16.4887 1.51033C15.9881 1.0097 15.4875 0.702195 14.895 0.472505C14.3212 0.24994 13.6668 0.0982512 12.7087 0.0543757C11.7487 0.0106878 11.4431 0 8.99803 0H9.00084ZM8.19346 1.62189C8.43309 1.62152 8.70047 1.62189 9.00084 1.62189C11.4039 1.62189 11.6887 1.63052 12.6376 1.67364C13.5151 1.71377 13.9914 1.86039 14.3086 1.98358C14.7287 2.14671 15.0281 2.34171 15.3429 2.65671C15.6579 2.97172 15.8529 3.27172 16.0164 3.69173C16.1396 4.0086 16.2864 4.48486 16.3264 5.36237C16.3695 6.31113 16.3789 6.59613 16.3789 8.99803C16.3789 11.3999 16.3695 11.6849 16.3264 12.6337C16.2862 13.5112 16.1396 13.9875 16.0164 14.3043C15.8533 14.7243 15.6579 15.0234 15.3429 15.3382C15.0279 15.6532 14.7288 15.8482 14.3086 16.0114C13.9918 16.1351 13.5151 16.2814 12.6376 16.3215C11.6889 16.3646 11.4039 16.374 9.00084 16.374C6.59763 16.374 6.31282 16.3646 5.36406 16.3215C4.48655 16.281 4.01029 16.1344 3.69285 16.0112C3.27285 15.848 2.97284 15.653 2.65784 15.338C2.34284 15.023 2.14783 14.7238 1.98433 14.3036C1.86114 13.9867 1.71433 13.5105 1.67439 12.6329C1.63127 11.6842 1.62264 11.3992 1.62264 8.99578C1.62264 6.59238 1.63127 6.30888 1.67439 5.36012C1.71452 4.48261 1.86114 4.00635 1.98433 3.6891C2.14746 3.2691 2.34284 2.96909 2.65784 2.65409C2.97284 2.33909 3.27285 2.14408 3.69285 1.98058C4.0101 1.85683 4.48655 1.71058 5.36406 1.67027C6.19431 1.63277 6.51607 1.62152 8.19346 1.61964V1.62189ZM13.805 3.11628C13.2088 3.11628 12.725 3.59947 12.725 4.19592C12.725 4.79217 13.2088 5.27593 13.805 5.27593C14.4013 5.27593 14.885 4.79217 14.885 4.19592C14.885 3.59966 14.4013 3.11591 13.805 3.11591V3.11628ZM9.00084 4.37817C6.44838 4.37817 4.37892 6.44763 4.37892 9.00009C4.37892 11.5526 6.44838 13.6211 9.00084 13.6211C11.5533 13.6211 13.622 11.5526 13.622 9.00009C13.622 6.44763 11.5531 4.37817 9.00066 4.37817H9.00084ZM9.00084 6.00006C10.6576 6.00006 12.0009 7.34314 12.0009 9.00009C12.0009 10.6569 10.6576 12.0001 9.00084 12.0001C7.34389 12.0001 6.00081 10.6569 6.00081 9.00009C6.00081 7.34314 7.34389 6.00006 9.00084 6.00006Z" fill="#000"/>
    </symbol>
    <symbol id="instagram-icon" viewBox="0 0 24 25">
      <rect y=".897" width="24" height="24" rx="12" fill="#000"/><g clip-path="url(#clip0_122_155)"><path fill-rule="evenodd" clip-rule="evenodd" d="M8.9765 5.60809C9.7585 5.57209 10.0078 5.56409 11.9998 5.56409C13.9918 5.56409 14.2412 5.57275 15.0225 5.60809C15.8038 5.64342 16.3372 5.76809 16.8038 5.94875C17.2925 6.13342 17.7358 6.42209 18.1025 6.79542C18.4758 7.16142 18.7638 7.60409 18.9478 8.09342C19.1292 8.56009 19.2532 9.09342 19.2892 9.87342C19.3252 10.6568 19.3332 10.9061 19.3332 12.8974C19.3332 14.8894 19.3245 15.1388 19.2892 15.9208C19.2538 16.7008 19.1292 17.2341 18.9478 17.7008C18.7638 18.1901 18.4754 18.6336 18.1025 19.0001C17.7358 19.3734 17.2925 19.6614 16.8038 19.8454C16.3372 20.0268 15.8038 20.1508 15.0238 20.1868C14.2412 20.2228 13.9918 20.2308 11.9998 20.2308C10.0078 20.2308 9.7585 20.2221 8.9765 20.1868C8.1965 20.1514 7.66317 20.0268 7.1965 19.8454C6.70712 19.6614 6.26372 19.3729 5.89717 19.0001C5.52409 18.6339 5.23538 18.1907 5.05117 17.7014C4.8705 17.2348 4.7465 16.7014 4.7105 15.9214C4.6745 15.1381 4.6665 14.8888 4.6665 12.8974C4.6665 10.9054 4.67517 10.6561 4.7105 9.87475C4.74584 9.09342 4.8705 8.56009 5.05117 8.09342C5.23565 7.60414 5.52458 7.16096 5.89784 6.79475C6.26386 6.42175 6.70682 6.13305 7.19584 5.94875C7.6625 5.76809 8.19584 5.64409 8.97584 5.60809H8.9765ZM14.9632 6.92809C14.1898 6.89275 13.9578 6.88542 11.9998 6.88542C10.0418 6.88542 9.80984 6.89275 9.0365 6.92809C8.32117 6.96075 7.93317 7.08009 7.6745 7.18075C7.3325 7.31409 7.08784 7.47209 6.83117 7.72875C6.58787 7.96545 6.40062 8.25361 6.28317 8.57209C6.1825 8.83075 6.06317 9.21875 6.0305 9.93409C5.99517 10.7074 5.98784 10.9394 5.98784 12.8974C5.98784 14.8554 5.99517 15.0874 6.0305 15.8608C6.06317 16.5761 6.1825 16.9641 6.28317 17.2228C6.4005 17.5408 6.58784 17.8294 6.83117 18.0661C7.06784 18.3094 7.3565 18.4968 7.6745 18.6141C7.93317 18.7148 8.32117 18.8341 9.0365 18.8668C9.80984 18.9021 10.0412 18.9094 11.9998 18.9094C13.9585 18.9094 14.1898 18.9021 14.9632 18.8668C15.6785 18.8341 16.0665 18.7148 16.3252 18.6141C16.6672 18.4808 16.9118 18.3228 17.1685 18.0661C17.4118 17.8294 17.5992 17.5408 17.7165 17.2228C17.8172 16.9641 17.9365 16.5761 17.9692 15.8608C18.0045 15.0874 18.0118 14.8554 18.0118 12.8974C18.0118 10.9394 18.0045 10.7074 17.9692 9.93409C17.9365 9.21875 17.8172 8.83075 17.7165 8.57209C17.5832 8.23009 17.4252 7.98542 17.1685 7.72875C16.9318 7.48547 16.6436 7.29823 16.3252 7.18075C16.0665 7.08009 15.6785 6.96075 14.9632 6.92809ZM11.0632 15.1581C11.5863 15.3758 12.1688 15.4052 12.7111 15.2412C13.2535 15.0772 13.7221 14.73 14.0369 14.2589C14.3517 13.7878 14.4932 13.222 14.4372 12.6582C14.3812 12.0943 14.1312 11.5674 13.7298 11.1674C13.474 10.9117 13.1646 10.716 12.8241 10.5942C12.4835 10.4724 12.1201 10.4277 11.7602 10.4632C11.4002 10.4987 11.0526 10.6135 10.7424 10.7995C10.4321 10.9855 10.167 11.2379 9.96604 11.5387C9.76508 11.8394 9.6333 12.1809 9.58018 12.5387C9.52707 12.8965 9.55394 13.2616 9.65886 13.6078C9.76379 13.9539 9.94416 14.2725 10.187 14.5406C10.4298 14.8086 10.7291 15.0195 11.0632 15.1581ZM9.3345 10.2321C9.68452 9.88207 10.1 9.60442 10.5574 9.41499C11.0147 9.22557 11.5048 9.12807 11.9998 9.12807C12.4948 9.12807 12.985 9.22557 13.4423 9.41499C13.8996 9.60442 14.3152 9.88207 14.6652 10.2321C15.0152 10.5821 15.2928 10.9976 15.4823 11.455C15.6717 11.9123 15.7692 12.4024 15.7692 12.8974C15.7692 13.3924 15.6717 13.8826 15.4823 14.3399C15.2928 14.7972 15.0152 15.2127 14.6652 15.5628C13.9583 16.2696 12.9995 16.6668 11.9998 16.6668C11.0001 16.6668 10.0414 16.2696 9.3345 15.5628C8.62761 14.8559 8.23049 13.8971 8.23049 12.8974C8.23049 11.8977 8.62761 10.939 9.3345 10.2321ZM16.6052 9.68942C16.6919 9.6076 16.7613 9.50921 16.8094 9.40007C16.8574 9.29093 16.883 9.17327 16.8848 9.05404C16.8865 8.93481 16.8643 8.81645 16.8195 8.70596C16.7747 8.59547 16.7081 8.49509 16.6238 8.41078C16.5395 8.32646 16.4391 8.25992 16.3286 8.2151C16.2181 8.17027 16.0998 8.14807 15.9805 8.14981C15.8613 8.15155 15.7437 8.17719 15.6345 8.22522C15.5254 8.27325 15.427 8.34268 15.3452 8.42942C15.186 8.59811 15.0989 8.82217 15.1023 9.05404C15.1057 9.28591 15.1993 9.50734 15.3633 9.67131C15.5272 9.83529 15.7487 9.92891 15.9805 9.93229C16.2124 9.93567 16.4365 9.84855 16.6052 9.68942Z" fill="#fff"/></g>
    </symbol>
    <symbol id="insurance-org-icon" viewBox="0 0 48 59">
      <g clip-path="url(#a)"><path d="M24 4.5c-8.8 0-16 7.2-16 16 0 10.8 14 23 14.6 23.6.4.2 1 .4 1.4.4.4 0 1-.2 1.4-.4C26 43.5 40 31.3 40 20.5c0-8.8-7.2-16-16-16zm0 35.4c-4.2-4-12-12.6-12-19.4 0-6.6 5.4-12 12-12s12 5.4 12 12-7.8 15.4-12 19.4zm0-27.4c-4.4 0-8 3.6-8 8s3.6 8 8 8 8-3.6 8-8-3.6-8-8-8zm0 12c-2.2 0-4-1.8-4-4s1.8-4 4-4 4 1.8 4 4-1.8 4-4 4z" fill="currentColor"/></g>
    </symbol>
    <symbol id="insured-persons-icon" viewBox="0 0 48 49">
      <g clip-path="url(#a)"><g clip-path="url(#b)"><path d="M43.089 13.025h-5.07v-5.07a3.38 3.38 0 0 0-3.38-3.38H14.361a3.38 3.38 0 0 0-3.38 3.38v5.07h-5.07a5.07 5.07 0 0 0-5.07 5.07v23.658a3.38 3.38 0 0 0 3.38 3.38H44.78a3.38 3.38 0 0 0 3.38-3.38V18.095a5.07 5.07 0 0 0-5.07-5.07zM14.36 7.955h20.278v5.07H14.361v-5.07zm30.418 33.798H4.221V26.544H17.74v8.45h13.52v-8.45h13.518v15.21zM21.12 26.544h6.76v5.07h-6.76v-5.07zm-16.898-3.38v-5.07a1.69 1.69 0 0 1 1.69-1.689h37.177a1.69 1.69 0 0 1 1.69 1.69v5.07H4.221z" fill="currentColor"/></g></g>
    </symbol>
    <symbol id="medical-icon" viewBox="0 0 48 49">
      <g clip-path="url(#a)"><g clip-path="url(#b)" fill="currentColor"><path d="M29.642 14.124H41.64v3.446H29.642v-3.446zM29.642 22.738H41.64v3.445H29.642v-3.445zM29.642 31.35H41.64v3.446H29.642V31.35z"/><path d="M45.068 5.511H3.932c-.909.001-1.78.364-2.423 1.01A3.458 3.458 0 0 0 .504 8.956v31.008c.001.914.363 1.79 1.005 2.436a3.423 3.423 0 0 0 2.423 1.01h41.136a3.425 3.425 0 0 0 2.422-1.011 3.459 3.459 0 0 0 1.006-2.435V8.956c-.001-.913-.363-1.789-1.005-2.435a3.423 3.423 0 0 0-2.423-1.01zM3.932 8.956h18.854v31.008H3.932V8.956zm22.282 31.008V8.956h18.854l.003 31.008H26.214z"/></g></g>
    </symbol>
    <symbol id="menu-icon" viewBox="0 0 24 24">
      <path d="M4 6C4 5.44772 4.44772 5 5 5H19C19.5523 5 20 5.44772 20 6C20 6.55228 19.5523 7 19 7H5C4.44772 7 4 6.55228 4 6Z" fill="#fff"/><path d="M4 18C4 17.4477 4.44772 17 5 17H19C19.5523 17 20 17.4477 20 18C20 18.5523 19.5523 19 19 19H5C4.44772 19 4 18.5523 4 18Z" fill="#fff"/><path d="M5 11C4.44772 11 4 11.4477 4 12C4 12.5523 4.44772 13 5 13H13C13.5523 13 14 12.5523 14 12C14 11.4477 13.5523 11 13 11H5Z" fill="#fff"/>
    </symbol>
    <symbol id="message-icon" viewBox="0 0 48 48">
      <path d="M4 12a4 4 0 0 1 4-4h32a4 4 0 0 1 4 4v22a4 4 0 0 1-4 4h-9.172l-5.414 5.414a2 2 0 0 1-2.828 0L17.172 38H8a4 4 0 0 1-4-4V12zm36 0H8v22h10a2 2 0 0 1 1.414.586L24 39.172l4.586-4.586A2 2 0 0 1 30 34h10V12z" fill="currentColor"/><path d="M27 23a3 3 0 1 1-6 0 3 3 0 0 1 6 0zM35 23a3 3 0 1 1-6 0 3 3 0 0 1 6 0zM19 23a3 3 0 1 1-6 0 3 3 0 0 1 6 0z" fill="currentColor"/>
    </symbol>
    <symbol id="more-icon" viewBox="0 0 24 24">
      <path d="m9 18 6-6-6-6" stroke="currentColor" stroke-width="1.5" stroke-linecap="round" stroke-linejoin="round"/>
    </symbol>
    <symbol id="ok-icon" viewBox="0 0 18 18">
      <path d="M8.9999 2.7226C10.0606 2.7226 10.9233 3.58538 10.9233 4.64604C10.9233 5.70581 10.0603 6.56858 8.9999 6.56858C7.93989 6.56858 7.0769 5.70581 7.0769 4.64604C7.07668 3.58514 7.94011 2.7226 8.9999 2.7226ZM8.9999 9.28986C11.562 9.28986 13.6455 7.20698 13.6455 4.64604C13.6455 2.08377 11.5622 0 8.9999 0C6.43806 0 4.35431 2.08399 4.35431 4.64604C4.35431 7.20698 6.43806 9.28986 8.9999 9.28986ZM10.8793 13.0791C11.835 12.8615 12.747 12.4839 13.5768 11.9622C13.8822 11.77 14.0989 11.4643 14.1791 11.1124C14.259 10.7605 14.1961 10.3912 14.0039 10.0857C13.9089 9.93426 13.7849 9.80308 13.6391 9.69961C13.4933 9.59615 13.3286 9.52244 13.1542 9.48272C12.9799 9.44298 12.7995 9.438 12.6233 9.46806C12.447 9.49811 12.2785 9.56261 12.1272 9.65785C10.224 10.8544 7.77447 10.8535 5.87281 9.65785C5.72156 9.56257 5.553 9.49806 5.37677 9.46799C5.20056 9.43793 5.02013 9.44291 4.84585 9.48265C4.67155 9.52238 4.5068 9.5961 4.36103 9.69958C4.21526 9.80304 4.09131 9.93425 3.99631 10.0857C3.80405 10.3911 3.74097 10.7603 3.82096 11.1123C3.90095 11.4642 4.11742 11.7699 4.42279 11.9622C5.25252 12.4837 6.16435 12.8612 7.11983 13.0791L4.52286 15.6765C4.26764 15.9318 4.12431 16.2781 4.12437 16.639C4.12442 17 4.2679 17.3463 4.5232 17.6014C4.77848 17.8566 5.12471 18 5.4857 17.9998C5.84668 17.9998 6.19285 17.8564 6.44807 17.6011L8.99944 15.0492L11.5524 17.6012C11.6786 17.7276 11.8285 17.828 11.9936 17.8964C12.1586 17.9649 12.3355 18 12.5142 18C12.6927 18 12.8697 17.9649 13.0346 17.8964C13.1996 17.828 13.3496 17.7276 13.4759 17.6012C13.6024 17.475 13.7028 17.3252 13.7714 17.16C13.8399 16.9949 13.8751 16.8179 13.8751 16.6392C13.8751 16.4603 13.8399 16.2833 13.7714 16.1183C13.7028 15.9532 13.6024 15.8032 13.4759 15.677L10.8793 13.0791Z" fill="#000"/>
    </symbol>
    <symbol id="page-left-icon" viewBox="0 0 184 89">
      <path fill="#EDF1F3" d="M-116 66.924H183.63099999999997V88.60400000000001H-116z"/><path fill="#EDF1F3" d="M-116 33.462H141.99400000000003V55.142H-116z"/><path fill="#EDF1F3" d="M-116 0H104.84100000000001V21.68H-116z"/>
    </symbol>
    <symbol id="page-right-icon" viewBox="0 0 110 89">
      <path fill="#EDF1F3" d="M0 66.924H299.631V88.60400000000001H0z"/><path fill="#EDF1F3" d="M42 33.462H299.994V55.142H42z"/><path fill="#EDF1F3" d="M79 0H299.841V21.68H79z"/>
    </symbol>
    <symbol id="pagination-sep" viewBox="0 0 36 37">
      <path d="M12.522 25.326C13.3977 25.326 14.1712 24.5845 14.1839 23.6641C14.1712 22.7564 13.3977 22.0213 12.522 22.0213C11.6016 22.0213 10.8473 22.7564 10.8601 23.6641C10.8473 24.5845 11.6016 25.326 12.522 25.326ZM18.0064 25.326C18.8821 25.326 19.6555 24.5845 19.6683 23.6641C19.6555 22.7564 18.8821 22.0213 18.0064 22.0213C17.0859 22.0213 16.3317 22.7564 16.3445 23.6641C16.3317 24.5845 17.0859 25.326 18.0064 25.326ZM23.4908 25.326C24.3665 25.326 25.1399 24.5845 25.1527 23.6641C25.1399 22.7564 24.3665 22.0213 23.4908 22.0213C22.5703 22.0213 21.8161 22.7564 21.8288 23.6641C21.8161 24.5845 22.5703 25.326 23.4908 25.326Z" fill="#BCBCBC"/>
    </symbol>
    <symbol id="phone-icon" viewBox="0 0 48 55">
      <path d="M7.666 9.167h8.98l2.894 8.291-4.65 3.552c-.556.425-.89 1.14-.89 1.907.005.214 0 .002 0 .002v.047a4.871 4.871 0 0 0 .012.309c.011.188.032.443.07.754.078.621.228 1.473.52 2.477.587 2.016 1.74 4.626 3.984 7.198 2.244 2.572 4.522 3.892 6.281 4.564.877.334 1.62.507 2.162.596a7.702 7.702 0 0 0 .86.092l.067.002h.042s.223-.014.002 0c.757 0 1.45-.49 1.789-1.266l1.34-3.07 8.87 1.694v9.9c-4.221.7-15.624 1.39-24.585-8.878C6.454 27.07 7.055 14.005 7.666 9.167zM18.147 24.03l3.612-2.76c1.574-1.202 2.198-3.503 1.495-5.515L20.36 7.465c-.608-1.74-2.079-2.882-3.714-2.882H7.56c-1.817 0-3.527 1.447-3.825 3.706-.679 5.14-1.603 20.313 8.85 32.29 10.452 11.976 23.695 10.918 28.18 10.14C42.737 50.377 44 48.418 44 46.336v-10.02c0-2.24-1.414-4.152-3.343-4.52L31.786 30.1c-1.732-.33-3.45.672-4.236 2.471l-.693 1.588a8.442 8.442 0 0 1-.725-.24c-1.24-.474-2.962-1.445-4.718-3.457-1.756-2.012-2.603-3.985-3.017-5.406-.111-.384-.192-.73-.25-1.026z" fill="currentColor"/>
    </symbol>
    <symbol id="play-icon" viewBox="0 0 68 84">
      <g filter="url(#filter0_d_143_312)"><path fill-rule="evenodd" clip-rule="evenodd" d="M4 76L64 38L4 0V76ZM13.4186 17.1826V58.8174L46.2881 38L13.4186 17.1826Z" fill="#fff"/></g>
    </symbol>
    <symbol id="print-icon" viewBox="0 0 19 18">
      <path d="M12.8623 2.25H6.1123C5.49098 2.25 4.9873 2.75368 4.9873 3.375V5.625H3.8623V3.375C3.8623 2.13236 4.86966 1.125 6.1123 1.125H12.8623C14.1049 1.125 15.1123 2.13236 15.1123 3.375V5.625H13.9873V3.375C13.9873 2.75368 13.4836 2.25 12.8623 2.25Z" fill="#000"/><path d="M16.2373 6.75H2.7373C2.11598 6.75 1.6123 7.25368 1.6123 7.875V11.25C1.6123 11.8713 2.11598 12.375 2.7373 12.375H3.8623V13.5H2.7373C1.49466 13.5 0.487305 12.4926 0.487305 11.25V7.875C0.487305 6.63236 1.49466 5.625 2.7373 5.625H16.2373C17.4799 5.625 18.4873 6.63236 18.4873 7.875V11.25C18.4873 12.4926 17.4799 13.5 16.2373 13.5H15.1123V12.375H16.2373C16.8586 12.375 17.3623 11.8713 17.3623 11.25V7.875C17.3623 7.25368 16.8586 6.75 16.2373 6.75Z" fill="#000"/><path fill-rule="evenodd" clip-rule="evenodd" d="M12.8623 10.125H6.1123C5.49098 10.125 4.9873 10.6287 4.9873 11.25V14.625C4.9873 15.2463 5.49098 15.75 6.1123 15.75H12.8623C13.4836 15.75 13.9873 15.2463 13.9873 14.625V11.25C13.9873 10.6287 13.4836 10.125 12.8623 10.125ZM6.1123 9C4.86966 9 3.8623 10.0074 3.8623 11.25V14.625C3.8623 15.8676 4.86966 16.875 6.1123 16.875H12.8623C14.1049 16.875 15.1123 15.8676 15.1123 14.625V11.25C15.1123 10.0074 14.1049 9 12.8623 9H6.1123Z" fill="#000"/><path d="M3.8623 8.4375C3.8623 8.74816 3.61046 9 3.2998 9C2.98914 9 2.7373 8.74816 2.7373 8.4375C2.7373 8.12684 2.98914 7.875 3.2998 7.875C3.61046 7.875 3.8623 8.12684 3.8623 8.4375Z" fill="#000"/>
    </symbol>
    <symbol id="radio-check" viewBox="0 0 18 19">
      <g clip-path="url(#a)"><path fill-rule="evenodd" clip-rule="evenodd" d="M9.203 16.872c-4.2 0-7.67-3.47-7.67-7.67 0-4.199 3.464-7.668 7.664-7.668 4.2 0 7.675 3.47 7.675 7.669 0 4.2-3.47 7.669-7.67 7.669zm-.943-3.817c.218 0 .407-.1.548-.318l3.958-6.202c.089-.13.165-.29.165-.43 0-.313-.277-.507-.565-.507-.171 0-.342.1-.471.3L8.23 11.724 6.28 9.279c-.153-.194-.312-.265-.5-.265a.53.53 0 0 0-.53.542c0 .147.058.306.159.43l2.273 2.757c.183.224.36.312.577.312z" fill="#0A7AFF"/></g>
    </symbol>
    <symbol id="search-icon" viewBox="0 0 34 34">
      <path fill-rule="evenodd" clip-rule="evenodd" d="M14.167 7.084a7.083 7.083 0 1 0 0 14.166 7.083 7.083 0 0 0 0-14.166zM4.25 14.167a9.918 9.918 0 1 1 17.858 5.94l7.227 7.225a1.417 1.417 0 1 1-2.003 2.004l-7.225-7.225A9.916 9.916 0 0 1 4.25 14.167z" fill="currentColor"/>
    </symbol>
    <symbol id="slider-menu" viewBox="0 0 44 44">
      <path fill="#000" d="M0 0h44v44H0z"/><path fill-rule="evenodd" clip-rule="evenodd" d="M16 12h-4v4h4v-4zm8 0h-4v4h12v-4h-8zm8 12h-4v-4h4v4zm-12 0h4v-4H12v4h8zm-8 4h4v4h-4v-4zm12 0h-4v4h12v-4h-8z" fill="#fff"/>
    </symbol>
    <symbol id="special-version-icon" viewBox="0 0 20 20">
      <path fill-rule="evenodd" clip-rule="evenodd" d="M5.251 12.982c-1.27-1.091-2.175-2.337-2.6-2.981.424-.645 1.33-1.89 2.6-2.981C6.562 5.894 8.181 5 10.001 5c1.82 0 3.438.894 4.749 2.02 1.27 1.09 2.175 2.336 2.6 2.98-.424.645-1.33 1.89-2.6 2.982C13.439 14.107 11.82 15 10 15c-1.82 0-3.438-.894-4.749-2.02zm4.75-9.648c-2.377 0-4.37 1.162-5.836 2.421C2.695 7.02 1.673 8.45 1.22 9.142a1.563 1.563 0 0 0 0 1.717c.453.693 1.474 2.123 2.945 3.387 1.467 1.259 3.459 2.421 5.836 2.421 2.376 0 4.369-1.162 5.835-2.421 1.47-1.264 2.492-2.694 2.945-3.387a1.563 1.563 0 0 0 0-1.717c-.453-.693-1.474-2.122-2.945-3.387C14.369 4.496 12.377 3.334 10 3.334zM8.334 10a1.667 1.667 0 1 1 3.333 0 1.667 1.667 0 0 1-3.333 0zM10 6.667a3.333 3.333 0 1 0 0 6.667 3.333 3.333 0 0 0 0-6.667z" fill="currentColor"/>
    </symbol>
    <symbol id="twitter-2-icon" viewBox="0 0 18 18">
      <path d="M5.65426 16.875C12.4466 16.875 16.1633 11.2467 16.1633 6.37408C16.1633 6.21574 16.1633 6.05739 16.1561 5.89905C16.8764 5.38084 17.503 4.72589 18 3.98456C17.3373 4.27965 16.6243 4.47398 15.8752 4.56754C16.6387 4.11411 17.2221 3.38718 17.503 2.5235C16.7899 2.94814 15.9976 3.25043 15.1549 3.41597C14.4778 2.69624 13.5198 2.25 12.461 2.25C10.4226 2.25 8.76591 3.90539 8.76591 5.94224C8.76591 6.23013 8.80192 6.51083 8.85954 6.78433C5.79112 6.63318 3.06843 5.15773 1.2461 2.92655C0.929172 3.47355 0.7491 4.10691 0.7491 4.78346C0.7491 6.06459 1.40456 7.19457 2.39136 7.85673C1.78631 7.83514 1.21729 7.6696 0.720288 7.3961C0.720288 7.41049 0.720288 7.42489 0.720288 7.44648C0.720288 9.23142 1.9952 10.7285 3.68067 11.0667C3.37095 11.1531 3.04682 11.1963 2.70828 11.1963C2.47059 11.1963 2.2401 11.1747 2.01681 11.1315C2.48499 12.5998 3.85354 13.665 5.46699 13.6938C4.19928 14.687 2.60744 15.2772 0.878752 15.2772C0.583434 15.2772 0.288115 15.2628 0 15.2268C1.62785 16.2632 3.57263 16.875 5.65426 16.875Z" fill="#000"/>
    </symbol>
    <symbol id="twitter-icon" viewBox="0 0 24 25">
      <rect y=".897" width="24" height="24" rx="12" fill="#000"/><path d="M19.9958 7.4395C19.4077 7.70008 18.776 7.87615 18.1119 7.95574C18.7971 7.5457 19.3098 6.90035 19.5542 6.1401C18.9104 6.52252 18.2058 6.7917 17.471 6.93594C16.9768 6.40834 16.3223 6.05863 15.6091 5.94112C14.8958 5.82361 14.1637 5.94487 13.5264 6.28606C12.8892 6.62726 12.3824 7.16931 12.0847 7.82805C11.7871 8.4868 11.7152 9.22538 11.8804 9.92913C10.5758 9.86363 9.29963 9.52456 8.1346 8.93392C6.96958 8.34328 5.94176 7.51427 5.11786 6.50069C4.83615 6.98665 4.67417 7.55007 4.67417 8.15012C4.67385 8.6903 4.80688 9.22221 5.06144 9.69865C5.316 10.1751 5.68422 10.5813 6.13344 10.8813C5.61246 10.8647 5.10298 10.724 4.6474 10.4707V10.513C4.64735 11.2706 4.90942 12.0049 5.38914 12.5913C5.86886 13.1777 6.53669 13.5801 7.2793 13.7301C6.79601 13.8609 6.28932 13.8802 5.7975 13.7865C6.00702 14.4384 6.41515 15.0084 6.96475 15.4168C7.51435 15.8253 8.17791 16.0516 8.86253 16.0641C7.70035 16.9765 6.26506 17.4713 4.78756 17.4692C4.52583 17.4692 4.26433 17.454 4.00439 17.4234C5.50415 18.3877 7.24996 18.8994 9.03297 18.8975C15.0687 18.8975 18.3682 13.8985 18.3682 9.56291C18.3682 9.42205 18.3647 9.27979 18.3584 9.13893C19.0002 8.67479 19.5542 8.10004 19.9944 7.44161L19.9958 7.4395Z" fill="#fff"/>
    </symbol>
    <symbol id="user-2-icon" viewBox="0 0 20 20">
      <path fill-rule="evenodd" clip-rule="evenodd" d="M6.667 7.5a3.334 3.334 0 1 1 6.667 0 3.334 3.334 0 0 1-6.667 0zm6.52 3.853a5 5 0 1 0-6.374 0c-2.658.936-4.313 3.02-4.313 5.315a.833.833 0 0 0 1.667 0c0-1.892 1.962-4.167 5.833-4.167 3.871 0 5.834 2.275 5.834 4.167a.833.833 0 0 0 1.667 0c0-2.295-1.654-4.38-4.314-5.315z" fill="currentColor"/>
    </symbol>
    <symbol id="user-icon" viewBox="0 0 48 48">
      <path d="M24 8a8 8 0 1 0 0 16 8 8 0 0 0 0-16zm-12 8c0-6.627 5.373-12 12-12s12 5.373 12 12-5.373 12-12 12-12-5.373-12-12zm4 20a6 6 0 0 0-6 6 2 2 0 1 1-4 0c0-5.523 4.477-10 10-10h16c5.523 0 10 4.477 10 10a2 2 0 1 1-4 0 6 6 0 0 0-6-6H16z" fill="currentColor"/>
    </symbol>
    <symbol id="vk-icon" viewBox="0 0 18 18">
      <path fill-rule="evenodd" clip-rule="evenodd" d="M16.6329 4.89229C16.7442 4.52145 16.6329 4.24889 16.1035 4.24889H14.3531C13.908 4.24889 13.703 4.48432 13.5917 4.74401C13.5917 4.74401 12.7015 6.91364 11.4404 8.32297C11.0325 8.73094 10.847 8.86059 10.6245 8.86059C10.5132 8.86059 10.3522 8.73094 10.3522 8.3601V4.89229C10.3522 4.44719 10.223 4.24889 9.85207 4.24889H7.10142C6.82336 4.24889 6.65607 4.45544 6.65607 4.65123C6.65607 5.07321 7.28647 5.17048 7.35148 6.35726V8.93498C7.35148 9.50012 7.24946 9.60264 7.02691 9.60264C6.43352 9.60264 4.99018 7.42313 4.13398 4.92942C3.96619 4.44469 3.7979 4.24889 3.35055 4.24889H1.60014C1.10002 4.24889 1 4.48432 1 4.74401C1 5.20761 1.59351 7.50715 3.76314 10.5484C5.20973 12.6251 7.24746 13.7511 9.10189 13.7511C10.2147 13.7511 10.3522 13.501 10.3522 13.0703V11.5006C10.3522 11.0005 10.4576 10.9007 10.8098 10.9007C11.0696 10.9007 11.5146 11.0305 12.5532 12.0318C13.74 13.2185 13.9355 13.7511 14.6032 13.7511H16.3536C16.8537 13.7511 17.1038 13.501 16.9595 13.0076C16.8017 12.5157 16.2351 11.8023 15.4831 10.9563C15.0752 10.4741 14.4631 9.95485 14.2779 9.69529C14.0182 9.36146 14.0923 9.21317 14.2779 8.9166C14.2779 8.9166 16.4103 5.9124 16.6329 4.89242V4.89229Z" fill="#130F26"/>
    </symbol>
    <symbol id="warning-icon" viewBox="0 0 48 48">
      <path d="M24 28a2 2 0 0 1-2-2v-6a2 2 0 0 1 4 0v6a2 2 0 0 1-2 2zM21 33a3 3 0 1 1 6 0 3 3 0 0 1-6 0z" fill="currentColor"/><path d="M20.46 6.431c1.5-2.85 5.58-2.85 7.08 0l16.687 31.706c1.402 2.664-.53 5.863-3.54 5.863H7.313c-3.01 0-4.942-3.2-3.54-5.863L20.46 6.431zM40.687 40 24 8.294 7.313 40h33.374z" fill="currentColor"/>
    </symbol>
    <symbol id="youtube-icon" viewBox="0 0 18 18">
      <path fill-rule="evenodd" clip-rule="evenodd" d="M9.05767 2.24854C9.06407 2.24855 9.07097 2.24856 9.07837 2.24858L9.15802 2.24883C10.0825 2.25223 14.7683 2.28619 16.0317 2.62584C16.8061 2.83357 17.416 3.44574 17.623 4.22282C17.7369 4.64975 17.8164 5.2172 17.8717 5.80079L17.8825 5.91769C17.8912 6.01523 17.8992 6.11298 17.9067 6.21037L17.9153 6.32704C17.9893 7.35541 17.9979 8.31773 17.9989 8.52828L17.999 8.55668C17.999 8.55901 17.999 8.56105 17.999 8.56281V8.57876C17.999 8.58051 17.999 8.58256 17.999 8.58488L17.9989 8.61329C17.9979 8.83179 17.9886 9.85992 17.9067 10.9313L17.8974 11.0483L17.8876 11.1654C17.8319 11.8095 17.7483 12.4492 17.623 12.9188C17.416 13.6958 16.8061 14.3082 16.0317 14.5157C14.7262 14.8668 9.76635 14.8914 9.07837 14.8931L9.02539 14.8932C9.02105 14.8932 9.01723 14.8932 9.01394 14.8933L8.99233 14.8933C8.99012 14.8933 8.98736 14.8933 8.98407 14.8933L8.91964 14.8931C8.57196 14.8923 7.13326 14.8856 5.62658 14.8338L5.43395 14.827C5.40181 14.8258 5.36966 14.8246 5.3375 14.8233L5.14465 14.8157L4.95224 14.8076C3.70405 14.7528 2.51396 14.663 1.9665 14.5157C1.19202 14.3082 0.582165 13.6958 0.375174 12.9188C0.249774 12.4492 0.166175 11.8095 0.110441 11.1654L0.100612 11.0483L0.0913782 10.9313C0.0123883 9.89888 0.000922075 8.90662 -0.000742383 8.6403L-0.00094128 8.60218C-0.000955238 8.59874 -0.00096687 8.59558 -0.000976562 8.5927V8.54887C-0.00096687 8.54598 -0.000955238 8.54282 -0.00094128 8.53939L-0.000742383 8.50127C0.000765051 8.26009 0.0103121 7.4235 0.070777 6.50091L0.0786034 6.38517C0.079953 6.36582 0.0813255 6.34644 0.0827213 6.32704L0.0913782 6.21037C0.0988301 6.11298 0.106883 6.01523 0.115585 5.91769L0.126343 5.80079C0.18172 5.2172 0.261174 4.64975 0.375174 4.22282C0.582165 3.44574 1.19202 2.83357 1.9665 2.62584C2.51396 2.47866 3.70405 2.38888 4.95224 2.33411L5.14465 2.32596L5.3375 2.31834C5.36966 2.31712 5.40181 2.31591 5.43395 2.31473L5.62658 2.30788C7.03709 2.25946 8.38802 2.25049 8.84 2.24883L8.91964 2.24858C8.92704 2.24856 8.93394 2.24855 8.94034 2.24854H9.05767ZM7.19906 5.86113V11.2804L11.8754 8.57093L7.19906 5.86113Z" fill="#000"/>
    </symbol></svg>