<svg xmlns="http://www.w3.org/2000/svg" style="border: 0 !important; clip: rect(0 0 0 0) !important; height: 1px !important; margin: -1px !important; overflow: hidden !important; padding: 0 !important; position: absolute !important; width: 1px !important;" class="root-svg-symbols-element">
  <defs>
      <clipPath id="a"><path fill="#fff" transform="translate(.5 .5)" d="M0 0h28v18H0z"/></clipPath>
<clipPath id="clip0_122_153"><path fill="#fff" transform="translate(0 .897)" d="M0 0H24V24H0z"/></clipPath>
<clipPath id="clip0_122_155"><path fill="#fff" transform="translate(4 4.897)" d="M0 0H16V16H0z"/></clipPath>
<clipPath id="a"><path fill="currentColor" transform="translate(0 .5)" d="M0 0h48v58H0z"/></clipPath>
<clipPath id="a"><path fill="currentColor" transform="translate(0 .5)" d="M0 0h48v48H0z"/></clipPath><clipPath id="b"><path fill="currentColor" transform="translate(.5 4.5)" d="M0 0h48v40.709H0z"/></clipPath>
<clipPath id="a"><path fill="currentColor" transform="translate(0 .5)" d="M0 0h48v48H0z"/></clipPath><clipPath id="b"><path fill="currentColor" transform="translate(.5 5.5)" d="M0 0h48v37.92H0z"/></clipPath>
<filter id="filter0_d_143_312" x="0" y="0" width="68" height="84" filterUnits="userSpaceOnUse" color-interpolation-filters="sRGB"><feFlood flood-opacity="0" result="BackgroundImageFix"/><feColorMatrix in="SourceAlpha" values="0 0 0 0 0 0 0 0 0 0 0 0 0 0 0 0 0 0 127 0" result="hardAlpha"/><feOffset dy="4"/><feGaussianBlur stdDeviation="2"/><feColorMatrix values="0 0 0 0 0 0 0 0 0 0 0 0 0 0 0 0 0 0 0.25 0"/><feBlend in2="BackgroundImageFix" result="effect1_dropShadow_143_312"/><feBlend in="SourceGraphic" in2="effect1_dropShadow_143_312" result="shape"/></filter>
<clipPath id="a"><path fill="#fff" transform="translate(1.534 1.534)" d="M0 0h15.338v15.338H0z"/></clipPath>
  </defs>
    <symbol id="arrow-downdown-icon" viewBox="0 0 24 24">
      <path d="m6 9 6 6 6-6" stroke="currentColor" stroke-linecap="round" stroke-linejoin="round"/>
    </symbol>
    <symbol id="arrow-right-icon" viewBox="0 0 29 19">
      <g clip-path="url(#a)" fill-rule="evenodd" clip-rule="evenodd" fill="#086DE0"><path d="M19.505 1.75a1.164 1.164 0 0 1 .825-.352 1.138 1.138 0 0 1 .826.353l6.997 7.196a1.202 1.202 0 0 1 .343.85 1.229 1.229 0 0 1-.343.849l-6.997 7.197a1.152 1.152 0 0 1-.826.352c-.31 0-.606-.127-.825-.352a1.218 1.218 0 0 1-.342-.85c0-.318.123-.623.342-.849l6.173-6.347-6.173-6.348a1.23 1.23 0 0 1 0-1.698z"/><path d="M.5 9.798c0-.318.123-.623.342-.848a1.15 1.15 0 0 1 .824-.352h24.49c.309 0 .605.127.824.352.219.225.342.53.342.848 0 .318-.123.623-.342.848a1.15 1.15 0 0 1-.825.351H1.666a1.15 1.15 0 0 1-.824-.351A1.217 1.217 0 0 1 .5 9.798z"/></g>
    </symbol>
    <symbol id="calendar-icon" viewBox="0 0 18 18">
      <path d="M6.75 1.5a.75.75 0 0 1 .75.75V3h3v-.75a.75.75 0 0 1 1.5 0V3h2.25a1.5 1.5 0 0 1 1.5 1.5v9.75a1.5 1.5 0 0 1-1.5 1.5H3.75a1.5 1.5 0 0 1-1.5-1.5V4.5A1.5 1.5 0 0 1 3.75 3H6v-.75a.75.75 0 0 1 .75-.75zM6 4.5H3.75v2.25h10.5V4.5H12v.75a.75.75 0 0 1-1.5 0V4.5h-3v.75a.75.75 0 0 1-1.5 0V4.5zm8.25 3.75H3.75v6h10.5v-6z" fill="#fff"/>
    </symbol>
    <symbol id="close-icon" viewBox="0 0 24 24">
      <path d="M6.22517 4.81108C5.83465 4.42056 5.20148 4.42056 4.81096 4.81108C4.42044 5.20161 4.42044 5.83477 4.81096 6.2253L10.5857 12L4.81102 17.7747C4.4205 18.1652 4.42049 18.7984 4.81102 19.1889C5.20154 19.5794 5.83471 19.5794 6.22523 19.1889L11.9999 13.4142L17.7746 19.1889C18.1651 19.5794 18.7983 19.5794 19.1888 19.1889C19.5793 18.7984 19.5793 18.1652 19.1888 17.7747L13.4141 12L19.1889 6.2253C19.5794 5.83477 19.5794 5.20161 19.1889 4.81108C18.7983 4.42056 18.1652 4.42056 17.7746 4.81108L11.9999 10.5858L6.22517 4.81108Z" fill="#fff"/>
    </symbol>
    <symbol id="doc-icon" viewBox="0 0 48 48">
      <path d="M8 8a4 4 0 0 1 4-4h16a2 2 0 0 1 1.414.586l10 10A2 2 0 0 1 40 16v24a4 4 0 0 1-4 4H12a4 4 0 0 1-4-4V8zm27.172 8L28 8.828V16h7.172zM24 8H12v32h24V20H26a2 2 0 0 1-2-2V8zm-8 18a2 2 0 0 1 2-2h12a2 2 0 1 1 0 4H18a2 2 0 0 1-2-2zm0 8a2 2 0 0 1 2-2h12a2 2 0 1 1 0 4H18a2 2 0 0 1-2-2z" fill="currentColor"/>
    </symbol>
    <symbol id="email-icon" viewBox="0 0 48 48">
      <path d="M4 12a4 4 0 0 1 4-4h32a4 4 0 0 1 4 4v24a4 4 0 0 1-4 4H8a4 4 0 0 1-4-4V12zm7.037 0L24 23.343 36.963 12H11.037zM40 14.658 25.317 27.505a2 2 0 0 1-2.634 0L8 14.658V36h32V14.657z" fill="currentColor"/>
    </symbol>
    <symbol id="facebook-icon" viewBox="0 0 24 25">
      <g clip-path="url(#clip0_122_153)"><path fill-rule="evenodd" clip-rule="evenodd" d="M0 12.9645C0 18.9305 4.333 23.8915 10 24.8975V16.2305H7V12.8975H10V10.2305C10 7.23046 11.933 5.56446 14.667 5.56446C15.533 5.56446 16.467 5.69746 17.333 5.83046V8.89746H15.8C14.333 8.89746 14 9.63046 14 10.5645V12.8975H17.2L16.667 16.2305H14V24.8975C19.667 23.8915 24 18.9315 24 12.9645C24 6.32746 18.6 0.897461 12 0.897461C5.4 0.897461 0 6.32746 0 12.9645Z" fill="#000"/></g>
    </symbol>
    <symbol id="info-icon" viewBox="0 0 48 48">
      <path d="M24 8C15.163 8 8 15.163 8 24s7.163 16 16 16 16-7.163 16-16S32.837 8 24 8zM4 24C4 12.954 12.954 4 24 4s20 8.954 20 20-8.954 20-20 20S4 35.046 4 24z" fill="currentColor"/><path d="M24 20a2 2 0 0 1 2 2v12a2 2 0 1 1-4 0V22a2 2 0 0 1 2-2zM27 15a3 3 0 1 1-6 0 3 3 0 0 1 6 0z" fill="currentColor"/>
    </symbol>
    <symbol id="instagram-icon" viewBox="0 0 24 25">
      <rect y=".897" width="24" height="24" rx="12" fill="#000"/><g clip-path="url(#clip0_122_155)"><path fill-rule="evenodd" clip-rule="evenodd" d="M8.9765 5.60809C9.7585 5.57209 10.0078 5.56409 11.9998 5.56409C13.9918 5.56409 14.2412 5.57275 15.0225 5.60809C15.8038 5.64342 16.3372 5.76809 16.8038 5.94875C17.2925 6.13342 17.7358 6.42209 18.1025 6.79542C18.4758 7.16142 18.7638 7.60409 18.9478 8.09342C19.1292 8.56009 19.2532 9.09342 19.2892 9.87342C19.3252 10.6568 19.3332 10.9061 19.3332 12.8974C19.3332 14.8894 19.3245 15.1388 19.2892 15.9208C19.2538 16.7008 19.1292 17.2341 18.9478 17.7008C18.7638 18.1901 18.4754 18.6336 18.1025 19.0001C17.7358 19.3734 17.2925 19.6614 16.8038 19.8454C16.3372 20.0268 15.8038 20.1508 15.0238 20.1868C14.2412 20.2228 13.9918 20.2308 11.9998 20.2308C10.0078 20.2308 9.7585 20.2221 8.9765 20.1868C8.1965 20.1514 7.66317 20.0268 7.1965 19.8454C6.70712 19.6614 6.26372 19.3729 5.89717 19.0001C5.52409 18.6339 5.23538 18.1907 5.05117 17.7014C4.8705 17.2348 4.7465 16.7014 4.7105 15.9214C4.6745 15.1381 4.6665 14.8888 4.6665 12.8974C4.6665 10.9054 4.67517 10.6561 4.7105 9.87475C4.74584 9.09342 4.8705 8.56009 5.05117 8.09342C5.23565 7.60414 5.52458 7.16096 5.89784 6.79475C6.26386 6.42175 6.70682 6.13305 7.19584 5.94875C7.6625 5.76809 8.19584 5.64409 8.97584 5.60809H8.9765ZM14.9632 6.92809C14.1898 6.89275 13.9578 6.88542 11.9998 6.88542C10.0418 6.88542 9.80984 6.89275 9.0365 6.92809C8.32117 6.96075 7.93317 7.08009 7.6745 7.18075C7.3325 7.31409 7.08784 7.47209 6.83117 7.72875C6.58787 7.96545 6.40062 8.25361 6.28317 8.57209C6.1825 8.83075 6.06317 9.21875 6.0305 9.93409C5.99517 10.7074 5.98784 10.9394 5.98784 12.8974C5.98784 14.8554 5.99517 15.0874 6.0305 15.8608C6.06317 16.5761 6.1825 16.9641 6.28317 17.2228C6.4005 17.5408 6.58784 17.8294 6.83117 18.0661C7.06784 18.3094 7.3565 18.4968 7.6745 18.6141C7.93317 18.7148 8.32117 18.8341 9.0365 18.8668C9.80984 18.9021 10.0412 18.9094 11.9998 18.9094C13.9585 18.9094 14.1898 18.9021 14.9632 18.8668C15.6785 18.8341 16.0665 18.7148 16.3252 18.6141C16.6672 18.4808 16.9118 18.3228 17.1685 18.0661C17.4118 17.8294 17.5992 17.5408 17.7165 17.2228C17.8172 16.9641 17.9365 16.5761 17.9692 15.8608C18.0045 15.0874 18.0118 14.8554 18.0118 12.8974C18.0118 10.9394 18.0045 10.7074 17.9692 9.93409C17.9365 9.21875 17.8172 8.83075 17.7165 8.57209C17.5832 8.23009 17.4252 7.98542 17.1685 7.72875C16.9318 7.48547 16.6436 7.29823 16.3252 7.18075C16.0665 7.08009 15.6785 6.96075 14.9632 6.92809ZM11.0632 15.1581C11.5863 15.3758 12.1688 15.4052 12.7111 15.2412C13.2535 15.0772 13.7221 14.73 14.0369 14.2589C14.3517 13.7878 14.4932 13.222 14.4372 12.6582C14.3812 12.0943 14.1312 11.5674 13.7298 11.1674C13.474 10.9117 13.1646 10.716 12.8241 10.5942C12.4835 10.4724 12.1201 10.4277 11.7602 10.4632C11.4002 10.4987 11.0526 10.6135 10.7424 10.7995C10.4321 10.9855 10.167 11.2379 9.96604 11.5387C9.76508 11.8394 9.6333 12.1809 9.58018 12.5387C9.52707 12.8965 9.55394 13.2616 9.65886 13.6078C9.76379 13.9539 9.94416 14.2725 10.187 14.5406C10.4298 14.8086 10.7291 15.0195 11.0632 15.1581ZM9.3345 10.2321C9.68452 9.88207 10.1 9.60442 10.5574 9.41499C11.0147 9.22557 11.5048 9.12807 11.9998 9.12807C12.4948 9.12807 12.985 9.22557 13.4423 9.41499C13.8996 9.60442 14.3152 9.88207 14.6652 10.2321C15.0152 10.5821 15.2928 10.9976 15.4823 11.455C15.6717 11.9123 15.7692 12.4024 15.7692 12.8974C15.7692 13.3924 15.6717 13.8826 15.4823 14.3399C15.2928 14.7972 15.0152 15.2127 14.6652 15.5628C13.9583 16.2696 12.9995 16.6668 11.9998 16.6668C11.0001 16.6668 10.0414 16.2696 9.3345 15.5628C8.62761 14.8559 8.23049 13.8971 8.23049 12.8974C8.23049 11.8977 8.62761 10.939 9.3345 10.2321ZM16.6052 9.68942C16.6919 9.6076 16.7613 9.50921 16.8094 9.40007C16.8574 9.29093 16.883 9.17327 16.8848 9.05404C16.8865 8.93481 16.8643 8.81645 16.8195 8.70596C16.7747 8.59547 16.7081 8.49509 16.6238 8.41078C16.5395 8.32646 16.4391 8.25992 16.3286 8.2151C16.2181 8.17027 16.0998 8.14807 15.9805 8.14981C15.8613 8.15155 15.7437 8.17719 15.6345 8.22522C15.5254 8.27325 15.427 8.34268 15.3452 8.42942C15.186 8.59811 15.0989 8.82217 15.1023 9.05404C15.1057 9.28591 15.1993 9.50734 15.3633 9.67131C15.5272 9.83529 15.7487 9.92891 15.9805 9.93229C16.2124 9.93567 16.4365 9.84855 16.6052 9.68942Z" fill="#fff"/></g>
    </symbol>
    <symbol id="insurance-org-icon" viewBox="0 0 48 59">
      <g clip-path="url(#a)"><path d="M24 4.5c-8.8 0-16 7.2-16 16 0 10.8 14 23 14.6 23.6.4.2 1 .4 1.4.4.4 0 1-.2 1.4-.4C26 43.5 40 31.3 40 20.5c0-8.8-7.2-16-16-16zm0 35.4c-4.2-4-12-12.6-12-19.4 0-6.6 5.4-12 12-12s12 5.4 12 12-7.8 15.4-12 19.4zm0-27.4c-4.4 0-8 3.6-8 8s3.6 8 8 8 8-3.6 8-8-3.6-8-8-8zm0 12c-2.2 0-4-1.8-4-4s1.8-4 4-4 4 1.8 4 4-1.8 4-4 4z" fill="currentColor"/></g>
    </symbol>
    <symbol id="insured-persons-icon" viewBox="0 0 48 49">
      <g clip-path="url(#a)"><g clip-path="url(#b)"><path d="M43.089 13.025h-5.07v-5.07a3.38 3.38 0 0 0-3.38-3.38H14.361a3.38 3.38 0 0 0-3.38 3.38v5.07h-5.07a5.07 5.07 0 0 0-5.07 5.07v23.658a3.38 3.38 0 0 0 3.38 3.38H44.78a3.38 3.38 0 0 0 3.38-3.38V18.095a5.07 5.07 0 0 0-5.07-5.07zM14.36 7.955h20.278v5.07H14.361v-5.07zm30.418 33.798H4.221V26.544H17.74v8.45h13.52v-8.45h13.518v15.21zM21.12 26.544h6.76v5.07h-6.76v-5.07zm-16.898-3.38v-5.07a1.69 1.69 0 0 1 1.69-1.689h37.177a1.69 1.69 0 0 1 1.69 1.69v5.07H4.221z" fill="currentColor"/></g></g>
    </symbol>
    <symbol id="medical-icon" viewBox="0 0 48 49">
      <g clip-path="url(#a)"><g clip-path="url(#b)" fill="currentColor"><path d="M29.642 14.124H41.64v3.446H29.642v-3.446zM29.642 22.738H41.64v3.445H29.642v-3.445zM29.642 31.35H41.64v3.446H29.642V31.35z"/><path d="M45.068 5.511H3.932c-.909.001-1.78.364-2.423 1.01A3.458 3.458 0 0 0 .504 8.956v31.008c.001.914.363 1.79 1.005 2.436a3.423 3.423 0 0 0 2.423 1.01h41.136a3.425 3.425 0 0 0 2.422-1.011 3.459 3.459 0 0 0 1.006-2.435V8.956c-.001-.913-.363-1.789-1.005-2.435a3.423 3.423 0 0 0-2.423-1.01zM3.932 8.956h18.854v31.008H3.932V8.956zm22.282 31.008V8.956h18.854l.003 31.008H26.214z"/></g></g>
    </symbol>
    <symbol id="menu-icon" viewBox="0 0 24 24">
      <path d="M4 6C4 5.44772 4.44772 5 5 5H19C19.5523 5 20 5.44772 20 6C20 6.55228 19.5523 7 19 7H5C4.44772 7 4 6.55228 4 6Z" fill="#fff"/><path d="M4 18C4 17.4477 4.44772 17 5 17H19C19.5523 17 20 17.4477 20 18C20 18.5523 19.5523 19 19 19H5C4.44772 19 4 18.5523 4 18Z" fill="#fff"/><path d="M5 11C4.44772 11 4 11.4477 4 12C4 12.5523 4.44772 13 5 13H13C13.5523 13 14 12.5523 14 12C14 11.4477 13.5523 11 13 11H5Z" fill="#fff"/>
    </symbol>
    <symbol id="message-icon" viewBox="0 0 48 48">
      <path d="M4 12a4 4 0 0 1 4-4h32a4 4 0 0 1 4 4v22a4 4 0 0 1-4 4h-9.172l-5.414 5.414a2 2 0 0 1-2.828 0L17.172 38H8a4 4 0 0 1-4-4V12zm36 0H8v22h10a2 2 0 0 1 1.414.586L24 39.172l4.586-4.586A2 2 0 0 1 30 34h10V12z" fill="currentColor"/><path d="M27 23a3 3 0 1 1-6 0 3 3 0 0 1 6 0zM35 23a3 3 0 1 1-6 0 3 3 0 0 1 6 0zM19 23a3 3 0 1 1-6 0 3 3 0 0 1 6 0z" fill="currentColor"/>
    </symbol>
    <symbol id="more-icon" viewBox="0 0 24 24">
      <path d="m9 18 6-6-6-6" stroke="#086DE0" stroke-width="1.5" stroke-linecap="round" stroke-linejoin="round"/>
    </symbol>
    <symbol id="pagination-sep" viewBox="0 0 36 37">
      <path d="M12.522 25.326C13.3977 25.326 14.1712 24.5845 14.1839 23.6641C14.1712 22.7564 13.3977 22.0213 12.522 22.0213C11.6016 22.0213 10.8473 22.7564 10.8601 23.6641C10.8473 24.5845 11.6016 25.326 12.522 25.326ZM18.0064 25.326C18.8821 25.326 19.6555 24.5845 19.6683 23.6641C19.6555 22.7564 18.8821 22.0213 18.0064 22.0213C17.0859 22.0213 16.3317 22.7564 16.3445 23.6641C16.3317 24.5845 17.0859 25.326 18.0064 25.326ZM23.4908 25.326C24.3665 25.326 25.1399 24.5845 25.1527 23.6641C25.1399 22.7564 24.3665 22.0213 23.4908 22.0213C22.5703 22.0213 21.8161 22.7564 21.8288 23.6641C21.8161 24.5845 22.5703 25.326 23.4908 25.326Z" fill="#BCBCBC"/>
    </symbol>
    <symbol id="phone-icon" viewBox="0 0 48 55">
      <path d="M7.666 9.167h8.98l2.894 8.291-4.65 3.552c-.556.425-.89 1.14-.89 1.907.005.214 0 .002 0 .002v.047a4.871 4.871 0 0 0 .012.309c.011.188.032.443.07.754.078.621.228 1.473.52 2.477.587 2.016 1.74 4.626 3.984 7.198 2.244 2.572 4.522 3.892 6.281 4.564.877.334 1.62.507 2.162.596a7.702 7.702 0 0 0 .86.092l.067.002h.042s.223-.014.002 0c.757 0 1.45-.49 1.789-1.266l1.34-3.07 8.87 1.694v9.9c-4.221.7-15.624 1.39-24.585-8.878C6.454 27.07 7.055 14.005 7.666 9.167zM18.147 24.03l3.612-2.76c1.574-1.202 2.198-3.503 1.495-5.515L20.36 7.465c-.608-1.74-2.079-2.882-3.714-2.882H7.56c-1.817 0-3.527 1.447-3.825 3.706-.679 5.14-1.603 20.313 8.85 32.29 10.452 11.976 23.695 10.918 28.18 10.14C42.737 50.377 44 48.418 44 46.336v-10.02c0-2.24-1.414-4.152-3.343-4.52L31.786 30.1c-1.732-.33-3.45.672-4.236 2.471l-.693 1.588a8.442 8.442 0 0 1-.725-.24c-1.24-.474-2.962-1.445-4.718-3.457-1.756-2.012-2.603-3.985-3.017-5.406-.111-.384-.192-.73-.25-1.026z" fill="currentColor"/>
    </symbol>
    <symbol id="play-icon" viewBox="0 0 68 84">
      <g filter="url(#filter0_d_143_312)"><path fill-rule="evenodd" clip-rule="evenodd" d="M4 76L64 38L4 0V76ZM13.4186 17.1826V58.8174L46.2881 38L13.4186 17.1826Z" fill="#fff"/></g>
    </symbol>
    <symbol id="radio-check" viewBox="0 0 18 19">
      <g clip-path="url(#a)"><path fill-rule="evenodd" clip-rule="evenodd" d="M9.203 16.872c-4.2 0-7.67-3.47-7.67-7.67 0-4.199 3.464-7.668 7.664-7.668 4.2 0 7.675 3.47 7.675 7.669 0 4.2-3.47 7.669-7.67 7.669zm-.943-3.817c.218 0 .407-.1.548-.318l3.958-6.202c.089-.13.165-.29.165-.43 0-.313-.277-.507-.565-.507-.171 0-.342.1-.471.3L8.23 11.724 6.28 9.279c-.153-.194-.312-.265-.5-.265a.53.53 0 0 0-.53.542c0 .147.058.306.159.43l2.273 2.757c.183.224.36.312.577.312z" fill="#0A7AFF"/></g>
    </symbol>
    <symbol id="search-icon" viewBox="0 0 34 34">
      <path fill-rule="evenodd" clip-rule="evenodd" d="M14.167 7.084a7.083 7.083 0 1 0 0 14.166 7.083 7.083 0 0 0 0-14.166zM4.25 14.167a9.918 9.918 0 1 1 17.858 5.94l7.227 7.225a1.417 1.417 0 1 1-2.003 2.004l-7.225-7.225A9.916 9.916 0 0 1 4.25 14.167z" fill="#fff"/>
    </symbol>
    <symbol id="slider-menu" viewBox="0 0 44 44">
      <path fill="#000" d="M0 0h44v44H0z"/><path fill-rule="evenodd" clip-rule="evenodd" d="M16 12h-4v4h4v-4zm8 0h-4v4h12v-4h-8zm8 12h-4v-4h4v4zm-12 0h4v-4H12v4h8zm-8 4h4v4h-4v-4zm12 0h-4v4h12v-4h-8z" fill="#fff"/>
    </symbol>
    <symbol id="special-version-icon" viewBox="0 0 20 20">
      <path fill-rule="evenodd" clip-rule="evenodd" d="M5.251 12.982c-1.27-1.091-2.175-2.337-2.6-2.981.424-.645 1.33-1.89 2.6-2.981C6.562 5.894 8.181 5 10.001 5c1.82 0 3.438.894 4.749 2.02 1.27 1.09 2.175 2.336 2.6 2.98-.424.645-1.33 1.89-2.6 2.982C13.439 14.107 11.82 15 10 15c-1.82 0-3.438-.894-4.749-2.02zm4.75-9.648c-2.377 0-4.37 1.162-5.836 2.421C2.695 7.02 1.673 8.45 1.22 9.142a1.563 1.563 0 0 0 0 1.717c.453.693 1.474 2.123 2.945 3.387 1.467 1.259 3.459 2.421 5.836 2.421 2.376 0 4.369-1.162 5.835-2.421 1.47-1.264 2.492-2.694 2.945-3.387a1.563 1.563 0 0 0 0-1.717c-.453-.693-1.474-2.122-2.945-3.387C14.369 4.496 12.377 3.334 10 3.334zM8.334 10a1.667 1.667 0 1 1 3.333 0 1.667 1.667 0 0 1-3.333 0zM10 6.667a3.333 3.333 0 1 0 0 6.667 3.333 3.333 0 0 0 0-6.667z" fill="currentColor"/>
    </symbol>
    <symbol id="twitter-icon" viewBox="0 0 24 25">
      <rect y=".897" width="24" height="24" rx="12" fill="#000"/><path d="M19.9958 7.4395C19.4077 7.70008 18.776 7.87615 18.1119 7.95574C18.7971 7.5457 19.3098 6.90035 19.5542 6.1401C18.9104 6.52252 18.2058 6.7917 17.471 6.93594C16.9768 6.40834 16.3223 6.05863 15.6091 5.94112C14.8958 5.82361 14.1637 5.94487 13.5264 6.28606C12.8892 6.62726 12.3824 7.16931 12.0847 7.82805C11.7871 8.4868 11.7152 9.22538 11.8804 9.92913C10.5758 9.86363 9.29963 9.52456 8.1346 8.93392C6.96958 8.34328 5.94176 7.51427 5.11786 6.50069C4.83615 6.98665 4.67417 7.55007 4.67417 8.15012C4.67385 8.6903 4.80688 9.22221 5.06144 9.69865C5.316 10.1751 5.68422 10.5813 6.13344 10.8813C5.61246 10.8647 5.10298 10.724 4.6474 10.4707V10.513C4.64735 11.2706 4.90942 12.0049 5.38914 12.5913C5.86886 13.1777 6.53669 13.5801 7.2793 13.7301C6.79601 13.8609 6.28932 13.8802 5.7975 13.7865C6.00702 14.4384 6.41515 15.0084 6.96475 15.4168C7.51435 15.8253 8.17791 16.0516 8.86253 16.0641C7.70035 16.9765 6.26506 17.4713 4.78756 17.4692C4.52583 17.4692 4.26433 17.454 4.00439 17.4234C5.50415 18.3877 7.24996 18.8994 9.03297 18.8975C15.0687 18.8975 18.3682 13.8985 18.3682 9.56291C18.3682 9.42205 18.3647 9.27979 18.3584 9.13893C19.0002 8.67479 19.5542 8.10004 19.9944 7.44161L19.9958 7.4395Z" fill="#fff"/>
    </symbol>
    <symbol id="user-2-icon" viewBox="0 0 20 20">
      <path fill-rule="evenodd" clip-rule="evenodd" d="M6.667 7.5a3.334 3.334 0 1 1 6.667 0 3.334 3.334 0 0 1-6.667 0zm6.52 3.853a5 5 0 1 0-6.374 0c-2.658.936-4.313 3.02-4.313 5.315a.833.833 0 0 0 1.667 0c0-1.892 1.962-4.167 5.833-4.167 3.871 0 5.834 2.275 5.834 4.167a.833.833 0 0 0 1.667 0c0-2.295-1.654-4.38-4.314-5.315z" fill="currentColor"/>
    </symbol>
    <symbol id="user-icon" viewBox="0 0 48 48">
      <path d="M24 8a8 8 0 1 0 0 16 8 8 0 0 0 0-16zm-12 8c0-6.627 5.373-12 12-12s12 5.373 12 12-5.373 12-12 12-12-5.373-12-12zm4 20a6 6 0 0 0-6 6 2 2 0 1 1-4 0c0-5.523 4.477-10 10-10h16c5.523 0 10 4.477 10 10a2 2 0 1 1-4 0 6 6 0 0 0-6-6H16z" fill="currentColor"/>
    </symbol>
    <symbol id="warning-icon" viewBox="0 0 48 48">
      <path d="M24 28a2 2 0 0 1-2-2v-6a2 2 0 0 1 4 0v6a2 2 0 0 1-2 2zM21 33a3 3 0 1 1 6 0 3 3 0 0 1-6 0z" fill="currentColor"/><path d="M20.46 6.431c1.5-2.85 5.58-2.85 7.08 0l16.687 31.706c1.402 2.664-.53 5.863-3.54 5.863H7.313c-3.01 0-4.942-3.2-3.54-5.863L20.46 6.431zM40.687 40 24 8.294 7.313 40h33.374z" fill="currentColor"/>
    </symbol></svg>