<?xml version="1.0" encoding="UTF-8" ?>
<!DOCTYPE svg PUBLIC "-//W3C//DTD SVG 1.1//EN" "http://www.w3.org/Graphics/SVG/1.1/DTD/svg11.dtd">
<svg width="66pt" height="84pt" viewBox="0 0 66 84" version="1.1" xmlns="http://www.w3.org/2000/svg">
<g id="#fe4040ff">
<path fill="#fe4040" opacity="1.00" d=" M 6.76 0.00 L 8.96 0.00 C 9.76 1.12 10.51 2.29 11.25 3.45 C 13.68 3.90 14.94 2.10 15.54 0.00 L 15.98 0.00 C 21.76 5.74 24.63 13.49 29.09 20.15 C 31.11 23.66 31.25 27.92 33.21 31.46 C 34.91 34.56 39.12 35.00 40.79 38.06 C 42.63 41.63 44.69 45.08 47.29 48.16 C 46.97 53.25 47.58 58.92 51.25 62.78 C 55.36 65.78 60.97 69.14 66.00 66.17 L 66.00 70.11 C 64.18 71.91 63.63 74.33 63.66 76.81 C 63.74 80.13 60.27 81.75 57.48 82.29 C 57.03 82.72 56.11 83.57 55.65 84.00 L 54.69 84.00 C 52.54 83.26 50.28 82.66 48.34 81.45 C 46.26 79.04 44.56 76.17 41.60 74.71 C 40.87 75.97 40.86 78.46 38.95 78.55 C 32.07 78.40 25.71 74.55 21.90 68.86 C 23.78 67.88 25.66 66.91 27.50 65.84 C 29.38 66.94 30.89 68.72 33.00 69.39 C 34.31 67.80 32.11 66.60 31.02 65.86 C 29.21 64.72 27.09 63.94 25.74 62.20 C 23.84 59.94 23.14 56.97 21.45 54.57 C 19.71 55.13 17.95 55.61 16.18 56.09 C 13.56 54.57 14.46 51.45 14.27 48.95 C 14.57 46.93 12.97 45.51 11.96 43.98 C 12.22 43.63 12.75 42.94 13.02 42.59 C 12.09 40.42 11.25 38.21 10.46 35.98 C 9.13 36.75 7.80 37.52 6.46 38.27 C 5.91 36.19 6.70 34.17 7.19 32.17 C 8.12 31.75 9.04 31.33 9.96 30.90 C 8.11 29.09 6.69 26.56 4.08 25.78 C 2.72 26.01 1.38 26.35 0.00 26.47 L 0.00 25.74 C 0.99 24.70 2.02 23.70 3.05 22.71 C 2.07 20.80 1.08 18.89 0.00 17.03 L 0.00 15.33 C 1.90 14.71 3.81 14.09 5.71 13.44 C 5.51 11.92 5.30 10.41 5.08 8.89 C 5.53 8.62 6.43 8.09 6.88 7.82 C 7.31 5.23 8.09 2.49 6.76 0.00 Z" />
</g>
</svg>
