<?xml version="1.0" encoding="UTF-8" ?>
<!DOCTYPE svg PUBLIC "-//W3C//DTD SVG 1.1//EN" "http://www.w3.org/Graphics/SVG/1.1/DTD/svg11.dtd">
<svg width="63pt" height="55pt" viewBox="0 0 63 55" version="1.1" xmlns="http://www.w3.org/2000/svg">
<g id="#fe4040ff">
<path fill="#fe4040" opacity="1.00" d=" M 35.77 0.00 L 37.46 0.00 C 39.29 3.48 44.04 4.90 44.14 9.28 C 42.13 10.71 39.32 11.67 38.29 14.06 C 38.62 17.66 42.43 19.22 44.19 22.01 C 45.08 24.03 45.64 26.17 46.40 28.23 C 45.94 30.81 45.37 33.36 44.85 35.93 C 49.30 38.27 54.46 37.02 59.21 36.68 C 60.75 37.25 61.83 38.60 63.00 39.69 L 63.00 40.58 C 60.91 40.90 58.80 41.02 56.69 41.01 C 54.16 44.69 56.52 49.40 54.27 53.21 C 50.48 51.59 49.05 47.26 48.74 43.47 C 47.88 44.21 47.03 44.95 46.18 45.70 C 43.85 43.86 40.72 44.48 37.98 44.05 C 35.62 43.60 33.84 45.56 31.98 46.64 C 31.31 46.37 29.96 45.82 29.29 45.55 C 27.83 47.77 28.09 50.43 28.12 52.95 C 27.61 53.46 26.57 54.49 26.05 55.00 L 24.28 55.00 C 21.87 53.62 19.13 52.44 17.60 50.00 C 12.59 51.40 7.49 50.02 2.43 49.85 C 1.61 49.01 0.80 48.15 0.00 47.29 L 0.00 42.33 C 1.94 40.31 4.54 39.30 7.29 39.05 C 7.93 37.82 8.57 36.59 9.19 35.36 C 8.65 34.90 7.58 33.98 7.04 33.52 C 11.66 33.05 16.01 31.20 20.50 30.07 C 21.16 24.11 14.45 22.35 11.73 18.09 C 15.66 13.46 19.57 8.76 22.89 3.67 C 24.81 5.12 26.57 6.77 28.21 8.52 C 29.97 7.24 31.31 5.53 32.50 3.74 C 34.06 5.58 34.41 9.23 37.38 9.05 C 37.39 5.97 37.19 2.81 35.77 0.00 Z" />
</g>
</svg>
