<?xml version="1.0" encoding="UTF-8" ?>
<!DOCTYPE svg PUBLIC "-//W3C//DTD SVG 1.1//EN" "http://www.w3.org/Graphics/SVG/1.1/DTD/svg11.dtd">
<svg width="32pt" height="33pt" viewBox="0 0 32 33" version="1.1" xmlns="http://www.w3.org/2000/svg">
<g id="#fe4040ff">
<path fill="#fe4040" opacity="1.00" d=" M 8.45 0.00 L 16.93 0.00 C 17.59 0.50 18.91 1.49 19.56 1.99 C 19.87 1.73 20.48 1.23 20.78 0.98 C 22.20 3.56 23.20 6.53 25.39 8.58 C 26.54 8.49 27.67 8.25 28.80 8.05 C 29.13 8.45 29.79 9.25 30.12 9.66 C 30.74 10.87 31.36 12.09 32.00 13.29 L 32.00 13.66 C 31.20 13.76 29.61 13.95 28.82 14.05 C 29.25 14.50 30.11 15.40 30.54 15.84 C 28.78 18.82 27.14 22.26 23.47 23.17 C 21.44 27.87 14.84 27.93 13.36 33.00 L 9.26 33.00 C 8.83 31.75 8.46 30.49 8.07 29.23 C 7.65 28.81 6.81 27.97 6.39 27.56 C 6.58 24.73 5.35 22.26 3.44 20.27 C 4.00 19.28 4.56 18.29 5.12 17.30 C 4.12 14.72 3.20 11.64 0.00 11.18 L 0.00 10.78 C 2.16 8.23 2.34 4.92 2.24 1.75 C 2.97 1.95 4.45 2.36 5.18 2.57 C 6.25 1.68 7.34 0.83 8.45 0.00 Z" />
</g>
</svg>
