<?xml version="1.0" encoding="UTF-8" ?>
<!DOCTYPE svg PUBLIC "-//W3C//DTD SVG 1.1//EN" "http://www.w3.org/Graphics/SVG/1.1/DTD/svg11.dtd">
<svg width="85pt" height="72pt" viewBox="0 0 85 72" version="1.1" xmlns="http://www.w3.org/2000/svg">
<g id="#fe4040ff">
<path fill="#fe4040" opacity="1.00" d=" M 31.19 0.00 L 32.92 0.00 C 31.89 1.31 30.92 2.67 29.92 4.00 C 34.83 4.95 40.43 5.61 43.76 9.84 C 46.12 9.71 48.45 9.22 50.82 9.14 C 52.35 9.83 52.78 11.62 53.59 12.94 C 57.67 15.29 61.97 13.18 65.16 10.43 C 66.69 10.73 68.23 10.98 69.78 11.22 C 70.93 9.97 72.08 8.73 73.22 7.46 C 75.26 7.87 77.27 8.42 79.24 9.09 C 79.17 11.08 79.11 13.06 79.04 15.05 C 80.54 15.68 82.06 16.29 83.57 16.90 C 82.44 18.03 81.30 19.15 80.16 20.28 C 81.39 22.47 83.14 24.27 85.00 25.93 L 85.00 26.11 C 83.55 27.01 82.11 27.94 80.70 28.90 C 79.98 28.92 78.54 28.94 77.82 28.95 C 77.69 27.79 77.56 26.62 77.44 25.45 C 76.58 23.97 75.91 22.34 74.80 21.02 C 71.21 20.24 67.77 21.76 65.09 24.04 C 67.71 25.63 70.35 27.20 72.76 29.11 C 72.50 29.66 71.97 30.77 71.71 31.32 C 65.83 33.66 64.27 40.24 60.28 44.54 C 60.86 47.03 61.46 49.52 61.50 52.10 C 59.28 54.06 59.45 57.22 58.75 59.87 C 57.81 59.18 56.86 58.50 55.92 57.81 C 55.28 59.07 54.65 60.34 54.01 61.60 C 55.55 63.09 56.94 64.77 57.65 66.82 C 56.86 66.88 55.28 66.99 54.49 67.05 C 51.61 69.26 48.39 70.95 44.91 72.00 L 38.02 72.00 C 36.46 68.30 31.01 69.03 29.98 65.09 C 28.68 62.14 26.89 59.31 26.92 55.97 C 27.40 55.51 28.34 54.57 28.82 54.11 C 28.19 52.04 28.39 49.55 26.86 47.87 C 25.62 48.05 24.55 48.74 23.43 49.25 C 18.90 49.82 14.53 51.23 9.99 51.70 C 10.24 49.84 10.83 48.06 11.62 46.37 C 9.52 42.74 7.56 38.78 3.83 36.54 C 4.39 35.84 4.95 35.16 5.51 34.47 C 5.50 33.96 5.49 32.95 5.48 32.45 C 3.42 29.11 1.70 25.57 0.00 22.03 L 0.00 15.88 C 0.38 15.31 1.15 14.16 1.53 13.58 C 3.11 12.84 4.67 12.05 6.21 11.23 C 6.18 10.47 6.14 8.96 6.12 8.20 C 7.38 7.69 8.65 7.18 9.88 6.58 C 10.64 4.98 9.37 3.41 9.01 1.89 C 13.67 4.09 18.69 2.61 23.31 1.18 C 25.78 -0.35 28.66 1.26 31.19 0.00 Z" />
</g>
</svg>
