<?xml version="1.0" encoding="UTF-8" ?>
<!DOCTYPE svg PUBLIC "-//W3C//DTD SVG 1.1//EN" "http://www.w3.org/Graphics/SVG/1.1/DTD/svg11.dtd">
<svg width="69pt" height="57pt" viewBox="0 0 69 57" version="1.1" xmlns="http://www.w3.org/2000/svg">
<g id="#fe4040ff">
<path fill="#fe4040" opacity="1.00" d=" M 36.57 0.00 L 39.24 0.00 C 43.25 0.93 47.61 2.60 51.44 0.10 C 51.67 0.71 52.13 1.91 52.37 2.52 C 55.96 4.74 59.89 6.31 63.66 8.21 C 64.19 9.48 64.73 10.75 65.26 12.02 C 63.77 14.17 64.25 16.45 65.79 18.42 C 66.61 20.92 67.46 23.44 69.00 25.61 L 69.00 29.18 C 68.24 32.36 67.58 35.57 66.45 38.64 C 66.21 40.82 65.92 43.00 65.61 45.17 C 60.90 48.07 56.49 51.43 52.21 54.92 C 51.15 54.42 50.07 53.97 48.98 53.57 C 46.98 54.56 45.20 55.91 43.26 57.00 L 42.46 57.00 C 41.70 55.88 40.95 54.77 40.19 53.66 C 39.52 54.14 38.17 55.09 37.50 55.57 C 34.41 52.39 38.31 48.78 38.45 45.20 C 34.63 43.09 30.00 42.45 27.10 38.88 C 27.12 37.30 27.13 35.71 27.14 34.12 C 24.47 34.72 22.05 35.96 20.14 37.93 C 20.58 42.64 18.06 47.01 14.10 49.45 C 12.84 48.19 11.57 46.93 10.32 45.67 C 6.93 46.55 3.61 47.84 0.88 50.10 C 0.61 48.63 0.31 47.17 0.00 45.70 L 0.00 41.23 C 1.83 36.36 4.76 31.44 3.70 26.03 C 3.87 25.30 4.23 23.83 4.41 23.10 C 6.18 22.30 7.98 21.60 9.67 20.66 C 11.47 19.12 12.37 16.76 14.24 15.29 C 16.34 13.71 18.59 12.34 20.71 10.78 C 19.67 8.93 17.85 7.24 18.20 4.91 C 19.94 3.17 22.39 2.49 24.59 1.54 C 24.77 3.16 24.96 4.77 25.14 6.39 C 27.99 6.26 30.82 5.62 33.25 4.06 C 33.26 3.26 33.28 1.67 33.29 0.88 C 34.38 0.57 35.47 0.28 36.57 0.00 Z" />
</g>
</svg>
