<?xml version="1.0" encoding="UTF-8" ?>
<!DOCTYPE svg PUBLIC "-//W3C//DTD SVG 1.1//EN" "http://www.w3.org/Graphics/SVG/1.1/DTD/svg11.dtd">
<svg width="72pt" height="68pt" viewBox="0 0 72 68" version="1.1" xmlns="http://www.w3.org/2000/svg">
<g id="#fe4040ff">
<path fill="#fe4040" opacity="1.00" d=" M 34.88 0.00 L 36.37 0.00 C 39.28 0.54 40.82 3.62 43.77 4.09 C 46.31 4.49 48.30 6.07 50.18 7.71 C 52.68 10.00 56.42 9.38 59.22 11.13 C 63.27 13.40 67.85 14.42 72.00 16.46 L 72.00 21.05 C 71.34 21.73 70.68 22.40 70.00 23.06 C 70.35 24.02 70.75 24.96 71.20 25.88 C 70.08 26.94 68.97 28.01 67.89 29.11 C 67.94 32.80 65.99 36.14 66.02 39.86 C 65.24 42.24 66.82 44.40 66.90 46.70 C 65.62 48.83 63.97 50.78 63.39 53.26 C 63.85 53.73 64.76 54.67 65.22 55.14 C 63.42 55.97 61.42 56.55 59.99 57.99 C 58.85 59.71 57.97 61.60 56.95 63.40 C 54.24 62.92 51.38 63.26 48.82 62.13 C 46.34 63.48 43.83 64.94 40.96 65.17 C 39.32 66.17 37.63 67.08 35.95 68.00 L 34.68 68.00 C 33.55 67.28 32.44 66.51 31.32 65.77 C 30.82 63.27 30.67 60.71 30.75 58.17 C 28.09 58.27 25.36 58.09 23.41 56.03 C 23.10 56.26 22.48 56.71 22.16 56.93 C 13.62 57.91 6.05 52.79 0.00 47.36 L 0.00 39.63 C 1.71 38.85 3.31 37.55 5.22 37.40 C 7.37 37.69 9.51 38.12 11.69 38.14 C 12.65 35.68 14.29 33.62 16.43 32.09 C 16.98 30.39 17.54 28.70 18.19 27.04 C 18.56 26.86 19.31 26.52 19.69 26.35 C 21.60 29.58 24.33 32.30 27.94 33.56 C 31.19 32.34 34.21 29.76 34.08 25.99 C 33.48 22.14 32.51 17.92 34.84 14.41 C 34.92 9.61 34.84 4.80 34.88 0.00 Z" />
</g>
</svg>
