<?xml version="1.0" encoding="UTF-8" ?>
<!DOCTYPE svg PUBLIC "-//W3C//DTD SVG 1.1//EN" "http://www.w3.org/Graphics/SVG/1.1/DTD/svg11.dtd">
<svg width="47pt" height="57pt" viewBox="0 0 47 57" version="1.1" xmlns="http://www.w3.org/2000/svg">
<g id="#fe4040ff">
<path fill="#fe4040" opacity="1.00" d=" M 20.55 0.00 L 22.32 0.00 C 23.28 1.59 24.12 3.25 25.06 4.85 C 25.08 5.67 25.13 7.33 25.15 8.16 C 28.13 8.82 30.99 8.02 33.05 5.73 C 34.50 6.08 35.96 6.43 37.41 6.77 C 32.79 7.74 31.77 12.79 29.51 16.22 C 28.87 16.04 27.60 15.66 26.97 15.48 C 25.94 16.46 24.91 17.45 23.88 18.43 C 23.89 19.22 23.91 20.81 23.91 21.61 C 24.77 20.96 25.63 20.32 26.51 19.70 C 26.55 20.28 26.63 21.43 26.67 22.01 C 27.39 22.02 28.84 22.02 29.56 22.02 C 30.03 22.53 30.97 23.53 31.44 24.03 C 33.43 24.04 35.42 24.04 37.40 24.05 C 37.18 24.95 36.73 26.76 36.51 27.67 C 37.84 28.50 39.27 28.97 40.82 28.39 C 40.66 32.78 44.27 35.78 46.99 38.71 C 45.76 42.20 43.32 45.01 41.17 47.95 C 40.52 47.53 39.87 47.10 39.22 46.68 C 38.93 47.40 38.35 48.85 38.05 49.57 C 38.03 50.28 37.99 51.71 37.96 52.42 C 34.17 49.72 29.54 49.82 25.20 50.81 C 20.90 49.32 16.30 50.29 12.03 48.72 C 11.54 49.12 10.57 49.90 10.08 50.29 C 10.55 51.36 11.02 52.43 11.47 53.51 C 11.27 54.38 10.87 56.13 10.68 57.00 L 10.09 57.00 C 8.38 54.65 7.07 52.04 5.99 49.34 C 4.95 49.79 3.91 50.24 2.87 50.70 C 1.91 50.27 0.96 49.83 0.00 49.40 L 0.00 48.30 C 1.99 46.74 4.49 46.24 6.88 45.62 C 5.40 43.20 2.70 41.24 3.00 38.11 C 4.50 38.23 6.96 40.12 7.74 37.96 C 8.19 36.19 8.39 34.36 8.60 32.55 C 9.08 32.31 10.03 31.83 10.51 31.59 C 10.14 28.90 9.74 26.21 9.05 23.57 C 10.83 21.45 12.37 19.15 13.64 16.69 C 15.34 13.13 19.34 11.75 21.93 8.99 C 20.12 6.09 17.03 4.63 14.20 2.95 C 16.17 1.69 18.21 0.44 20.55 0.00 Z" />
</g>
</svg>
