<?xml version="1.0" encoding="UTF-8" ?>
<!DOCTYPE svg PUBLIC "-//W3C//DTD SVG 1.1//EN" "http://www.w3.org/Graphics/SVG/1.1/DTD/svg11.dtd">
<svg width="96pt" height="180pt" viewBox="0 0 96 180" version="1.1" xmlns="http://www.w3.org/2000/svg">
<g id="#fe4040ff">
<path fill="#fe4040" opacity="1.00" d=" M 14.59 0.75 C 17.30 0.74 20.11 0.18 22.76 0.96 C 27.00 3.28 31.17 5.94 34.07 9.89 C 39.78 14.77 47.35 16.53 53.93 19.91 C 52.81 21.38 50.66 22.50 50.90 24.63 C 52.25 25.47 53.76 26.05 55.06 26.98 C 56.74 28.67 57.94 30.90 60.27 31.81 C 60.97 30.88 61.61 29.93 62.22 28.96 C 62.09 26.11 58.78 25.01 58.52 22.22 C 60.63 22.38 62.72 22.75 64.83 22.91 C 66.38 22.46 67.81 20.09 69.42 21.60 C 71.72 22.89 73.26 25.09 74.85 27.13 C 73.91 29.87 73.03 32.63 71.76 35.24 C 74.11 34.70 76.51 34.74 78.88 35.15 C 81.70 33.59 84.75 32.55 87.90 31.93 C 89.59 33.08 91.39 34.39 91.58 36.63 C 92.19 40.35 93.73 43.77 96.00 46.78 L 96.00 46.90 C 94.77 47.96 93.55 49.03 92.35 50.10 C 87.62 48.63 82.61 48.36 77.96 46.61 C 74.95 46.80 75.11 50.90 73.03 52.55 C 71.74 50.95 70.53 49.27 69.05 47.84 C 68.19 48.54 67.34 49.27 66.52 50.02 C 66.56 50.71 66.64 52.07 66.68 52.75 C 65.00 54.29 63.46 55.99 62.30 57.96 C 63.59 57.70 64.88 57.41 66.16 57.11 C 65.75 63.20 67.63 70.31 73.13 73.68 C 73.44 75.05 73.76 76.42 74.07 77.79 C 71.62 77.81 69.16 77.98 66.74 78.39 C 63.30 79.02 59.83 78.02 56.38 78.56 C 55.76 79.23 54.53 80.58 53.91 81.25 C 56.69 82.50 59.64 84.79 62.84 83.93 C 65.71 82.70 69.05 79.19 72.17 81.86 C 76.78 86.43 78.92 93.05 84.45 96.78 C 79.06 98.32 72.91 96.63 68.01 99.91 C 65.97 101.09 66.02 103.68 65.76 105.72 C 66.31 106.19 67.40 107.13 67.95 107.60 C 67.49 108.51 67.02 109.42 66.55 110.32 C 66.79 113.77 68.42 116.82 69.35 120.07 C 68.30 122.31 66.26 120.41 64.81 119.83 C 64.24 121.27 63.66 122.70 63.08 124.13 C 62.60 123.88 61.63 123.38 61.14 123.13 C 59.38 125.21 57.10 125.82 54.58 124.60 C 53.49 125.87 52.61 127.30 51.97 128.85 C 53.52 133.31 54.19 138.12 53.63 142.83 C 53.48 144.75 51.66 145.65 50.13 146.37 C 49.69 148.54 49.18 150.71 48.51 152.83 C 50.15 155.64 51.42 159.56 55.20 159.97 C 51.62 161.76 50.91 166.01 52.44 169.42 C 51.20 172.20 48.43 171.45 46.01 171.11 C 43.51 171.90 41.86 174.22 39.98 175.93 C 40.02 177.29 40.06 178.64 40.11 180.00 L 39.09 180.00 C 39.09 179.39 39.11 178.16 39.12 177.55 C 34.89 179.17 30.50 178.66 26.10 178.65 C 26.07 176.60 26.17 174.21 24.39 172.78 C 22.02 170.67 19.64 168.49 16.81 167.00 C 16.67 165.34 16.50 163.68 16.18 162.04 C 11.92 161.83 7.72 160.99 3.49 160.46 C 2.31 160.13 1.15 159.75 0.00 159.34 L 0.00 156.60 C 3.62 151.51 10.56 151.47 15.41 148.04 C 14.92 146.40 14.42 144.77 13.94 143.12 C 12.26 142.73 10.58 142.34 8.90 141.98 C 8.30 140.07 7.70 138.17 7.13 136.26 C 8.54 130.91 8.35 125.25 8.42 119.75 C 11.11 119.59 13.73 118.95 16.23 117.98 C 15.66 114.27 14.35 110.68 13.99 106.95 C 14.47 103.66 15.47 100.42 15.22 97.06 C 14.87 82.71 15.81 68.32 14.57 54.01 C 14.58 36.26 14.56 18.50 14.59 0.75 Z" />
</g>
</svg>
