<?xml version="1.0" encoding="UTF-8" ?>
<!DOCTYPE svg PUBLIC "-//W3C//DTD SVG 1.1//EN" "http://www.w3.org/Graphics/SVG/1.1/DTD/svg11.dtd">
<svg width="45pt" height="49pt" viewBox="0 0 45 49" version="1.1" xmlns="http://www.w3.org/2000/svg">
<g id="#fe4040ff">
<path fill="#fe4040" opacity="1.00" d=" M 22.92 0.00 L 23.13 0.00 C 23.98 2.58 24.77 5.19 25.69 7.75 C 25.78 9.03 25.87 10.31 25.97 11.59 C 28.14 9.95 30.19 8.14 32.41 6.55 C 36.10 5.47 39.38 3.45 42.68 1.54 C 43.28 3.49 43.95 5.43 45.00 7.19 L 45.00 8.18 C 43.95 9.51 42.83 10.77 41.70 12.03 C 39.11 11.99 36.52 11.97 33.93 11.94 C 31.11 16.18 27.75 20.18 25.82 24.92 C 25.23 28.99 30.61 27.89 33.13 28.12 C 33.12 28.80 33.09 30.17 33.07 30.85 C 34.70 32.65 36.93 34.29 37.13 36.92 C 36.97 39.85 36.13 42.70 35.77 45.61 C 34.83 46.59 33.88 47.58 32.96 48.59 C 32.94 46.10 32.92 43.60 32.75 41.12 C 31.38 42.96 30.14 44.91 29.08 46.95 C 27.86 46.58 26.65 46.20 25.44 45.82 C 25.30 44.66 25.17 43.50 25.04 42.34 C 24.61 43.40 24.19 44.46 23.78 45.53 C 21.38 46.68 18.97 47.79 16.60 49.00 L 15.65 49.00 C 15.68 48.23 15.72 46.68 15.75 45.91 C 14.54 45.14 13.33 44.39 12.10 43.65 C 11.02 45.38 9.91 47.08 8.71 48.73 C 7.36 46.37 6.87 43.75 7.14 41.06 C 6.35 40.53 5.56 40.01 4.76 39.48 C 7.00 38.98 8.88 37.72 10.51 36.15 C 9.56 35.17 8.61 34.20 7.66 33.22 C 6.45 32.95 5.25 32.66 4.05 32.35 C 4.48 31.64 5.34 30.21 5.76 29.50 C 5.77 29.00 5.79 28.02 5.79 27.53 C 4.30 25.30 3.56 20.77 0.00 22.51 L 0.00 21.91 C 0.73 19.98 1.47 18.05 2.16 16.11 C 4.13 16.34 6.10 16.62 8.06 16.93 C 9.55 16.19 11.03 15.43 12.49 14.65 C 10.32 12.19 7.37 10.84 4.16 10.32 C 4.87 8.44 5.55 6.55 6.19 4.64 C 9.47 3.13 12.97 1.25 16.63 2.71 C 18.72 1.81 20.81 0.88 22.92 0.00 Z" />
</g>
</svg>
