<?xml version="1.0" encoding="UTF-8" ?>
<!DOCTYPE svg PUBLIC "-//W3C//DTD SVG 1.1//EN" "http://www.w3.org/Graphics/SVG/1.1/DTD/svg11.dtd">
<svg width="64pt" height="53pt" viewBox="0 0 64 53" version="1.1" xmlns="http://www.w3.org/2000/svg">
<g id="#fe4040ff">
<path fill="#fe4040" opacity="1.00" d=" M 36.46 0.00 L 37.93 0.00 C 40.27 1.45 42.71 2.73 44.95 4.33 C 45.88 5.73 44.73 7.51 44.68 9.02 C 46.37 9.03 48.07 9.05 49.77 9.08 C 49.16 10.35 48.57 11.62 47.90 12.85 C 50.66 12.96 52.03 15.21 53.64 17.06 C 50.89 18.06 52.76 19.70 54.10 20.95 C 54.09 21.61 54.07 22.93 54.06 23.58 C 54.84 24.39 55.63 25.19 56.41 25.99 C 57.04 26.02 58.28 26.08 58.90 26.11 C 60.50 27.94 62.19 29.68 64.00 31.29 L 64.00 31.87 C 61.34 35.56 62.53 40.21 62.39 44.43 C 60.49 45.38 58.47 46.07 56.33 46.11 C 55.22 47.56 54.12 49.01 53.01 50.45 C 51.71 48.77 50.43 47.06 49.07 45.43 C 49.08 44.86 49.11 43.72 49.12 43.15 C 47.29 42.02 45.53 40.78 43.78 39.54 C 43.21 41.42 44.19 43.17 44.77 44.89 C 43.71 47.19 43.95 49.74 43.94 52.19 C 42.81 49.82 41.68 47.44 40.62 45.04 C 40.00 44.90 38.76 44.63 38.14 44.49 C 37.67 43.38 37.21 42.27 36.76 41.15 C 34.96 42.08 33.06 42.76 31.07 43.16 C 31.04 44.58 31.01 46.00 31.00 47.43 C 32.20 48.64 33.35 49.91 34.47 51.21 C 31.62 51.66 29.59 48.89 27.00 48.07 C 25.76 49.68 24.61 51.35 23.44 53.00 L 23.40 53.00 C 21.46 52.84 21.17 50.86 20.33 49.57 C 18.96 46.44 15.69 44.82 13.92 41.98 C 12.45 39.54 11.34 36.91 10.00 34.40 C 8.13 34.16 6.25 33.94 4.37 33.70 C 3.98 32.58 3.59 31.46 3.20 30.34 C 1.72 28.93 0.35 27.32 0.00 25.23 L 0.00 24.77 C 3.43 22.25 9.10 21.32 9.28 16.09 C 11.37 15.89 13.30 15.06 15.19 14.19 C 17.32 13.18 19.58 14.44 21.66 14.98 C 20.84 16.68 20.18 18.45 19.82 20.30 C 21.60 20.62 23.38 21.16 25.21 21.04 C 29.12 18.13 25.27 12.06 29.14 9.11 C 32.24 6.66 34.23 3.20 36.46 0.00 Z" />
</g>
</svg>
