<?xml version="1.0" encoding="UTF-8" ?>
<!DOCTYPE svg PUBLIC "-//W3C//DTD SVG 1.1//EN" "http://www.w3.org/Graphics/SVG/1.1/DTD/svg11.dtd">
<svg width="46pt" height="32pt" viewBox="0 0 46 32" version="1.1" xmlns="http://www.w3.org/2000/svg">
<g id="#fe4040ff">
<path fill="#fe4040" opacity="1.00" d=" M 0.00 0.00 L 2.47 0.00 C 6.94 1.85 9.93 6.63 14.95 7.15 C 15.32 5.93 15.65 4.70 15.96 3.47 C 16.44 3.87 17.39 4.66 17.87 5.06 C 20.53 3.93 23.55 2.83 26.43 3.84 C 28.44 4.46 30.42 6.80 32.47 4.88 C 34.16 5.90 35.53 7.33 36.56 9.01 C 37.90 8.86 39.25 8.69 40.59 8.52 C 40.27 10.06 39.98 11.60 39.73 13.15 C 41.83 14.55 44.06 15.74 46.00 17.37 L 46.00 17.56 C 44.34 18.45 43.05 19.79 42.45 21.61 C 42.13 21.25 41.47 20.52 41.15 20.16 C 39.80 21.63 38.57 23.22 37.78 25.07 C 34.71 25.00 31.71 24.29 28.74 23.56 C 28.93 25.55 29.18 27.55 29.67 29.49 C 29.68 30.12 29.69 31.37 29.69 32.00 L 29.23 32.00 C 27.96 30.46 26.93 28.53 25.06 27.65 C 22.39 27.97 20.57 30.14 18.86 32.00 L 18.33 32.00 C 16.59 31.12 14.76 30.45 12.83 30.16 C 11.42 28.46 10.89 26.34 10.72 24.18 C 9.50 23.19 8.27 22.21 7.02 21.26 C 7.88 19.86 8.75 18.46 9.64 17.08 C 9.22 15.72 9.71 13.71 8.35 12.84 C 5.00 11.04 3.55 7.18 0.00 5.64 L 0.00 5.52 C 0.86 5.45 2.57 5.30 3.42 5.23 C 2.28 3.66 1.11 2.11 0.00 0.53 L 0.00 0.00 Z" />
</g>
</svg>
