<?xml version="1.0" encoding="UTF-8" ?>
<!DOCTYPE svg PUBLIC "-//W3C//DTD SVG 1.1//EN" "http://www.w3.org/Graphics/SVG/1.1/DTD/svg11.dtd">
<svg width="94pt" height="88pt" viewBox="0 0 94 88" version="1.1" xmlns="http://www.w3.org/2000/svg">
<g id="#fe4040ff">
<path fill="#fe4040" opacity="1.00" d=" M 82.70 0.00 L 83.59 0.00 C 88.85 2.14 90.24 8.04 94.00 11.75 L 94.00 15.47 C 91.54 23.55 87.06 31.11 80.20 36.20 C 76.25 40.90 72.35 46.23 71.35 52.42 C 65.78 57.60 58.78 60.98 53.31 66.27 C 48.70 71.74 41.02 72.23 34.62 74.24 C 33.38 73.68 32.12 73.19 30.82 72.80 C 29.78 74.57 28.70 76.31 27.57 78.02 C 27.97 78.50 28.76 79.46 29.16 79.94 C 28.08 81.89 26.84 83.83 24.50 84.30 C 24.40 81.70 24.09 79.04 21.25 78.12 C 17.21 81.77 12.95 85.35 8.19 88.00 L 6.07 88.00 C 4.52 87.15 2.97 86.32 1.37 85.57 C 1.03 84.86 0.34 83.44 0.00 82.73 L 0.00 82.32 C 0.34 81.52 1.03 79.93 1.38 79.13 C 3.92 78.69 6.33 77.75 8.82 77.15 C 13.87 76.74 17.81 73.26 22.22 71.15 C 24.36 69.68 27.08 70.32 29.42 69.49 C 30.73 68.49 31.66 67.04 33.10 66.20 C 34.93 65.46 36.81 66.35 38.54 66.91 C 41.33 66.69 44.09 66.12 46.68 65.06 C 46.35 61.99 48.00 59.39 49.14 56.69 C 49.52 54.59 49.33 52.44 49.39 50.31 C 50.82 48.18 52.01 45.91 53.26 43.67 C 56.81 42.45 59.12 39.26 62.22 37.29 C 62.01 34.49 62.69 31.79 63.93 29.30 C 65.85 28.99 67.74 28.59 69.62 28.10 C 70.74 25.15 72.13 22.27 72.58 19.13 C 72.64 17.98 73.53 17.19 74.14 16.30 C 75.45 16.03 76.95 16.10 78.06 15.22 C 80.96 13.34 79.88 9.36 80.78 6.46 C 81.30 6.10 82.34 5.38 82.87 5.03 C 82.80 3.35 82.75 1.68 82.70 0.00 Z" />
</g>
</svg>
