<?xml version="1.0" encoding="UTF-8" ?>
<!DOCTYPE svg PUBLIC "-//W3C//DTD SVG 1.1//EN" "http://www.w3.org/Graphics/SVG/1.1/DTD/svg11.dtd">
<svg width="73pt" height="50pt" viewBox="0 0 73 50" version="1.1" xmlns="http://www.w3.org/2000/svg">
<g id="#fe4040ff">
<path fill="#fe4040" opacity="1.00" d=" M 64.98 0.08 C 67.68 1.18 70.53 1.99 73.00 3.57 L 73.00 4.32 C 71.93 6.85 70.89 9.39 69.97 11.98 C 68.32 12.02 66.66 12.04 65.00 12.05 C 63.14 14.76 63.26 18.12 62.18 21.08 C 59.55 23.55 56.54 25.65 53.42 27.47 C 52.41 29.37 51.38 31.28 50.09 33.03 C 50.39 37.12 49.77 41.20 47.34 44.61 C 47.33 45.93 47.33 47.24 47.33 48.56 C 46.41 48.92 44.58 49.64 43.67 50.00 L 39.68 50.00 C 35.91 50.45 34.60 47.03 34.12 43.97 C 32.64 44.45 30.93 45.49 29.42 44.48 C 27.23 42.69 26.88 39.67 26.41 37.07 C 23.64 37.98 21.29 39.66 19.78 42.17 C 19.37 41.74 18.55 40.87 18.14 40.44 C 17.43 41.36 16.72 42.28 16.01 43.20 C 14.62 43.49 13.23 43.79 11.85 44.11 C 9.58 40.25 6.97 36.42 2.44 35.03 C 3.80 32.50 1.71 30.87 0.00 29.30 L 0.00 28.46 C 0.29 27.22 0.58 25.97 0.88 24.72 C 1.85 24.39 2.83 24.08 3.82 23.77 C 4.47 26.55 4.88 29.37 5.40 32.17 C 8.32 32.25 11.02 31.12 12.82 28.79 C 14.50 26.41 17.59 26.86 20.09 26.27 C 22.67 26.91 26.11 27.36 27.80 24.75 C 28.12 22.12 27.86 19.40 28.77 16.86 C 29.33 17.36 30.43 18.36 30.98 18.86 C 32.06 18.32 33.14 17.77 34.23 17.23 C 33.97 15.14 33.60 13.06 33.44 10.96 C 34.66 8.83 37.77 9.75 37.63 12.31 C 39.66 11.36 41.50 10.07 43.28 8.73 C 42.57 8.02 41.85 7.32 41.14 6.62 C 43.35 6.11 45.60 5.78 47.88 5.69 C 50.41 8.66 54.59 11.85 58.61 9.88 C 60.11 7.34 60.99 4.29 63.80 2.80 C 64.10 2.12 64.69 0.76 64.98 0.08 Z" />
</g>
</svg>
