<?xml version="1.0" encoding="UTF-8" ?>
<!DOCTYPE svg PUBLIC "-//W3C//DTD SVG 1.1//EN" "http://www.w3.org/Graphics/SVG/1.1/DTD/svg11.dtd">
<svg width="69pt" height="55pt" viewBox="0 0 69 55" version="1.1" xmlns="http://www.w3.org/2000/svg">
<g id="#fe4040ff">
<path fill="#fe4040" opacity="1.00" d=" M 38.64 0.00 L 44.51 0.00 C 44.12 0.35 43.33 1.06 42.93 1.42 C 43.79 2.82 44.65 4.23 45.51 5.65 C 48.75 7.41 53.19 7.53 55.09 11.14 C 54.31 12.32 53.54 13.51 52.77 14.70 C 52.79 16.19 52.80 17.68 52.81 19.17 C 54.41 19.16 56.01 19.14 57.62 19.12 C 58.08 20.23 58.56 21.34 59.06 22.45 C 61.25 21.31 63.30 19.96 65.45 18.76 C 66.77 17.87 67.96 19.44 69.00 20.04 L 69.00 20.20 C 66.73 25.38 65.87 31.52 61.59 35.56 C 58.61 39.29 52.44 37.88 50.18 42.58 C 49.17 42.96 48.15 43.33 47.14 43.70 C 47.18 44.34 47.25 45.61 47.29 46.25 C 46.01 46.53 44.74 46.79 43.46 47.05 C 42.32 48.43 41.17 49.80 40.01 51.16 C 40.58 51.51 41.71 52.21 42.28 52.56 C 41.60 53.38 40.92 54.19 40.22 55.00 L 39.57 55.00 C 39.44 54.29 39.18 52.87 39.05 52.16 C 33.49 51.53 27.93 50.67 22.31 50.92 C 22.04 50.41 21.50 49.40 21.23 48.90 C 19.84 48.87 18.46 48.85 17.07 48.82 C 17.07 48.04 17.07 46.48 17.06 45.70 C 13.80 40.54 7.87 37.49 2.03 36.30 C 1.34 35.31 0.66 34.31 -0.00 33.30 L 0.00 30.89 C 1.77 27.78 3.17 24.49 4.55 21.20 C 7.79 23.04 11.27 21.25 14.44 20.20 C 16.75 19.37 17.50 16.79 18.99 15.07 C 20.82 12.40 24.07 11.48 26.87 10.21 C 28.07 11.75 29.40 13.20 30.90 14.46 C 35.11 12.16 38.07 7.62 37.43 2.71 C 38.11 2.04 39.47 0.69 40.15 0.01 L 38.64 0.00 Z" />
</g>
</svg>
