<?xml version="1.0" encoding="UTF-8" ?>
<!DOCTYPE svg PUBLIC "-//W3C//DTD SVG 1.1//EN" "http://www.w3.org/Graphics/SVG/1.1/DTD/svg11.dtd">
<svg width="102pt" height="93pt" viewBox="0 0 102 93" version="1.1" xmlns="http://www.w3.org/2000/svg">
<g id="#fe4040ff">
<path fill="#fe4040" opacity="1.00" d=" M 23.90 0.00 L 25.09 0.00 C 28.60 3.82 34.16 2.72 38.16 5.59 C 39.80 6.52 41.17 7.82 42.54 9.10 C 44.42 8.71 46.27 8.02 48.21 8.14 C 50.71 8.65 52.68 10.35 54.23 12.29 C 56.21 12.11 58.12 11.58 60.00 10.94 C 60.53 12.51 61.04 14.09 61.50 15.68 C 61.91 17.30 62.35 18.92 62.78 20.53 C 66.12 20.62 69.19 19.07 72.51 19.04 C 72.81 20.22 73.11 21.39 73.41 22.57 C 74.48 23.00 75.55 23.43 76.61 23.87 C 77.67 23.88 78.73 23.89 79.78 23.89 C 81.18 27.63 82.61 31.59 85.84 34.18 C 88.73 36.57 90.57 39.95 91.20 43.63 C 95.60 46.46 97.61 51.60 102.00 54.39 L 102.00 68.71 C 101.23 72.36 99.77 76.92 102.00 80.19 L 102.00 81.87 C 100.02 83.96 98.52 87.95 95.01 87.34 C 91.25 86.72 90.38 82.04 87.04 80.74 C 85.49 80.93 85.30 82.52 84.79 83.69 C 83.70 87.52 80.34 89.95 78.03 93.00 L 77.09 93.00 C 74.99 91.10 71.70 91.23 69.57 93.00 L 67.56 93.00 C 64.98 91.64 62.45 90.01 60.96 87.41 C 61.92 86.09 62.80 84.71 63.62 83.29 C 61.91 82.51 59.76 82.26 58.49 80.73 C 57.58 79.17 57.23 77.37 56.38 75.78 C 55.23 74.90 53.85 74.40 52.57 73.76 C 53.07 72.07 53.61 70.39 54.15 68.70 C 52.33 67.54 50.69 66.14 49.18 64.61 C 49.86 60.58 45.78 58.40 42.26 58.69 C 41.43 60.97 40.51 63.26 38.88 65.10 C 37.80 65.01 36.72 64.93 35.65 64.84 C 34.88 64.62 33.35 64.18 32.58 63.96 C 33.05 63.45 34.01 62.44 34.48 61.93 C 32.95 60.63 31.39 59.37 29.84 58.10 C 30.91 55.63 31.77 53.01 31.23 50.28 C 27.12 49.24 23.96 46.40 22.11 42.63 C 21.94 40.52 21.49 38.45 21.01 36.39 C 18.16 36.27 15.14 36.84 12.41 35.84 C 11.39 34.31 10.75 32.57 10.00 30.90 C 9.36 30.94 8.09 31.01 7.45 31.05 C 4.64 29.27 3.88 25.79 1.52 23.57 C 2.07 22.74 2.63 21.92 3.18 21.10 C 2.08 19.05 1.02 16.99 0.00 14.91 L 0.00 13.83 C 0.83 12.31 1.66 10.80 2.47 9.27 C 4.57 8.15 6.63 6.85 8.08 4.91 C 10.30 5.44 13.01 8.31 14.99 5.96 C 17.36 3.07 21.36 2.67 23.90 0.00 Z" />
</g>
</svg>
