<?xml version="1.0" encoding="UTF-8" ?>
<!DOCTYPE svg PUBLIC "-//W3C//DTD SVG 1.1//EN" "http://www.w3.org/Graphics/SVG/1.1/DTD/svg11.dtd">
<svg width="43pt" height="74pt" viewBox="0 0 43 74" version="1.1" xmlns="http://www.w3.org/2000/svg">
<g id="#fe4040ff">
<path fill="#fe4040" opacity="1.00" d=" M 20.59 0.00 L 22.41 0.00 C 25.38 1.28 26.65 4.21 27.83 6.98 C 29.13 6.56 30.98 5.34 32.12 6.77 C 33.60 8.56 34.43 10.77 35.37 12.87 C 37.82 14.58 40.39 16.11 43.00 17.56 L 43.00 17.97 C 41.89 18.52 40.77 19.07 39.65 19.59 C 39.15 20.57 38.65 21.54 38.15 22.52 C 38.97 24.85 39.55 27.26 40.05 29.68 C 38.63 30.44 37.26 31.30 35.91 32.19 C 35.22 31.55 34.52 30.90 33.83 30.26 C 33.14 30.23 31.75 30.15 31.06 30.11 C 29.54 32.49 30.15 35.37 30.08 38.02 C 30.57 39.84 30.98 41.67 31.32 43.51 C 30.19 42.95 29.07 42.37 27.96 41.78 C 24.15 43.40 19.79 45.14 18.80 49.66 C 20.61 51.57 21.81 53.91 22.38 56.48 C 18.82 56.28 19.90 59.63 20.20 61.89 C 21.05 62.32 21.90 62.74 22.75 63.17 C 22.43 65.53 22.28 67.92 22.09 70.29 C 20.31 70.97 19.16 72.41 18.23 74.00 L 16.05 74.00 C 10.11 73.19 4.95 70.28 0.00 67.08 L 0.00 64.32 C 2.35 64.29 1.31 61.23 0.00 60.41 L 0.00 57.16 C 0.61 55.47 0.95 53.71 1.21 51.94 C 3.92 49.31 7.27 46.48 6.30 42.23 C 4.48 41.56 2.60 41.00 0.92 40.01 C 1.78 35.87 2.40 31.70 0.83 27.62 C 1.94 26.60 3.05 25.58 4.16 24.56 C 4.21 23.49 4.26 22.43 4.31 21.36 C 6.17 20.11 7.86 18.52 9.99 17.75 C 12.03 18.50 13.63 20.73 15.98 20.36 C 17.01 19.61 18.01 18.80 18.97 17.94 C 17.82 16.22 16.81 14.42 16.07 12.49 C 17.38 12.34 18.70 12.21 20.02 12.09 L 20.02 10.70 C 19.49 10.68 18.42 10.65 17.88 10.64 C 18.13 9.95 18.63 8.57 18.88 7.88 C 18.34 7.45 17.27 6.59 16.74 6.16 C 17.73 6.14 19.73 6.12 20.73 6.11 C 20.40 4.09 19.77 2.00 20.59 0.00 Z" />
</g>
</svg>
