<?xml version="1.0" encoding="UTF-8" ?>
<!DOCTYPE svg PUBLIC "-//W3C//DTD SVG 1.1//EN" "http://www.w3.org/Graphics/SVG/1.1/DTD/svg11.dtd">
<svg width="136pt" height="123pt" viewBox="0 0 136 123" version="1.1" xmlns="http://www.w3.org/2000/svg">
<g id="#fe4040ff">
<path fill="#fe4040" opacity="1.00" d=" M 49.09 6.44 C 53.53 -0.23 62.44 1.16 69.32 0.32 C 70.97 2.62 72.49 5.04 73.43 7.73 C 74.81 11.75 77.23 15.37 78.24 19.53 C 79.65 22.55 81.61 25.27 83.93 27.66 C 86.23 26.06 88.40 24.15 91.08 23.23 C 93.07 23.55 94.94 24.37 96.82 25.05 C 98.17 30.12 98.65 35.43 100.56 40.35 C 102.15 43.91 104.49 47.07 106.28 50.53 C 109.17 56.16 113.46 60.89 116.71 66.30 C 119.40 70.61 119.39 75.88 120.17 80.75 C 121.21 81.78 122.25 82.81 123.30 83.84 C 124.97 84.07 128.28 82.34 128.58 84.95 C 127.78 87.11 126.01 88.67 124.56 90.39 C 127.88 93.44 132.23 90.36 136.00 90.00 L 136.00 99.20 C 132.64 102.80 128.73 105.89 125.70 109.78 C 125.26 112.12 127.87 112.89 129.25 114.18 C 127.35 117.13 125.39 120.05 123.48 123.00 L 121.59 123.00 C 121.21 122.75 120.47 122.26 120.09 122.02 C 119.99 120.22 119.96 118.43 119.92 116.64 C 117.91 115.29 117.03 113.05 115.80 111.09 C 114.36 109.53 112.34 108.64 110.87 107.11 C 109.86 105.33 109.37 103.32 108.61 101.43 C 106.48 100.80 104.38 100.05 102.34 99.18 C 102.66 97.78 102.97 96.37 103.27 94.97 C 101.17 95.47 99.09 96.21 96.91 96.19 C 94.03 95.73 91.15 94.44 88.19 95.09 C 86.49 95.99 85.14 97.44 83.38 98.26 C 79.09 99.06 75.20 96.73 71.07 96.06 C 67.35 95.43 64.45 92.83 61.03 91.45 C 58.21 92.66 57.65 96.43 55.79 98.73 C 55.78 100.91 55.76 103.09 55.73 105.27 C 53.75 105.04 51.76 104.75 49.88 104.07 C 49.38 104.26 48.39 104.63 47.90 104.81 C 44.33 103.49 40.50 103.74 36.83 104.45 C 36.16 106.08 35.49 107.71 34.85 109.35 C 34.05 108.51 33.25 107.67 32.46 106.83 C 29.01 107.09 25.54 108.06 23.08 110.62 C 19.53 110.63 16.02 110.07 12.52 109.54 C 13.46 108.49 14.31 107.33 15.45 106.50 C 19.35 105.40 23.86 105.84 27.01 102.85 C 27.55 98.90 28.12 94.12 24.84 91.15 C 22.53 89.76 19.87 89.09 17.40 88.03 C 14.89 89.00 12.18 88.93 9.54 88.93 C 8.61 87.94 7.68 86.97 6.75 85.99 C 5.06 85.99 3.38 85.99 1.69 85.99 C 1.52 81.44 2.59 76.52 0.00 72.43 L 0.00 70.46 C 3.25 73.21 6.96 75.65 8.93 79.56 C 8.91 80.25 8.87 81.61 8.85 82.29 C 13.03 82.38 17.22 82.33 21.36 81.69 C 21.79 82.45 22.66 83.98 23.10 84.74 C 23.78 82.69 23.95 80.52 24.50 78.44 C 26.17 75.77 29.41 74.33 32.44 75.54 C 33.92 74.74 35.39 73.92 36.85 73.08 C 36.19 71.71 35.48 70.36 35.04 68.90 C 35.11 66.09 37.54 64.23 39.35 62.40 C 35.54 62.19 33.76 58.88 32.03 56.00 C 32.70 53.91 33.28 51.80 33.99 49.73 C 35.01 49.19 35.94 48.53 36.79 47.76 C 37.44 42.28 37.18 36.66 35.63 31.35 C 36.32 30.39 37.01 29.44 37.70 28.49 C 38.60 28.73 40.38 29.21 41.27 29.46 C 42.21 28.57 43.14 27.69 44.07 26.80 C 44.72 26.95 46.02 27.26 46.67 27.41 C 47.17 26.25 47.68 25.09 48.18 23.93 C 49.04 24.36 49.89 24.80 50.75 25.23 C 51.65 24.49 52.54 23.75 53.44 23.01 C 51.27 18.96 49.62 14.47 51.16 9.88 C 50.47 8.74 49.78 7.59 49.09 6.44 Z" />
</g>
</svg>
