<?xml version="1.0" encoding="UTF-8" ?>
<!DOCTYPE svg PUBLIC "-//W3C//DTD SVG 1.1//EN" "http://www.w3.org/Graphics/SVG/1.1/DTD/svg11.dtd">
<svg width="51pt" height="55pt" viewBox="0 0 51 55" version="1.1" xmlns="http://www.w3.org/2000/svg">
<g id="#fe4040ff">
<path fill="#fe4040" opacity="1.00" d=" M 9.75 0.00 L 11.59 0.00 C 11.61 1.83 11.63 3.67 11.67 5.50 C 12.62 4.67 13.57 3.84 14.51 3.00 C 15.09 3.00 16.25 3.00 16.83 3.01 C 16.90 3.73 17.05 5.17 17.13 5.89 C 18.27 5.79 19.42 5.68 20.57 5.57 C 22.31 4.75 24.13 4.09 26.00 3.59 C 28.48 2.81 30.83 3.58 32.84 5.12 C 35.72 4.89 38.57 4.39 41.42 3.94 C 42.61 5.98 43.82 8.00 45.01 10.03 C 44.11 11.68 43.18 13.32 42.54 15.09 C 44.27 14.96 45.99 14.77 47.70 14.52 C 48.81 15.57 49.93 16.63 51.00 17.73 L 51.00 19.19 C 50.48 19.66 49.43 20.59 48.91 21.06 C 48.92 22.63 48.92 24.21 48.92 25.79 C 47.32 25.81 45.72 25.83 44.12 25.84 C 43.07 27.18 42.05 28.53 41.05 29.90 C 41.35 30.36 41.95 31.28 42.25 31.73 C 41.45 33.41 40.88 35.26 39.66 36.70 C 37.36 37.66 34.82 37.78 32.45 38.51 C 29.20 41.76 26.74 45.81 25.41 50.22 C 24.79 50.12 23.55 49.93 22.92 49.83 C 19.45 51.98 15.59 53.36 11.88 55.00 L 3.86 55.00 C 4.08 53.52 4.19 52.04 4.26 50.55 C 2.84 50.07 1.42 49.60 0.00 49.13 L 0.00 48.51 C 1.72 43.80 2.27 38.86 1.65 33.87 C 2.53 32.32 3.39 30.75 4.20 29.16 C 4.87 29.23 6.22 29.37 6.89 29.44 C 10.20 27.38 14.46 27.17 17.26 24.27 C 16.47 20.72 13.95 18.37 10.58 17.21 C 11.22 16.23 11.84 15.23 12.43 14.21 C 11.22 13.68 10.01 13.14 8.80 12.59 C 9.75 11.71 10.71 10.84 11.66 9.96 C 10.53 9.25 9.40 8.55 8.26 7.86 C 8.15 6.95 7.92 5.14 7.81 4.23 C 8.47 4.50 9.80 5.04 10.47 5.31 C 10.22 3.54 9.98 1.77 9.75 0.00 Z" />
</g>
</svg>
