<?xml version="1.0" encoding="UTF-8" ?>
<!DOCTYPE svg PUBLIC "-//W3C//DTD SVG 1.1//EN" "http://www.w3.org/Graphics/SVG/1.1/DTD/svg11.dtd">
<svg width="48pt" height="66pt" viewBox="0 0 48 66" version="1.1" xmlns="http://www.w3.org/2000/svg">
<g id="#fe4040ff">
<path fill="#fe4040" opacity="1.00" d=" M 10.33 0.00 L 12.11 0.00 C 14.23 0.63 16.39 1.09 18.58 1.40 C 19.54 2.25 19.97 4.32 21.55 4.00 C 22.46 2.73 23.22 1.35 24.02 0.00 L 24.56 0.00 C 25.25 0.24 26.63 0.71 27.32 0.94 C 26.99 1.38 26.32 2.25 25.99 2.68 C 26.98 3.71 27.96 4.74 28.94 5.77 C 29.32 5.12 30.07 3.82 30.45 3.17 C 30.85 3.35 31.66 3.72 32.06 3.90 C 33.51 2.89 34.98 1.92 36.48 0.99 C 37.08 1.29 38.28 1.90 38.88 2.20 C 40.02 4.53 40.36 7.61 43.04 8.73 C 42.54 10.01 42.04 11.29 41.57 12.58 C 42.30 12.82 43.76 13.28 44.49 13.51 C 43.93 14.48 43.42 15.46 42.95 16.47 C 44.59 17.74 46.37 18.81 48.00 20.08 L 48.00 24.54 C 45.06 25.34 42.02 26.12 39.65 28.15 C 38.25 27.70 36.87 27.24 35.48 26.77 C 35.61 27.29 35.88 28.33 36.01 28.85 C 34.48 31.37 34.07 34.28 33.56 37.12 C 34.03 38.17 34.50 39.21 34.97 40.26 C 33.27 42.00 32.81 44.33 32.66 46.68 C 30.86 46.09 29.10 45.35 27.23 45.01 C 24.37 48.86 21.93 53.06 18.11 56.10 C 17.63 59.40 17.30 62.71 16.75 66.00 L 11.67 66.00 C 12.17 64.36 12.77 62.75 13.09 61.07 C 11.69 59.82 9.88 59.15 8.04 58.89 C 5.29 59.67 2.72 61.00 0.00 61.89 L 0.00 52.90 C 1.02 51.79 2.09 50.71 3.13 49.62 C 2.76 48.01 2.36 46.42 1.95 44.83 C 3.90 42.31 5.94 39.86 8.19 37.61 C 6.14 35.50 4.17 32.98 5.28 29.85 C 3.69 26.64 4.09 23.04 5.45 19.83 C 7.52 17.84 10.97 16.78 11.46 13.57 C 12.05 9.01 10.68 4.52 10.33 0.00 Z" />
</g>
</svg>
