<?xml version="1.0" encoding="UTF-8" ?>
<!DOCTYPE svg PUBLIC "-//W3C//DTD SVG 1.1//EN" "http://www.w3.org/Graphics/SVG/1.1/DTD/svg11.dtd">
<svg width="46pt" height="51pt" viewBox="0 0 46 51" version="1.1" xmlns="http://www.w3.org/2000/svg">
<g id="#fe4040ff">
<path fill="#fe4040" opacity="1.00" d=" M 8.20 0.00 L 9.59 0.00 C 9.85 1.96 11.69 3.58 13.69 3.22 C 15.26 2.56 16.26 1.05 17.56 0.00 L 17.57 0.00 C 18.61 0.71 19.65 1.43 20.68 2.17 C 21.17 4.20 21.50 6.45 23.01 8.03 C 24.24 9.31 26.14 9.21 27.76 9.50 C 28.05 9.95 28.64 10.85 28.94 11.30 C 31.14 9.25 33.55 7.46 36.12 5.90 C 38.07 10.24 43.70 10.51 46.00 14.70 L 46.00 17.17 C 45.12 19.04 44.18 20.88 43.05 22.60 C 43.12 24.10 43.12 25.74 44.67 26.51 C 44.69 27.85 44.69 29.19 44.69 30.53 C 43.24 30.91 41.79 31.33 40.47 32.06 C 41.25 32.28 42.82 32.71 43.60 32.92 C 43.08 33.69 42.56 34.47 42.04 35.24 C 42.64 35.66 43.82 36.51 44.42 36.94 C 43.48 36.94 41.62 36.95 40.68 36.95 C 40.63 39.21 41.98 41.06 42.76 43.07 C 41.97 43.89 41.11 44.63 40.16 45.27 C 38.47 43.28 36.20 42.07 33.55 42.19 C 29.89 44.07 28.50 47.85 26.27 51.00 L 25.33 51.00 C 23.84 48.30 22.02 45.64 18.97 44.57 C 18.09 42.58 18.26 40.65 20.19 39.34 C 19.12 36.51 16.06 36.07 13.56 35.13 C 14.27 34.65 15.69 33.69 16.40 33.20 C 14.65 32.93 12.97 32.41 11.35 31.71 C 11.70 31.02 12.38 29.65 12.73 28.96 C 10.44 27.92 7.90 27.69 5.44 27.36 C 3.58 26.15 1.68 24.99 0.00 23.52 L 0.00 21.75 C 0.98 20.38 1.63 18.83 2.25 17.28 C 1.69 16.78 0.56 15.80 0.00 15.30 L 0.00 9.54 C 1.67 9.39 3.34 9.25 5.01 9.07 C 4.61 7.68 4.23 6.28 3.87 4.88 C 3.44 4.66 2.58 4.23 2.15 4.01 C 2.03 3.01 1.78 1.01 1.66 0.01 C 2.68 0.73 3.69 1.46 4.70 2.19 C 5.86 1.45 7.02 0.70 8.20 0.00 Z" />
</g>
</svg>
