<?xml version="1.0" encoding="UTF-8" ?>
<!DOCTYPE svg PUBLIC "-//W3C//DTD SVG 1.1//EN" "http://www.w3.org/Graphics/SVG/1.1/DTD/svg11.dtd">
<svg width="57pt" height="40pt" viewBox="0 0 57 40" version="1.1" xmlns="http://www.w3.org/2000/svg">
<g id="#fe4040ff">
<path fill="#fe4040" opacity="1.00" d=" M 3.68 0.00 L 5.33 0.00 C 10.00 1.61 15.61 2.53 20.12 0.00 L 21.16 0.00 C 23.18 1.79 24.16 4.33 25.55 6.59 C 26.33 5.61 27.10 4.63 27.86 3.64 C 28.46 7.42 33.55 8.26 36.55 6.88 C 36.60 7.73 36.69 9.43 36.74 10.28 C 37.80 10.07 38.87 9.85 39.93 9.62 C 42.10 10.94 43.52 13.36 46.18 13.81 C 45.94 14.30 45.45 15.27 45.20 15.75 C 45.69 16.07 46.65 16.71 47.14 17.02 C 49.51 16.51 51.99 16.22 54.14 15.01 C 55.09 15.33 56.05 15.65 57.00 15.98 L 57.00 16.91 C 55.74 18.15 54.06 18.78 52.57 19.67 C 52.51 19.17 52.39 18.16 52.33 17.65 C 50.83 17.54 49.33 17.41 47.83 17.28 C 47.89 19.36 47.91 21.51 49.13 23.31 C 47.69 25.82 45.15 25.92 42.71 24.84 C 42.86 27.85 42.84 30.90 41.77 33.76 C 40.66 33.91 39.55 34.06 38.44 34.21 C 35.54 33.80 32.60 33.78 29.68 33.85 C 27.90 35.58 25.96 37.16 24.41 39.11 C 23.29 39.35 22.18 39.58 21.06 39.81 C 20.39 37.36 20.26 34.80 19.61 32.36 C 18.03 30.05 14.98 30.15 12.55 30.73 C 11.62 29.96 10.68 29.19 9.74 28.43 C 9.79 24.50 8.86 19.81 12.17 16.88 C 11.01 14.44 8.48 13.17 6.97 10.99 C 5.24 10.65 3.54 10.04 2.24 8.79 C 2.25 6.93 2.03 5.09 0.25 4.00 C 0.59 3.35 1.28 2.03 1.63 1.37 C 2.14 1.03 3.17 0.34 3.68 0.00 Z" />
</g>
</svg>
