<svg width="29" height="19" viewBox="0 0 29 19" fill="none" xmlns="http://www.w3.org/2000/svg">
    <g clip-path="url(#a)" fill-rule="evenodd" clip-rule="evenodd" fill="#086DE0">
        <path d="M19.505 1.75a1.164 1.164 0 0 1 .825-.352 1.138 1.138 0 0 1 .826.353l6.997 7.196a1.202 1.202 0 0 1 .343.85 1.229 1.229 0 0 1-.343.849l-6.997 7.197a1.152 1.152 0 0 1-.826.352c-.31 0-.606-.127-.825-.352a1.218 1.218 0 0 1-.342-.85c0-.318.123-.623.342-.849l6.173-6.347-6.173-6.348a1.23 1.23 0 0 1 0-1.698z"/>
        <path d="M.5 9.798c0-.318.123-.623.342-.848a1.15 1.15 0 0 1 .824-.352h24.49c.309 0 .605.127.824.352.219.225.342.53.342.848 0 .318-.123.623-.342.848a1.15 1.15 0 0 1-.825.351H1.666a1.15 1.15 0 0 1-.824-.351A1.217 1.217 0 0 1 .5 9.798z"/>
    </g>
    <defs>
        <clipPath id="a">
            <path fill="#fff" transform="translate(.5 .5)" d="M0 0h28v18H0z"/>
        </clipPath>
    </defs>
</svg>
