<svg width="24" height="25" viewBox="0 0 24 25" fill="none" xmlns="http://www.w3.org/2000/svg">
<g clip-path="url(#clip0_122_153)">
<path fill-rule="evenodd" clip-rule="evenodd" d="M0 12.9645C0 18.9305 4.333 23.8915 10 24.8975V16.2305H7V12.8975H10V10.2305C10 7.23046 11.933 5.56446 14.667 5.56446C15.533 5.56446 16.467 5.69746 17.333 5.83046V8.89746H15.8C14.333 8.89746 14 9.63046 14 10.5645V12.8975H17.2L16.667 16.2305H14V24.8975C19.667 23.8915 24 18.9315 24 12.9645C24 6.32746 18.6 0.897461 12 0.897461C5.4 0.897461 0 6.32746 0 12.9645Z" fill="black"/>
</g>
<defs>
<clipPath id="clip0_122_153">
<rect width="24" height="24" fill="white" transform="translate(0 0.897461)"/>
</clipPath>
</defs>
</svg>
