<svg width="24" height="25" viewBox="0 0 24 25" fill="none" xmlns="http://www.w3.org/2000/svg">
<rect y="0.897461" width="24" height="24" rx="12" fill="black"/>
<g clip-path="url(#clip0_122_155)">
<path fill-rule="evenodd" clip-rule="evenodd" d="M8.9765 5.60809C9.7585 5.57209 10.0078 5.56409 11.9998 5.56409C13.9918 5.56409 14.2412 5.57275 15.0225 5.60809C15.8038 5.64342 16.3372 5.76809 16.8038 5.94875C17.2925 6.13342 17.7358 6.42209 18.1025 6.79542C18.4758 7.16142 18.7638 7.60409 18.9478 8.09342C19.1292 8.56009 19.2532 9.09342 19.2892 9.87342C19.3252 10.6568 19.3332 10.9061 19.3332 12.8974C19.3332 14.8894 19.3245 15.1388 19.2892 15.9208C19.2538 16.7008 19.1292 17.2341 18.9478 17.7008C18.7638 18.1901 18.4754 18.6336 18.1025 19.0001C17.7358 19.3734 17.2925 19.6614 16.8038 19.8454C16.3372 20.0268 15.8038 20.1508 15.0238 20.1868C14.2412 20.2228 13.9918 20.2308 11.9998 20.2308C10.0078 20.2308 9.7585 20.2221 8.9765 20.1868C8.1965 20.1514 7.66317 20.0268 7.1965 19.8454C6.70712 19.6614 6.26372 19.3729 5.89717 19.0001C5.52409 18.6339 5.23538 18.1907 5.05117 17.7014C4.8705 17.2348 4.7465 16.7014 4.7105 15.9214C4.6745 15.1381 4.6665 14.8888 4.6665 12.8974C4.6665 10.9054 4.67517 10.6561 4.7105 9.87475C4.74584 9.09342 4.8705 8.56009 5.05117 8.09342C5.23565 7.60414 5.52458 7.16096 5.89784 6.79475C6.26386 6.42175 6.70682 6.13305 7.19584 5.94875C7.6625 5.76809 8.19584 5.64409 8.97584 5.60809H8.9765ZM14.9632 6.92809C14.1898 6.89275 13.9578 6.88542 11.9998 6.88542C10.0418 6.88542 9.80984 6.89275 9.0365 6.92809C8.32117 6.96075 7.93317 7.08009 7.6745 7.18075C7.3325 7.31409 7.08784 7.47209 6.83117 7.72875C6.58787 7.96545 6.40062 8.25361 6.28317 8.57209C6.1825 8.83075 6.06317 9.21875 6.0305 9.93409C5.99517 10.7074 5.98784 10.9394 5.98784 12.8974C5.98784 14.8554 5.99517 15.0874 6.0305 15.8608C6.06317 16.5761 6.1825 16.9641 6.28317 17.2228C6.4005 17.5408 6.58784 17.8294 6.83117 18.0661C7.06784 18.3094 7.3565 18.4968 7.6745 18.6141C7.93317 18.7148 8.32117 18.8341 9.0365 18.8668C9.80984 18.9021 10.0412 18.9094 11.9998 18.9094C13.9585 18.9094 14.1898 18.9021 14.9632 18.8668C15.6785 18.8341 16.0665 18.7148 16.3252 18.6141C16.6672 18.4808 16.9118 18.3228 17.1685 18.0661C17.4118 17.8294 17.5992 17.5408 17.7165 17.2228C17.8172 16.9641 17.9365 16.5761 17.9692 15.8608C18.0045 15.0874 18.0118 14.8554 18.0118 12.8974C18.0118 10.9394 18.0045 10.7074 17.9692 9.93409C17.9365 9.21875 17.8172 8.83075 17.7165 8.57209C17.5832 8.23009 17.4252 7.98542 17.1685 7.72875C16.9318 7.48547 16.6436 7.29823 16.3252 7.18075C16.0665 7.08009 15.6785 6.96075 14.9632 6.92809ZM11.0632 15.1581C11.5863 15.3758 12.1688 15.4052 12.7111 15.2412C13.2535 15.0772 13.7221 14.73 14.0369 14.2589C14.3517 13.7878 14.4932 13.222 14.4372 12.6582C14.3812 12.0943 14.1312 11.5674 13.7298 11.1674C13.474 10.9117 13.1646 10.716 12.8241 10.5942C12.4835 10.4724 12.1201 10.4277 11.7602 10.4632C11.4002 10.4987 11.0526 10.6135 10.7424 10.7995C10.4321 10.9855 10.167 11.2379 9.96604 11.5387C9.76508 11.8394 9.6333 12.1809 9.58018 12.5387C9.52707 12.8965 9.55394 13.2616 9.65886 13.6078C9.76379 13.9539 9.94416 14.2725 10.187 14.5406C10.4298 14.8086 10.7291 15.0195 11.0632 15.1581ZM9.3345 10.2321C9.68452 9.88207 10.1 9.60442 10.5574 9.41499C11.0147 9.22557 11.5048 9.12807 11.9998 9.12807C12.4948 9.12807 12.985 9.22557 13.4423 9.41499C13.8996 9.60442 14.3152 9.88207 14.6652 10.2321C15.0152 10.5821 15.2928 10.9976 15.4823 11.455C15.6717 11.9123 15.7692 12.4024 15.7692 12.8974C15.7692 13.3924 15.6717 13.8826 15.4823 14.3399C15.2928 14.7972 15.0152 15.2127 14.6652 15.5628C13.9583 16.2696 12.9995 16.6668 11.9998 16.6668C11.0001 16.6668 10.0414 16.2696 9.3345 15.5628C8.62761 14.8559 8.23049 13.8971 8.23049 12.8974C8.23049 11.8977 8.62761 10.939 9.3345 10.2321ZM16.6052 9.68942C16.6919 9.6076 16.7613 9.50921 16.8094 9.40007C16.8574 9.29093 16.883 9.17327 16.8848 9.05404C16.8865 8.93481 16.8643 8.81645 16.8195 8.70596C16.7747 8.59547 16.7081 8.49509 16.6238 8.41078C16.5395 8.32646 16.4391 8.25992 16.3286 8.2151C16.2181 8.17027 16.0998 8.14807 15.9805 8.14981C15.8613 8.15155 15.7437 8.17719 15.6345 8.22522C15.5254 8.27325 15.427 8.34268 15.3452 8.42942C15.186 8.59811 15.0989 8.82217 15.1023 9.05404C15.1057 9.28591 15.1993 9.50734 15.3633 9.67131C15.5272 9.83529 15.7487 9.92891 15.9805 9.93229C16.2124 9.93567 16.4365 9.84855 16.6052 9.68942Z" fill="white"/>
</g>
<defs>
<clipPath id="clip0_122_155">
<rect width="16" height="16" fill="white" transform="translate(4 4.89746)"/>
</clipPath>
</defs>
</svg>
