<svg width="48" height="49" viewBox="0 0 48 49" fill="none" xmlns="http://www.w3.org/2000/svg">
    <g clip-path="url(#a)">
        <g clip-path="url(#b)" fill="#fff">
            <path d="M29.642 14.124H41.64v3.446H29.642v-3.446zM29.642 22.738H41.64v3.445H29.642v-3.445zM29.642 31.35H41.64v3.446H29.642V31.35z"/>
            <path d="M45.068 5.511H3.932c-.909.001-1.78.364-2.423 1.01A3.458 3.458 0 0 0 .504 8.956v31.008c.001.914.363 1.79 1.005 2.436a3.423 3.423 0 0 0 2.423 1.01h41.136a3.425 3.425 0 0 0 2.422-1.011 3.459 3.459 0 0 0 1.006-2.435V8.956c-.001-.913-.363-1.789-1.005-2.435a3.423 3.423 0 0 0-2.423-1.01zM3.932 8.956h18.854v31.008H3.932V8.956zm22.282 31.008V8.956h18.854l.003 31.008H26.214z"/>
        </g>
    </g>
    <defs>
        <clipPath id="a">
            <path fill="#fff" transform="translate(0 .5)" d="M0 0h48v48H0z"/>
        </clipPath>
        <clipPath id="b">
            <path fill="#fff" transform="translate(.5 5.5)" d="M0 0h48v37.92H0z"/>
        </clipPath>
    </defs>
</svg>
