<svg width="36" height="37" viewBox="0 0 36 37" fill="none" xmlns="http://www.w3.org/2000/svg">
<path d="M12.522 25.326C13.3977 25.326 14.1712 24.5845 14.1839 23.6641C14.1712 22.7564 13.3977 22.0213 12.522 22.0213C11.6016 22.0213 10.8473 22.7564 10.8601 23.6641C10.8473 24.5845 11.6016 25.326 12.522 25.326ZM18.0064 25.326C18.8821 25.326 19.6555 24.5845 19.6683 23.6641C19.6555 22.7564 18.8821 22.0213 18.0064 22.0213C17.0859 22.0213 16.3317 22.7564 16.3445 23.6641C16.3317 24.5845 17.0859 25.326 18.0064 25.326ZM23.4908 25.326C24.3665 25.326 25.1399 24.5845 25.1527 23.6641C25.1399 22.7564 24.3665 22.0213 23.4908 22.0213C22.5703 22.0213 21.8161 22.7564 21.8288 23.6641C21.8161 24.5845 22.5703 25.326 23.4908 25.326Z" fill="#BCBCBC"/>
</svg>
