<svg width="19" height="18" viewBox="0 0 19 18" fill="none" xmlns="http://www.w3.org/2000/svg">
<path d="M12.8623 2.25H6.1123C5.49098 2.25 4.9873 2.75368 4.9873 3.375V5.625H3.8623V3.375C3.8623 2.13236 4.86966 1.125 6.1123 1.125H12.8623C14.1049 1.125 15.1123 2.13236 15.1123 3.375V5.625H13.9873V3.375C13.9873 2.75368 13.4836 2.25 12.8623 2.25Z" fill="black"/>
<path d="M16.2373 6.75H2.7373C2.11598 6.75 1.6123 7.25368 1.6123 7.875V11.25C1.6123 11.8713 2.11598 12.375 2.7373 12.375H3.8623V13.5H2.7373C1.49466 13.5 0.487305 12.4926 0.487305 11.25V7.875C0.487305 6.63236 1.49466 5.625 2.7373 5.625H16.2373C17.4799 5.625 18.4873 6.63236 18.4873 7.875V11.25C18.4873 12.4926 17.4799 13.5 16.2373 13.5H15.1123V12.375H16.2373C16.8586 12.375 17.3623 11.8713 17.3623 11.25V7.875C17.3623 7.25368 16.8586 6.75 16.2373 6.75Z" fill="black"/>
<path fill-rule="evenodd" clip-rule="evenodd" d="M12.8623 10.125H6.1123C5.49098 10.125 4.9873 10.6287 4.9873 11.25V14.625C4.9873 15.2463 5.49098 15.75 6.1123 15.75H12.8623C13.4836 15.75 13.9873 15.2463 13.9873 14.625V11.25C13.9873 10.6287 13.4836 10.125 12.8623 10.125ZM6.1123 9C4.86966 9 3.8623 10.0074 3.8623 11.25V14.625C3.8623 15.8676 4.86966 16.875 6.1123 16.875H12.8623C14.1049 16.875 15.1123 15.8676 15.1123 14.625V11.25C15.1123 10.0074 14.1049 9 12.8623 9H6.1123Z" fill="black"/>
<path d="M3.8623 8.4375C3.8623 8.74816 3.61046 9 3.2998 9C2.98914 9 2.7373 8.74816 2.7373 8.4375C2.7373 8.12684 2.98914 7.875 3.2998 7.875C3.61046 7.875 3.8623 8.12684 3.8623 8.4375Z" fill="black"/>
</svg>
