<svg width="24" height="25" viewBox="0 0 24 25" fill="none" xmlns="http://www.w3.org/2000/svg">
<rect y="0.897461" width="24" height="24" rx="12" fill="black"/>
<path d="M19.9958 7.4395C19.4077 7.70008 18.776 7.87615 18.1119 7.95574C18.7971 7.5457 19.3098 6.90035 19.5542 6.1401C18.9104 6.52252 18.2058 6.7917 17.471 6.93594C16.9768 6.40834 16.3223 6.05863 15.6091 5.94112C14.8958 5.82361 14.1637 5.94487 13.5264 6.28606C12.8892 6.62726 12.3824 7.16931 12.0847 7.82805C11.7871 8.4868 11.7152 9.22538 11.8804 9.92913C10.5758 9.86363 9.29963 9.52456 8.1346 8.93392C6.96958 8.34328 5.94176 7.51427 5.11786 6.50069C4.83615 6.98665 4.67417 7.55007 4.67417 8.15012C4.67385 8.6903 4.80688 9.22221 5.06144 9.69865C5.316 10.1751 5.68422 10.5813 6.13344 10.8813C5.61246 10.8647 5.10298 10.724 4.6474 10.4707V10.513C4.64735 11.2706 4.90942 12.0049 5.38914 12.5913C5.86886 13.1777 6.53669 13.5801 7.2793 13.7301C6.79601 13.8609 6.28932 13.8802 5.7975 13.7865C6.00702 14.4384 6.41515 15.0084 6.96475 15.4168C7.51435 15.8253 8.17791 16.0516 8.86253 16.0641C7.70035 16.9765 6.26506 17.4713 4.78756 17.4692C4.52583 17.4692 4.26433 17.454 4.00439 17.4234C5.50415 18.3877 7.24996 18.8994 9.03297 18.8975C15.0687 18.8975 18.3682 13.8985 18.3682 9.56291C18.3682 9.42205 18.3647 9.27979 18.3584 9.13893C19.0002 8.67479 19.5542 8.10004 19.9944 7.44161L19.9958 7.4395Z" fill="white"/>
</svg>
