<svg width="18" height="18" viewBox="0 0 18 18" fill="none" xmlns="http://www.w3.org/2000/svg">
<path d="M5.65426 16.875C12.4466 16.875 16.1633 11.2467 16.1633 6.37408C16.1633 6.21574 16.1633 6.05739 16.1561 5.89905C16.8764 5.38084 17.503 4.72589 18 3.98456C17.3373 4.27965 16.6243 4.47398 15.8752 4.56754C16.6387 4.11411 17.2221 3.38718 17.503 2.5235C16.7899 2.94814 15.9976 3.25043 15.1549 3.41597C14.4778 2.69624 13.5198 2.25 12.461 2.25C10.4226 2.25 8.76591 3.90539 8.76591 5.94224C8.76591 6.23013 8.80192 6.51083 8.85954 6.78433C5.79112 6.63318 3.06843 5.15773 1.2461 2.92655C0.929172 3.47355 0.7491 4.10691 0.7491 4.78346C0.7491 6.06459 1.40456 7.19457 2.39136 7.85673C1.78631 7.83514 1.21729 7.6696 0.720288 7.3961C0.720288 7.41049 0.720288 7.42489 0.720288 7.44648C0.720288 9.23142 1.9952 10.7285 3.68067 11.0667C3.37095 11.1531 3.04682 11.1963 2.70828 11.1963C2.47059 11.1963 2.2401 11.1747 2.01681 11.1315C2.48499 12.5998 3.85354 13.665 5.46699 13.6938C4.19928 14.687 2.60744 15.2772 0.878752 15.2772C0.583434 15.2772 0.288115 15.2628 0 15.2268C1.62785 16.2632 3.57263 16.875 5.65426 16.875Z" fill="black"/>
</svg>
