<svg width="18" height="18" viewBox="0 0 18 18" fill="none" xmlns="http://www.w3.org/2000/svg">
<path fill-rule="evenodd" clip-rule="evenodd" d="M16.6329 4.89229C16.7442 4.52145 16.6329 4.24889 16.1035 4.24889H14.3531C13.908 4.24889 13.703 4.48432 13.5917 4.74401C13.5917 4.74401 12.7015 6.91364 11.4404 8.32297C11.0325 8.73094 10.847 8.86059 10.6245 8.86059C10.5132 8.86059 10.3522 8.73094 10.3522 8.3601V4.89229C10.3522 4.44719 10.223 4.24889 9.85207 4.24889H7.10142C6.82336 4.24889 6.65607 4.45544 6.65607 4.65123C6.65607 5.07321 7.28647 5.17048 7.35148 6.35726V8.93498C7.35148 9.50012 7.24946 9.60264 7.02691 9.60264C6.43352 9.60264 4.99018 7.42313 4.13398 4.92942C3.96619 4.44469 3.7979 4.24889 3.35055 4.24889H1.60014C1.10002 4.24889 1 4.48432 1 4.74401C1 5.20761 1.59351 7.50715 3.76314 10.5484C5.20973 12.6251 7.24746 13.7511 9.10189 13.7511C10.2147 13.7511 10.3522 13.501 10.3522 13.0703V11.5006C10.3522 11.0005 10.4576 10.9007 10.8098 10.9007C11.0696 10.9007 11.5146 11.0305 12.5532 12.0318C13.74 13.2185 13.9355 13.7511 14.6032 13.7511H16.3536C16.8537 13.7511 17.1038 13.501 16.9595 13.0076C16.8017 12.5157 16.2351 11.8023 15.4831 10.9563C15.0752 10.4741 14.4631 9.95485 14.2779 9.69529C14.0182 9.36146 14.0923 9.21317 14.2779 8.9166C14.2779 8.9166 16.4103 5.9124 16.6329 4.89242V4.89229Z" fill="#130F26"/>
</svg>
