<svg width="18" height="18" viewBox="0 0 18 18" fill="none" xmlns="http://www.w3.org/2000/svg">
<path fill-rule="evenodd" clip-rule="evenodd" d="M9.05767 2.24854C9.06407 2.24855 9.07097 2.24856 9.07837 2.24858L9.15802 2.24883C10.0825 2.25223 14.7683 2.28619 16.0317 2.62584C16.8061 2.83357 17.416 3.44574 17.623 4.22282C17.7369 4.64975 17.8164 5.2172 17.8717 5.80079L17.8825 5.91769C17.8912 6.01523 17.8992 6.11298 17.9067 6.21037L17.9153 6.32704C17.9893 7.35541 17.9979 8.31773 17.9989 8.52828L17.999 8.55668C17.999 8.55901 17.999 8.56105 17.999 8.56281V8.57876C17.999 8.58051 17.999 8.58256 17.999 8.58488L17.9989 8.61329C17.9979 8.83179 17.9886 9.85992 17.9067 10.9313L17.8974 11.0483L17.8876 11.1654C17.8319 11.8095 17.7483 12.4492 17.623 12.9188C17.416 13.6958 16.8061 14.3082 16.0317 14.5157C14.7262 14.8668 9.76635 14.8914 9.07837 14.8931L9.02539 14.8932C9.02105 14.8932 9.01723 14.8932 9.01394 14.8933L8.99233 14.8933C8.99012 14.8933 8.98736 14.8933 8.98407 14.8933L8.91964 14.8931C8.57196 14.8923 7.13326 14.8856 5.62658 14.8338L5.43395 14.827C5.40181 14.8258 5.36966 14.8246 5.3375 14.8233L5.14465 14.8157L4.95224 14.8076C3.70405 14.7528 2.51396 14.663 1.9665 14.5157C1.19202 14.3082 0.582165 13.6958 0.375174 12.9188C0.249774 12.4492 0.166175 11.8095 0.110441 11.1654L0.100612 11.0483L0.0913782 10.9313C0.0123883 9.89888 0.000922075 8.90662 -0.000742383 8.6403L-0.00094128 8.60218C-0.000955238 8.59874 -0.00096687 8.59558 -0.000976562 8.5927V8.54887C-0.00096687 8.54598 -0.000955238 8.54282 -0.00094128 8.53939L-0.000742383 8.50127C0.000765051 8.26009 0.0103121 7.4235 0.070777 6.50091L0.0786034 6.38517C0.079953 6.36582 0.0813255 6.34644 0.0827213 6.32704L0.0913782 6.21037C0.0988301 6.11298 0.106883 6.01523 0.115585 5.91769L0.126343 5.80079C0.18172 5.2172 0.261174 4.64975 0.375174 4.22282C0.582165 3.44574 1.19202 2.83357 1.9665 2.62584C2.51396 2.47866 3.70405 2.38888 4.95224 2.33411L5.14465 2.32596L5.3375 2.31834C5.36966 2.31712 5.40181 2.31591 5.43395 2.31473L5.62658 2.30788C7.03709 2.25946 8.38802 2.25049 8.84 2.24883L8.91964 2.24858C8.92704 2.24856 8.93394 2.24855 8.94034 2.24854H9.05767ZM7.19906 5.86113V11.2804L11.8754 8.57093L7.19906 5.86113Z" fill="black"/>
</svg>
